<svg xmlns="http://www.w3.org/2000/svg" width="42.629" height="42.554" viewBox="0 0 42.629 42.554">
  <g id="グループ_332" data-name="グループ 332" transform="translate(-182.895 -196.956)">
    <line id="線_61" data-name="線 61" y1="5.624" transform="translate(204.272 220.245)" fill="none" stroke="#4c5c59" stroke-linecap="round" stroke-linejoin="round" stroke-width="1.1"/>
    <line id="線_62" data-name="線 62" x2="5.503" transform="translate(183.445 217.875)" fill="none" stroke="#4c5c59" stroke-linecap="round" stroke-linejoin="round" stroke-width="1.1"/>
    <line id="線_63" data-name="線 63" x2="8.628" transform="translate(193.296 217.999)" fill="none" stroke="#4c5c59" stroke-linecap="round" stroke-linejoin="round" stroke-width="1.1"/>
    <line id="線_64" data-name="線 64" x2="8.628" transform="translate(206.53 217.999)" fill="none" stroke="#4c5c59" stroke-linecap="round" stroke-linejoin="round" stroke-width="1.1"/>
    <line id="線_65" data-name="線 65" x2="4.56" transform="translate(219.807 217.875)" fill="none" stroke="#4c5c59" stroke-linecap="round" stroke-linejoin="round" stroke-width="1.1"/>
    <path id="パス_7461" data-name="パス 7461" d="M201.677,213.155a2.314,2.314,0,1,0-2.313,2.313A2.313,2.313,0,0,0,201.677,213.155Z" transform="translate(4.873 4.777)" fill="none" stroke="#4c5c59" stroke-linecap="round" stroke-linejoin="round" stroke-width="1.1"/>
    <rect id="長方形_262" data-name="長方形 262" width="14.922" height="11.04" rx="0.431" transform="translate(196.776 225.851)" fill="#1bb69f" stroke="#4c5c59" stroke-linecap="round" stroke-linejoin="round" stroke-width="1.1"/>
    <line id="線_66" data-name="線 66" x2="8.462" transform="translate(200.007 238.96)" fill="none" stroke="#4c5c59" stroke-linecap="round" stroke-linejoin="round" stroke-width="1.1"/>
    <line id="線_67" data-name="線 67" y1="4.878" transform="translate(190.99 210.648)" fill="none" stroke="#4c5c59" stroke-linecap="round" stroke-linejoin="round" stroke-width="1.1"/>
    <line id="線_68" data-name="線 68" y1="4.961" transform="translate(217.555 210.648)" fill="none" stroke="#4c5c59" stroke-linecap="round" stroke-linejoin="round" stroke-width="1.1"/>
    <path id="パス_7462" data-name="パス 7462" d="M191.923,213.109a2.314,2.314,0,1,0-2.313,2.314A2.312,2.312,0,0,0,191.923,213.109Z" transform="translate(1.379 4.761)" fill="#1bb69f" stroke="#4c5c59" stroke-linecap="round" stroke-linejoin="round" stroke-width="1.1"/>
    <g id="グループ_331" data-name="グループ 331" transform="translate(183.607 197.505)">
      <rect id="長方形_263" data-name="長方形 263" width="14.922" height="11.04" rx="0.431" fill="#fffbed" stroke="#4c5c59" stroke-linecap="round" stroke-linejoin="round" stroke-width="1.1"/>
      <line id="線_69" data-name="線 69" x2="8.462" transform="translate(3.23 13.109)" fill="none" stroke="#4c5c59" stroke-linecap="round" stroke-linejoin="round" stroke-width="1.1"/>
    </g>
    <path id="パス_7463" data-name="パス 7463" d="M211.431,213.109a2.314,2.314,0,1,0-2.313,2.314A2.312,2.312,0,0,0,211.431,213.109Z" transform="translate(8.368 4.761)" fill="#1bb69f" stroke="#4c5c59" stroke-linecap="round" stroke-linejoin="round" stroke-width="1.1"/>
    <rect id="長方形_264" data-name="長方形 264" width="14.923" height="11.04" rx="0.431" transform="translate(210.052 197.505)" fill="#fffbed" stroke="#4c5c59" stroke-linecap="round" stroke-linejoin="round" stroke-width="1.1"/>
    <line id="線_70" data-name="線 70" x2="8.462" transform="translate(213.282 210.614)" fill="none" stroke="#4c5c59" stroke-linecap="round" stroke-linejoin="round" stroke-width="1.1"/>
  </g>
</svg>
