<svg xmlns="http://www.w3.org/2000/svg" width="265" height="199.26" viewBox="0 0 265 199.26">
  <g id="グループ_462" data-name="グループ 462" transform="translate(-243 -5451.105)">
    <rect id="長方形_79" data-name="長方形 79" width="265" height="131" rx="3" transform="translate(243 5495)" fill="#fff"/>
    <g id="グループ_232" data-name="グループ 232" transform="translate(18.546 4498.003)">
      <g id="レイヤー_1" data-name="レイヤー 1" transform="translate(251.954 955.714)">
        <path id="パス_7216" data-name="パス 7216" d="M449.07,1122.478l-.051-1.026.135-1.009-.955-.295-1.03-.028-.949-.465-1.045.037-1.012-.132-1.036,0-.941-.515-1.037,0-.978-.316-1.059.129-.906-.715-1.059.127-1.042.031-.925-.624-1.04.012-1.026-.062-.99-.261-1.023-.066-.964-.4-1.038.039-.96-.426-.976-.339-1.065.191-.945-.523-1.077.269-.973-.363-1.051.125-.96-.451-1.033.022-.981-.319-1.021-.035-1.031.085-.956-.674-1.093.266-.059,1.036.038,1.035-.439,1,.206,1.047-.271,1.01-.049,1.026.335,1.055-.076,1.025-.065,1.025-.1,1.022-.137,1.019-.324,1-.137,1.019.14,1.04-.025,1.028-.331,1-.311,1,.127,1.039.216,1.046-.581.982.367,1.056-.5.988.173,1.043.135,1.039-.053,1.024-.228,1.011-.157,1.016-.082,1.022.06,1.033-.278,1.008.25,1.048-.609.98,0,1.028.094,1.036-.162,1.016.289,1.051-.1,1.02-.3,1-.277,1.006.116,1.038.157,1.041-.133,1.018-.565.983-.121,1.018.388,1.058-.27,1.007-.14,1.017.162,1.042-.339,1.1,1.13-.131,1.036.071,1.03-.26,1.034.038,1.032-.106,1.038.407,1.025-.441,1.039.427,1.033.052,1.025-.568,1.036.2,1.033.106,1.03-.168,1.035.278,1.033.057,1.031-.024,1.03-.045,1.024-.518,1.035.262,1.028-.136,1.033.235,1.031.1,1.025-.482,1.035.229,1.031.02,1.029-.209h1.031l1.031.031,1.03-.111,1.035.19,1.033.116,1.032.08,1.026-.317,1.034.195,1.183,0,.087-1.177.116-1.023-.466-1.048.165-1.019.351-1.011-.335-1.04.349-1.008.1-1.022-.309-1.039.28-1.013.049-1.024.309-1.011-.359-1.041.044-1.022-.1-1.03.271-1.012.2-1.014-.348-1.04.227-1.014.311-1.009-.439-1.042.466-1,.169-1.017.014-1.024-.294-1.037.193-1.016,0-1.024-.209-1.033.583-1,.039-1.023.051-1.022-.488-1.045.547-1-.366-1.041.152-1.018.165-1.016-.291-1.036.263-1.011-.158-1.031.6-1Z" transform="translate(-342.979 -1047.512)" fill="#505050"/>
        <path id="パス_7217" data-name="パス 7217" d="M496.607,1073.391l-.1-1.044-.291-1.013-.09-1.014-.157-1-.339-.972.071-1.042-.559-.936.095-1.047.085-1.043-.583-.934-.051-1.022-.412-.964.2-1.061-.162-1-.443-.96-.224-.994-.06-1.019.2-1.058-.473-.959-.151-1.007.149-1.051-.535-.948.079-1.038-.284-.984.253-1.063-.628-.933.2-1.054-.482-.953.057-1.035-.044-1.02-.385-.97.111-1.042-.4-.967.231-1.061-.194-1-.069-1.017-.615-.935V1035.2l-.161-1-.131-1.007-.271-.986.053-1.036-.5-.991.386-1.02-.075-1.025-.044-1.022.289-1.009.08-1.016.17-1.012-.347-1.031-.071-1.022.152-1.013.144-1.013.346-1.005-.351-1.032.162-1.012-.152-1.024.19-1.011.225-1.009-.254-1.027.136-1.012.182-1.01-.036-1.03-.089-1.035-.1-1.039.5-1-.019-1.034-.02-1.034.2-1.023-.3-1.043.028-1.03.377-1.026-.205-1.033-.206-1.027-.051-1.026.284-1.043-.114-1.027v-1.036l-.155-1.023-.39-.989-.1-1.023.259-1.092-.343-.989-.57-.93.043-1.072-.391-.963-.152-1.033-.671-.862-.293-.985-.246-1.008-.476-.916-.336-.979-.18-1.065-.7-.8-.423-.949-.45-.939-.6-.848-.631-.824-.794-.7-.631-.813-.365-1.028-1.014-.5-.324-1.085-.636-.825-.766-.7-.831-.634-.879-.574-.507-.973-.882-.566-.683-.794-1.1-.27-.7-.766-.769-.687-.918-.472-.724-.783-1.13-.1-.81-.646-.96-.364-.919-.442-.89-.518-.974-.319-.973-.314L464,960.039l-.92-.48-.948-.419-1-.23-.978-.349-1.074.19-.961-.511-1.049.134-1.025,0-1-.5-1.04.514-1.023-.327-1.021.156-1.036-.133-.994.38-1.071-.294-.979.409-.947.489-1.017.116-1.031.091-.9.553-1.134-.177-.78.852-1.026.177-.994.286-.836.622-1.064.182-.828.625-.777.69-.877.528-.891.517-.723.738-.966.448-.567.9-.908.539-.615.835-.651.793-.559.865-.839.649-.521.892-.306,1.022-.593.83-.4.849-.608.8.093.9.235,1.008-1.326.054-1.027.346-.853.666-.654.871-.876.606-.61.864-.781.741-.242,1.087-.8.763-.323,1.016-.114,1.087-.714.85-.533.935-.028,1.094-.581.933.254,1.15-.331,1-.09,1.052-.665.936-.144,1-.2.995-.115,1.008-.245.994.264,1.041-.186,1-.276,1,.29,1.02.188,1.007.041,1-.172,1.017-.066,1.019.494.966-.382,1.062.372.97.376.959-.262,1.079.632.9.069,1.02.189,1,.442.923.127,1.05.673.8.639.808.687.771.686.768.894.592.67.782.388,1.023.98.517.362,1.043,1.018.482.652.8.653.8.475.949.888.593.458.964.814.657.694.759.494.932.674.777.89.59.483.939.727.729.43.987.863.613.466.953.887.59.452.963.65.794,1.043.458.723.735.542.89.636.809.8.67.649.8.408,1.005.842.631.73.727.43.985.771.692.45.969,1.058.447.282,1.112,1.039.461.67.778.719.736.543.888.557.876.722.735.607.833.673.776.709.744.494.928.883.594.62.82.589.848.569.865.754.707.7.753.527.9.77.692.719.735.738.718.685.764.773.687.506.917.608.83.732.723.76.7.507.918.6.836.667.782,1,.491.381,1.025,1.01.485.538.889.7.747.39,1.016.733.721.988.5.478.94.445.968.735.719.947.537.523.9.625.815.667.779.862.612.712.742.45.968.9.583.453.964.612.826.655.788.594.84.721.731.652.789.627.81.887.587.614.821.545.88.737.716.537.984,1.22-.333.948-.486,1.08-.139.969-.455.744-.791.694-.79.822-.649.517-.917.88-.666.469-.949.27-1.032.38-.969.2-1.026.522-.932-.043-1.078.735-.924-.318-1.106.074-1.036.3-1.021-.161-1.049.2-1.039.157-1.05-.167-1.039Z" transform="translate(-345.635 -957.871)" fill="#505050"/>
        <path id="パス_7218" data-name="パス 7218" d="M478.236,1285.642l-.009-1.035.073-1.034-.012-1.033-.049-1.034.067-1.036-.5-1.035.3-1.035-.345-1.035.319-1.035.153-1.035-.344-1.035.342-1.036-.257-1.035.194-1.034-.037-1.035-.375-1.035.143-1.035-.012-1.035.353-1.034-.224-1.034.161-1.034-.354-1.035.391-1.031-.29-1.035.39-1.045-.253-1.028-.132-1.031-.49-.97.065-1.059-.327-.985-.167-1.025-.194-1.025-.284-1-.434-.949-.351-.983-.371-.98-.674-.822-.685-.8-.276-1.048-.764-.736-.679-.781-.592-.846-.385-1.038-.786-.7-.909-.562-.761-.7-.54-.958-.9-.545-1.016-.38-.744-.734-.91-.5-.883-.536-.822-.639-.8-.694-.945-.439-.91-.506-.932-.465-1.024-.25-.987-.325-.833-.684-1.057-.089-.929-.447-.95-.387-.942-.424-1.1.091-.885-.613-1.1.118-.882-.646-1.01-.193-.942-.45-1.038-.083-1.091.139-.982-.289-.908-.6-.968-.358-1.094.2-.932-.519-.979-.315-1.063.082-1.019-.117-.976-.32-1.018-.122-1.024-.089-.975-.337-1-.181-.955-.445-1.067.156-1.019-.1-1-.224-.975-.351-.946-.531-1.018-.11-1.023-.074-1.078.266-.922-.708-1.04.044-1.025.038-1.013-.235-1.018.059-1.016.064-1.016.1-1.016,0-1.015.155-1.013-.3h-1.015l-1.015-.017-1.015-.022-1.015-.069-1.014.206-1.015-.108-1.014-.244-1.015.122-1.014,0-1.013.052-1.014.07-1.014-.161-1.012.491-1.012-.211-1.012.029-1.014-.027-1.014-.078-1.014-.293-1.014.591-1.014-.557-1.013.47-1.013-.122-1.014-.233-1.013-.022-1.013.393-1.013-.2-1.014-.2-1.014-.031-1.013.17-1.013-.144-1.008.315-1.056-.265-.969.42-1.024.062-1.018.118-1.018.109-.958.461-1,.212-1.025.076-1.043-.025-.962.427-1.023.094-.956.451-1.061-.1-.954.454-1.054-.055-.929.567-1.068-.115-.965.383-.99.256-1.025.1-.963.392-1.093-.183-.953.42L357,1229.29l-.9.627-1.08-.1-.985.278-1.015.167-.965.351-.954.387-1.008.193-.958.367-1,.23-.941.417-.87.615-1.049.087-.883.554-1.091,0-.962.406-.905.534-.9.523-.884.552-.9.505-1.044.258-.884.547-.868.574-.729.773-1.111.24-.778.7-.584.923-.735.726-.873.582-.733.734-.881.606-.715.767-.241,1.135-.746.734-.49.917-.774.739-.565.878-.317,1.008-.736.8-.144,1.073-.377.966-.124,1.049-.277.989-.319.979-.422.962-.056,1.04.01,1.041-.395.994-.3,1.024.414,1.045-.372,1.04.417,1.035-.227,1.04-.248,1.038.372,1.038-.3,1.037.482,1.036-.1,1.035-.045,1.037-.194,1.037.25,1.036-.095,1.037-.359,1.036.383,1.036-.413,1.035.53,1.036-.34,1.035.256,1.034.037,1.035-.338,1.035.354,1.034-.43,1.033-.053,1.034.2,1.036-.183,1.036.185,1.035-.073,1.036-.1,1.035.227,1.035-.126,1.035-.105,1.036.444,1.035-.134,1.035.1,1.035-.093,1.035-.067,1.036.047,1.035-.158,1.034,0,1.034-.125,1.035.314,1.035.188,1.035H478.167l-.045-1.039.166-1.039.012-1.038-.284-1.037-.131-1.037.027-1.036.4-1.035-.273-1.037-.02-1.036.206-1.036-.172-1.036-.081-1.036.038-1.036-.2-1.035.443-1.036-.172-1.035.244-1.034Z" transform="translate(-292.327 -1110.532)" fill="#a1b8dd"/>
        <path id="パス_7219" data-name="パス 7219" d="M490.691,1308.665l-.111-1.024.119-1.039-.127-1.02-.2-1.014.055-1.034-.238-1.012.037-1.031-.1-1.021.362-1.054-.311-1.005-.409-1,.387-1.056-.412-1,.361-1.055-.255-1.01-.045-1.025-.473-.993.086-1.035-.084-1.022.064-1.033-.073-1.022-.272-1.007-.049-1.024.295-1.051-.119-1.019-.4-1-.015-1.027-.08-1.022-.158-1.016-.041-1.025-.02-1.027.166-1.041-.348-1,.165-1.041-.215-1.012-.179-1.015.081-1.035.1-1.037-.669-.977.451-1.065-.379-1,.084-1.036-.208-1.014-.019-1.029.071-1.035-.1-1.022-.1-1.023-.041-1.027-.019-1.029-.23-1.013-.274-1.01-.177-1.017.363-1.058-.321-1.007.05-1.035-.126-1.022-.087-1.025-.073-1.025.007-1.031-.447-1-.058-1.026.447-1.063-.17-1.018-.56-.991.481-1.064-.587-.989-.1-1.023.227-1.047-.116-1.023.121-1.039-.212-1.138-1.039.278-1.024.108-1.038.01-.96.518-1.008.2-1.032.036-1.071-.229-.943.621-1.071-.217-1,.236-.993.292-1.031.037-.975.408-1.075-.252-.956.532H469.2l-1.007.185-1.029.05-.979.377-1,.206-1.017.116-.992.281-1.025.076-1.022.1-1.038-.014-1.033.024-.977.391-1,.223-1,.239-1.068-.2-.955.529-1.054-.121-.985.331-1,.268-1.05-.068-1.059.066-.948-.68-1.079.232-.97-.515-1.074.2-1.043,0-1.006-.247-1.026-.126-1.037-.045-.967-.523-1.059.1-1.009-.233-.974-.479-1.041-.01-1.005-.263h-1.042l-1.053.076-1.044.01-.975-.467-.993-.327-1.052.077h-1.041l-1-.328-1.024-.128-1.048.042-1.008-.244-.993-.34-1.006-.252L420.36,1237l-1.045.015-1.048.04-.966-.524-1.062.139-.958-.583-1.071.191-1.033-.063-.976-.225-.361.9.446,1.061-.119,1.022-.363,1-.239,1.012.048,1.035-.187,1.015-.125,1.021.184,1.047-.285,1.008-.034,1.03-.138,1.021-.22,1.014.357,1.065-.035,1.03-.585.979.019,1.035.14,1.047-.422.994-.13,1.022.058,1.04.052,1.04-.424.994.114,1.047-.163,1.02.31,1.068-.162,1.02-.5.986.3,1.066-.542.979.2,1.057-.437.99.218,1.059-.443.989-.088,1.027.1,1.047-.053,1.031-.267,1.008-.022,1.034-.357,1,.126,1.051.184,1.057-.563.976.065,1.044-.381,1,.132,1.052.117,1.051-.517.981.009,1.039-.253,1.01.032,1.042-.313,1,.441,1.087-.214,1.015-.364,1,.183,1.059-.228,1.013-.076,1.03-.113,1.025-.287,1.005.065,1.044-.216,1.013.044,1.042-.414.992.069,1.045,0,1.038-.5.982.178,1.057-.167,1.019.129,1.051-.533.98.006,1.038-.325,1,86.657.022-.232-1.018Z" transform="translate(-339.176 -1116.951)" fill="#fff"/>
        <path id="パス_7220" data-name="パス 7220" d="M502.589,1184.781c-.031-.553-.334-.536-.364-1.089s.068-.558.037-1.11.272-.57.242-1.122-.464-.529-.495-1.082.1-.559.067-1.111.345-.573.314-1.125.017-.556-.014-1.109-.43-.531-.46-1.084-.209-.543-.24-1.1.164-.565.133-1.119.314-.6-.086-.986-.421-.335-.965-.335-.544.417-1.088.417-.544-.334-1.087-.334-.544.411-1.087.411-.544-.117-1.087-.117-.544-.067-1.089-.067-.544-.117-1.087-.117-.544.278-1.088.278-.544-.34-1.088-.34-.544.071-1.088.071-.544.178-1.088.178-.544-.031-1.088-.031-.544-.051-1.088-.051-.544.051-1.088.051-.543-.213-1.086-.213-.543-.127-1.086-.127-.544.022-1.088.022-.544.1-1.088.1-.543-.157-1.087-.157-.544.322-1.087.322-.544.156-1.089.156-.544-.359-1.087-.359-.544.016-1.089.016-.544.254-1.088.254-.544.109-1.089.109-.544-.38-1.089-.38-.544-.06-1.089-.06-.545.086-1.09.086-.543.22-1.087.22-.544-.32-1.089-.32-.545.2-1.09.2-.545.216-1.09.216-.545-.087-1.09-.087-.546-.067-1.092-.067-.618-.364-1,.024-.01.448,0,.987-.1.542-.088,1.08-.089.541-.076,1.079.114.537.127,1.076-.245.545-.233,1.084.356.53.368,1.068.033.538.045,1.077.2.535.208,1.074-.4.549-.388,1.089.34.532.352,1.071-.379.549-.366,1.09.269.521.377,1.051c.25.276.361.592.624.847s.688.337.968.574.351.746.646.965.615.429.923.63.562.523.882.706.828.03,1.159.195.675.285,1.015.432.607.464.953.6.776.009,1.128.123.6.548.961.648.8-.142,1.158-.057.683.312,1.046.385.671.453,1.036.513.784-.226,1.15-.177.7.4,1.066.435.781-.421,1.149-.392.727.122,1.1.143.736-.011,1.1,0,.734.012,1.1.019.735.083,1.1.083.737-.011,1.1-.016.736-.1,1.1-.114.746.222,1.113.207.721-.274,1.087-.292c.35-.037.764.472,1.118.422s.636-.535.988-.6.673-.219,1.023-.293.67-.21,1.017-.3.777.175,1.12.078.739-.033,1.077-.143.7-.186,1.033-.308.642-.336.971-.472.518-.6.84-.746.757-.071,1.072-.234.628-.346.935-.523.7-.244.994-.436.539-.491.827-.7.544-.522.82-.745a3.544,3.544,0,0,0,.055-1.122C502.714,1185.327,502.619,1185.333,502.589,1184.781Z" transform="translate(-373.064 -1080.63)" fill="#f7b6a5"/>
        <path id="パス_7221" data-name="パス 7221" d="M595.4,1234.734c.231.14.166.063-.041-.026Z" transform="translate(-448.478 -1116.299)" fill="#ffd2be"/>
        <path id="パス_7222" data-name="パス 7222" d="M495.536,1215.759c-.535-.16-.593.038-1.128-.122s-.515-.226-1.05-.385-.529-.181-1.063-.34-.53-.176-1.065-.336l-1.07-.319c-.536-.16-.449-.449-.984-.608s-.58-.011-1.115-.171-.533-.162-1.068-.321-.562-.066-1.1-.226-.554-.1-1.089-.258-.553-.1-1.089-.263-.468-.385-1-.545a3.45,3.45,0,0,0-1.113-.136c-.621-.044-.807.122-1.154-.318s-.05-.62-.08-1.178.127-.568.1-1.127-.078-.556-.109-1.115.036-.563.005-1.122.062-.565.031-1.125a2.618,2.618,0,0,0-.161-1.136c-.276.223-.747.3-1.036.5s-.333.774-.633.967-.665.292-.974.47-.683.238-1,.4-.541.524-.864.674-.7.2-1.025.337-.69.2-1.024.321-.615.416-.953.526-.738.041-1.079.138-.64.389-.984.474-.713.116-1.06.188-.781-.281-1.13-.22-.647.466-1,.515-.742-.242-1.092-.206c-.366.017-.725.07-1.1.084s-.727.282-1.1.292-.742-.322-1.112-.317-.734.537-1.1.537-.735-.417-1.1-.423-.749.366-1.118.353-.722-.39-1.091-.411-.727-.141-1.095-.171-.757.186-1.124.147-.71-.275-1.075-.324-.72-.148-1.084-.208-.7-.224-1.064-.3-.825.32-1.184.235-.644-.471-1-.57-.821.149-1.171.035-.624-.472-.969-.6-.6-.478-.936-.625-.85.075-1.18-.09-.463-.7-.783-.882-.864,0-1.173-.2-.487-.6-.784-.824-.4-.667-.682-.907-.653-.356-.92-.615-.587-.429-.837-.705a2.653,2.653,0,0,0-.174,1.1c.013.552-.045.554-.033,1.106s.036.552.049,1.105.238.548.251,1.1.011.553.024,1.106.306.548.319,1.1a1.342,1.342,0,0,1-.289,1.1c-.3.445-.439.343-.95.517s-.528.122-1.039.3-.6-.077-1.108.1-.475.277-.985.451-.565.015-1.077.189-.344.662-.855.836-.527.13-1.038.3-.589-.053-1.1.121-.514.167-1.025.341-.569.005-1.08.181-.492.227-1,.4-.4.495-.912.669-.486.25-1,.424-.66-.259-1.172-.084-.438.391-.949.566-.507.192-1.02.366-.549.043-.994.352.275.186.966.357c.3.075.666.136,1.078.237.325.079.708.064,1.1.156.336.08.716.07,1.1.158.342.079.729.036,1.1.122.346.079.707.146,1.079.229.348.078.624.534.994.615.35.077.756-.059,1.123.02s.657.408,1.024.485.776-.153,1.142-.078.737.038,1.1.112.7.217,1.067.289.732.064,1.1.134.7.229,1.066.3.741.02,1.106.086.735.046,1.1.11.7.223,1.069.285.728.1,1.092.16.667.476,1.032.534.786-.276,1.151-.219.686.377,1.051.431.755-.085,1.12-.034.674.519,1.038.568.755-.074,1.12-.029.719.213,1.084.255.74.042,1.105.081.753-.1,1.118-.062.707.4,1.071.43.769-.307,1.134-.279.72.314,1.085.337.754-.217,1.119-.2.728.331,1.093.344.748-.243,1.112-.236.74.1,1.1.1.715-.252,1.08-.26.724.19,1.089.176.725.071,1.089.052.718-.081,1.082-.106.7-.346,1.058-.376.722,0,1.083-.037.721-.024,1.082-.062.728.021,1.089-.021.684-.35,1.044-.4.771.323,1.13.274.673-.411,1.031-.463.737.038,1.095-.017.689-.278,1.046-.335.719-.085,1.075-.145.748.076,1.1.014.751.076,1.106.011.643-.517,1-.583.717-.113,1.071-.182.758.089,1.111.019.739-.024,1.091-.1.617-.607.968-.681.829.393,1.179.318.586-.732.936-.809.775.127,1.123.048.73-.086,1.076-.166.719-.14,1.063-.221c.361-.085.707-.2,1.05-.281.362-.087.764.031,1.106-.053.364-.09.6-.654.934-.74.367-.092.757-.025,1.091-.111.372-.1.7-.254,1.033-.34.381-.1.717-.243,1.035-.328.4-.108.752-.208,1.044-.289a1.408,1.408,0,0,1,.895.1c-.427-.267-.373-.343-.89-.5C496.04,1216.021,496.071,1215.918,495.536,1215.759Z" transform="translate(-350.583 -1098.268)" fill="#ffd2be"/>
        <g id="グループ_224" data-name="グループ 224" transform="translate(99.886 124.513)">
          <path id="パス_7223" data-name="パス 7223" d="M490.291,1312.274a.5.5,0,0,0,0,.108c0-.034,0-.068,0-.1Z" transform="translate(-488.234 -1285.201)" fill="#e6e6e6"/>
          <path id="パス_7224" data-name="パス 7224" d="M489.632,1320.543c-.027.175-.05.346-.072.516.026.115.05.228.072.337Z" transform="translate(-487.817 -1289.934)" fill="#e6e6e6"/>
          <path id="パス_7225" data-name="パス 7225" d="M491.519,1301.581c-.038.09-.074.177-.11.266.038.2.077.394.11.587Z" transform="translate(-488.875 -1279.082)" fill="#e6e6e6"/>
          <path id="パス_7226" data-name="パス 7226" d="M490.455,1314.923c-.062.126-.135.259-.21.394,0,.138-.006.277-.009.415Z" transform="translate(-488.204 -1286.717)" fill="#e6e6e6"/>
          <path id="パス_7227" data-name="パス 7227" d="M492.973,1287.562c-.008.035-.014.07-.021.105,0,.018,0,.038,0,.053C492.922,1288.051,492.947,1287.723,492.973,1287.562Z" transform="translate(-489.75 -1271.059)" fill="#e6e6e6"/>
          <path id="パス_7228" data-name="パス 7228" d="M496.178,1254.151c-.024.122-.052.24-.08.359l.08.494Z" transform="translate(-491.559 -1251.939)" fill="#e6e6e6"/>
          <path id="パス_7229" data-name="パス 7229" d="M486.924,1343.263c-.044.267-.138.371.084-.054-.015-.064-.029-.128-.044-.193Z" transform="translate(-486.276 -1302.794)" fill="#e6e6e6"/>
          <path id="パス_7230" data-name="パス 7230" d="M495.157,1261.885l-.005.014c0,.01.005.018.007.027A.264.264,0,0,1,495.157,1261.885Z" transform="translate(-491.017 -1256.365)" fill="#e6e6e6"/>
          <path id="パス_7231" data-name="パス 7231" d="M493.242,1280.265c-.005.011-.008.024-.013.034-.005.08-.01.162-.017.239C493.182,1280.862,493.343,1280.071,493.242,1280.265Z" transform="translate(-489.905 -1266.865)" fill="#e6e6e6"/>
          <path id="パス_7232" data-name="パス 7232" d="M493.159,1286.44c-.032-.04,0-.458-.059-.365a.367.367,0,0,0-.032.082,1.275,1.275,0,0,0,.054.163C493.138,1286.355,493.136,1286.411,493.159,1286.44Z" transform="translate(-489.825 -1270.2)" fill="#e6e6e6"/>
          <path id="パス_7233" data-name="パス 7233" d="M494.5,1272.226c-.072.135-.151.272-.23.411,0,.132,0,.263.011.4Q494.388,1272.631,494.5,1272.226Z" transform="translate(-490.511 -1262.283)" fill="#e6e6e6"/>
          <path id="パス_7234" data-name="パス 7234" d="M493.448,1278.922c.013.087.025.174.038.261C493.534,1279.5,493.513,1278.753,493.448,1278.922Z" transform="translate(-490.042 -1266.1)" fill="#e6e6e6"/>
          <path id="パス_7235" data-name="パス 7235" d="M489.515,1324.408c-.071.114-.145.228-.219.341,0,.155,0,.309,0,.468Z" transform="translate(-487.665 -1292.145)" fill="#e6e6e6"/>
          <path id="パス_7236" data-name="パス 7236" d="M498.915,1295.612c0-.017.006-.032.009-.049v-.01C498.947,1295.246,498.829,1296.213,498.915,1295.612Z" transform="translate(-493.152 -1275.597)" fill="#e6e6e6"/>
          <path id="パス_7237" data-name="パス 7237" d="M497.153,1308.924c-.013-.053-.024-.105-.04-.157C497,1308.406,497.071,1309.282,497.153,1308.924Z" transform="translate(-492.107 -1283.144)" fill="#e6e6e6"/>
          <path id="パス_7238" data-name="パス 7238" d="M498.613,1299.878c0-.029-.011-.057-.016-.085C498.613,1299.9,498.612,1299.924,498.613,1299.878Z" transform="translate(-492.989 -1278.059)" fill="#e6e6e6"/>
          <path id="パス_7239" data-name="パス 7239" d="M497.435,1307.9a1.234,1.234,0,0,0,.062-.2,1.5,1.5,0,0,1-.062.2Z" transform="translate(-492.324 -1282.584)" fill="#e6e6e6"/>
          <path id="パス_7240" data-name="パス 7240" d="M499.776,1283.361c.048-.143.092-.283.134-.422-.045-.144-.091-.287-.134-.431Z" transform="translate(-493.663 -1268.167)" fill="#e6e6e6"/>
          <path id="パス_7241" data-name="パス 7241" d="M487.461,1332.621a.569.569,0,0,0-.044.243c.012-.071.026-.144.044-.214Z" transform="translate(-486.59 -1296.846)" fill="#e6e6e6"/>
          <path id="パス_7242" data-name="パス 7242" d="M491.056,1249.029a1.642,1.642,0,0,0-1.12,1.973c.03.183.059.365.089.548.028-.119.056-.237.08-.359v.853l-.08-.494c-.13.552-.3,1.08-.432,1.637a2.22,2.22,0,0,0,0,.894c.012.1,0,.291.027.432l.005-.014c0-.188.15-.374.035-.1-.014.032-.023.067-.035.1a.266.266,0,0,0,0,.041.292.292,0,0,0,.035.1.22.22,0,0,1-.035-.1c0-.009-.005-.017-.007-.027l-.089.255a3.293,3.293,0,0,0-.184.659c-.1.749-.033,1.5-.061,2.252-.021.568-.052,1.1-.044,1.654.079-.139.158-.277.23-.411l-.219.81c-.007-.135-.009-.266-.011-.4a3.2,3.2,0,0,0-.506,1.369,6.041,6.041,0,0,0,.141,1l.015.1c.065-.168.086.583.038.261-.013-.087-.025-.174-.038-.261a.3.3,0,0,0-.014.048,3.459,3.459,0,0,0-.068.564c.005-.011.008-.023.013-.034.1-.194-.06.6-.03.273.007-.077.012-.158.017-.239-.052.114-.082.246-.121.363a2.8,2.8,0,0,0-.241.971,3.891,3.891,0,0,0,.216.955c.023.075.043.155.065.234a.366.366,0,0,1,.032-.082c.054-.093.027.325.059.365-.023-.029-.021-.085-.036-.12a1.286,1.286,0,0,1-.054-.163,3.373,3.373,0,0,0-.042.651c.006-.036.013-.07.021-.105s.008-.045.011-.059c-.005.019-.007.039-.011.059-.026.161-.051.489-.023.159,0-.015,0-.035,0-.053-.009.053-.021.106-.03.159-.042.216-.075.437-.126.651a19.683,19.683,0,0,0-.5,2.7c-.047.5-.089,1-.124,1.505a4.469,4.469,0,0,0,.109,1.146c.036-.088.072-.175.11-.266v.853c-.033-.193-.073-.39-.11-.587a7.3,7.3,0,0,0-.422,1.267,9.244,9.244,0,0,0-.288,1.888,5.2,5.2,0,0,0,.232,1.145l0,.008a.383.383,0,0,1,.021-.089.352.352,0,0,0-.019.1c.017.073.032.148.053.219.053.176-.038.052-.055-.12,0,.091.01.186.009.25-.011.39-.018.779-.025,1.169.075-.135.148-.269.21-.394l-.219.81c0-.139.006-.277.009-.415a3.952,3.952,0,0,0-.43.964,3.7,3.7,0,0,0,.132,1.562c.022-.17.045-.341.072-.516v.853c-.021-.109-.046-.222-.072-.337a12.951,12.951,0,0,0-.111,1.479c.074-.114.148-.227.219-.341l-.219.809c0-.159,0-.313,0-.468-.123.191-.245.382-.352.58a3.635,3.635,0,0,0-.317,1.256,8.032,8.032,0,0,0-.09,1.166c0,.056,0,.113,0,.17a1.205,1.205,0,0,1,.052-.123.8.8,0,0,0-.052.152c0,.052,0,.1,0,.155.007.12-.033.132-.042.059-.011.06-.021.119-.033.171a15.3,15.3,0,0,0-.22,2.075,4.208,4.208,0,0,0-.027,1.306c.041.218.092.435.142.651q.041-.25.081-.5v.853c-.012-.052-.024-.1-.036-.156-.038.078-.073.158-.11.237-.1.221-.207.441-.307.663a3.343,3.343,0,0,0-.244,1.325c-.021.472-.073.95-.073,1.423a6.99,6.99,0,0,0,.3,1.583,1.6,1.6,0,1,0,3.093-.852l-.175-.736a.312.312,0,0,1-.015.062c.014-.031-.113-.6,0-.133l.017.071a2.963,2.963,0,0,0,.011-.4c.021-.387.038-.774.056-1.16q-.1.222-.2.441l.219-.81c-.006.123-.012.246-.018.369a4.781,4.781,0,0,0,.562-2.852c-.04-.207-.09-.413-.138-.618-.005.064-.016.061-.049-.147-.07-.439,0-.065.024.031.009.039.017.077.026.116.005-.059.005-.174.013-.242.05-.442.085-.87.1-1.315,0-.064.01-.136.015-.208-.012.04-.02.082-.033.121-.093.282.011-.384.03-.273a.663.663,0,0,1,0,.152c.069-.237.122-.488.17-.726a4.109,4.109,0,0,0,.072-.788l0-.446c0-.229.081-.541-.053.148.044-.227.071-.459.107-.687.005-.033.027-.107.041-.175l-.016.027a.952.952,0,0,1-.113.181c-.094.079.15-.295.134-.329a.237.237,0,0,1-.005.121,3.056,3.056,0,0,0,.654-1.789c0-.165-.009-.33-.014-.494a1.335,1.335,0,0,0,0-.16c0-.01,0-.012,0-.02-.016.109-.033.219-.053.327.007-.038.013-.533.053-.327.025-.164.047-.329.072-.492a4.343,4.343,0,0,0-.054-1.416c-.092.191-.189.381-.284.576q.08-.619.161-1.236c.044.226.086.444.123.66a3.49,3.49,0,0,0,.417-1.474c.01-.556.044-1.117.039-1.673a4.184,4.184,0,0,0-.158-.96c-.027-.112-.052-.225-.08-.337-.082.358-.15-.518-.04-.157.016.051.027.1.04.157,0-.012.006-.023.009-.038.026-.139.039-.283.056-.424v0l0-.005c0-.018,0-.035.006-.053.011-.083.022-.167.033-.251.024-.179.065-.094.023.1.053-.223.07-.463.129-.679a5.142,5.142,0,0,1,.25-.644,2.223,2.223,0,0,0,.167-1.4c-.031-.19-.062-.381-.095-.571,0,.046,0,.019-.016-.085-.015-.083-.028-.165-.046-.247.023.105.037.188.046.247.005.028.011.056.016.085,0-.032,0-.1.009-.2.014-.192.027-.384.041-.575.016-.212.036-.423.056-.635.014-.148.031-.3.042-.443,0,.017-.007.032-.009.049-.086.6.032-.365.01-.059v.01c.081-.549.206-1.051.34-1.591a12.984,12.984,0,0,0,.314-1.891,3.094,3.094,0,0,0-.023-1.181c-.047-.177-.1-.354-.155-.529-.041.139-.086.278-.134.422v-.853c.043.144.089.287.134.431a7.982,7.982,0,0,0,.311-1.5,5.114,5.114,0,0,0-.048-1.236c-.09.166-.181.331-.27.5l.162-1.236c.036.249.075.494.108.738.083-.153.165-.306.241-.462a3.381,3.381,0,0,0,.178-1.743c-.008-.676.07-1.362.074-2.042,0-.272.025-.545.03-.817a.221.221,0,0,1-.037.086c.005,0,.033-.558.042-.29,0,.068,0,.136-.005.2.018-.058.036-.124.041-.14.079-.226.177-.453.238-.684a2.827,2.827,0,0,0-.028-1.349v.005a.971.971,0,0,1-.073.227c.051-.02-.024-.535.061-.288.006.017.008.039.013.056.073-.226.156-.452.218-.681a10.7,10.7,0,0,0,.211-1.053,6.016,6.016,0,0,0-.169-1.895A1.616,1.616,0,0,0,491.056,1249.029Z" transform="translate(-485.485 -1248.979)" fill="#e6e6e6"/>
          <path id="パス_7243" data-name="パス 7243" d="M501.839,1264.994a.219.219,0,0,0,.037-.086c0-.068.008-.136.005-.2C501.872,1264.436,501.844,1264.992,501.839,1264.994Z" transform="translate(-494.844 -1257.936)" fill="#e6e6e6"/>
          <path id="パス_7244" data-name="パス 7244" d="M500.072,1276.628c.089-.167.18-.332.27-.5-.033-.244-.072-.489-.108-.738Z" transform="translate(-493.833 -1264.095)" fill="#e6e6e6"/>
          <path id="パス_7245" data-name="パス 7245" d="M502.342,1260.265a.971.971,0,0,0,.073-.227v-.005c-.005-.017-.007-.039-.013-.056C502.318,1259.73,502.393,1260.245,502.342,1260.265Z" transform="translate(-495.132 -1255.235)" fill="#e6e6e6"/>
          <path id="パス_7246" data-name="パス 7246" d="M487.175,1341.848q-.04.25-.081.5c.015.064.03.129.044.193l.029-.057c-.01.02-.018.042-.029.062.012.052.024.1.036.156Z" transform="translate(-486.406 -1302.126)" fill="#e6e6e6"/>
          <path id="パス_7247" data-name="パス 7247" d="M496.106,1319.334c.1-.2.193-.385.284-.576-.037-.217-.079-.434-.123-.66Q496.187,1318.716,496.106,1319.334Z" transform="translate(-491.563 -1288.534)" fill="#e6e6e6"/>
          <path id="パス_7248" data-name="パス 7248" d="M492.913,1351.712a.31.31,0,0,0,.015-.062l-.017-.071C492.8,1351.109,492.927,1351.681,492.913,1351.712Z" transform="translate(-489.708 -1307.589)" fill="#e6e6e6"/>
          <path id="パス_7249" data-name="パス 7249" d="M487.2,1343.391v0c.01-.02.018-.042.029-.062Z" transform="translate(-486.465 -1302.976)" fill="#e6e6e6"/>
          <path id="パス_7250" data-name="パス 7250" d="M492.7,1348.3q.1-.218.2-.441c.006-.123.012-.246.018-.369Z" transform="translate(-489.612 -1305.353)" fill="#e6e6e6"/>
          <path id="パス_7251" data-name="パス 7251" d="M495.057,1329.577c.015.034-.228.408-.134.329a.951.951,0,0,0,.113-.181l.016-.027A.237.237,0,0,0,495.057,1329.577Z" transform="translate(-490.874 -1295.103)" fill="#e6e6e6"/>
          <path id="パス_7252" data-name="パス 7252" d="M496.6,1324.361c.021-.108.037-.218.053-.327C496.616,1323.828,496.61,1324.323,496.6,1324.361Z" transform="translate(-491.848 -1291.903)" fill="#e6e6e6"/>
          <path id="パス_7253" data-name="パス 7253" d="M494.328,1336.01c.013-.039.021-.081.033-.121a.663.663,0,0,0,0-.152C494.339,1335.626,494.235,1336.292,494.328,1336.01Z" transform="translate(-490.524 -1298.621)" fill="#e6e6e6"/>
          <path id="パス_7254" data-name="パス 7254" d="M494,1339.613c.033.208.044.21.049.147-.009-.039-.017-.077-.026-.116C494.006,1339.549,493.934,1339.174,494,1339.613Z" transform="translate(-490.343 -1300.728)" fill="#e6e6e6"/>
        </g>
        <g id="グループ_225" data-name="グループ 225" transform="translate(114.919 127.253)">
          <path id="パス_7255" data-name="パス 7255" d="M528.5,1292.786c.023-.054.046-.112.068-.174,0-.039,0-.078-.011-.116C528.5,1292.194,528.47,1292.851,528.5,1292.786Z" transform="translate(-525.128 -1276.577)" fill="#e6e6e6"/>
          <path id="パス_7256" data-name="パス 7256" d="M528.741,1287.452c.027-.093.058-.187.089-.283-.031-.19-.059-.38-.089-.57Z" transform="translate(-525.272 -1273.248)" fill="#e6e6e6"/>
          <path id="パス_7257" data-name="パス 7257" d="M528.693,1294c.009.066.016.108.021.134C528.682,1293.917,528.644,1293.66,528.693,1294Z" transform="translate(-525.231 -1277.389)" fill="#e6e6e6"/>
          <path id="パス_7258" data-name="パス 7258" d="M528.225,1281.782c0-.109.011-.219.017-.329-.083-.165-.166-.327-.236-.481Q528.115,1281.377,528.225,1281.782Z" transform="translate(-524.852 -1270.028)" fill="#e6e6e6"/>
          <path id="パス_7259" data-name="パス 7259" d="M527.994,1273.757a.9.9,0,0,0,.042-.123,1.713,1.713,0,0,0-.017-.178C528.007,1273.384,527.868,1274.028,527.994,1273.757Z" transform="translate(-524.815 -1265.723)" fill="#e6e6e6"/>
          <path id="パス_7260" data-name="パス 7260" d="M529.755,1304.621c.007-.023.012-.051.019-.075.009-.078.018-.155.025-.232C529.825,1304.016,529.758,1304.611,529.755,1304.621Z" transform="translate(-525.853 -1283.338)" fill="#e6e6e6"/>
          <path id="パス_7261" data-name="パス 7261" d="M527.853,1274.684c0-.123,0-.252.01-.383-.077-.142-.153-.284-.229-.427Z" transform="translate(-524.639 -1265.966)" fill="#e6e6e6"/>
          <path id="パス_7262" data-name="パス 7262" d="M528.484,1280.825c0-.054,0-.11,0-.163C528.472,1280.387,528.328,1281.219,528.484,1280.825Z" transform="translate(-525.084 -1269.817)" fill="#e6e6e6"/>
          <path id="パス_7263" data-name="パス 7263" d="M531.439,1346.277c.006-.045.007-.091.008-.137-.018-.046-.036-.092-.055-.135C531.309,1345.816,531.4,1346.6,531.439,1346.277Z" transform="translate(-526.77 -1307.228)" fill="#e6e6e6"/>
          <path id="パス_7264" data-name="パス 7264" d="M531.111,1337.836c.019-.046.037-.1.056-.147,0-.042,0-.083-.008-.124C531.115,1337.239,531.032,1338.031,531.111,1337.836Z" transform="translate(-526.61 -1302.369)" fill="#e6e6e6"/>
          <path id="パス_7265" data-name="パス 7265" d="M530.849,1332.538c.031-.186.074-.385.113-.588-.039-.089-.078-.177-.113-.265Z" transform="translate(-526.479 -1299.05)" fill="#e6e6e6"/>
          <path id="パス_7266" data-name="パス 7266" d="M522.892,1315.848a.526.526,0,0,1-.007-.1A.414.414,0,0,0,522.892,1315.848Z" transform="translate(-521.921 -1289.932)" fill="#e6e6e6"/>
          <path id="パス_7267" data-name="パス 7267" d="M530.356,1323.042c.038-.109.08-.22.121-.331-.042-.177-.086-.354-.121-.521Z" transform="translate(-526.197 -1293.616)" fill="#e6e6e6"/>
          <path id="パス_7268" data-name="パス 7268" d="M524.455,1354.187v.005c.011.046.02.093.032.139C524.6,1354.769,524.541,1353.873,524.455,1354.187Z" transform="translate(-522.819 -1311.888)" fill="#e6e6e6"/>
          <path id="パス_7269" data-name="パス 7269" d="M529.333,1305.484q.017-.161.035-.323c-.089-.168-.178-.332-.254-.487Z" transform="translate(-525.486 -1283.592)" fill="#e6e6e6"/>
          <path id="パス_7270" data-name="パス 7270" d="M530.272,1327.8c.041-.172.092-.353.141-.537-.048-.106-.1-.211-.141-.316Z" transform="translate(-526.148 -1296.341)" fill="#e6e6e6"/>
          <path id="パス_7271" data-name="パス 7271" d="M529.729,1317.788c.033-.247.076-.5.112-.75-.095-.166-.191-.329-.275-.486Q529.648,1317.17,529.729,1317.788Z" transform="translate(-525.745 -1290.389)" fill="#e6e6e6"/>
          <path id="パス_7272" data-name="パス 7272" d="M523.467,1324.548c-.031.13-.067.263-.1.4.036.155.073.307.1.453Z" transform="translate(-522.195 -1294.965)" fill="#e6e6e6"/>
          <path id="パス_7273" data-name="パス 7273" d="M523.846,1321.008l-.162-1.236c-.063.184-.135.37-.2.556h0Z" transform="translate(-522.263 -1292.232)" fill="#e6e6e6"/>
          <path id="パス_7274" data-name="パス 7274" d="M523.219,1308.892c-.013.1-.023.194-.035.292l.254.518Z" transform="translate(-522.092 -1286.006)" fill="#e6e6e6"/>
          <path id="パス_7275" data-name="パス 7275" d="M522.821,1300.783c-.029.167-.053.334-.08.5.027.118.056.234.08.353Z" transform="translate(-521.839 -1281.365)" fill="#e6e6e6"/>
          <path id="パス_7276" data-name="パス 7276" d="M524.374,1334.025c-.05.177-.1.35-.142.521.049.111.1.222.142.331Z" transform="translate(-522.692 -1300.389)" fill="#e6e6e6"/>
          <path id="パス_7277" data-name="パス 7277" d="M524.7,1348.282c-.044.133-.087.267-.133.4.042.148.086.3.133.452Z" transform="translate(-522.883 -1308.548)" fill="#e6e6e6"/>
          <path id="パス_7278" data-name="パス 7278" d="M523.869,1329.29c-.032.188-.074.39-.115.595.039.086.079.172.115.258Z" transform="translate(-522.418 -1297.679)" fill="#e6e6e6"/>
          <path id="パス_7279" data-name="パス 7279" d="M521.76,1288.957c-.029.113-.062.227-.094.341.034.176.068.349.094.511Z" transform="translate(-521.223 -1274.597)" fill="#e6e6e6"/>
          <path id="パス_7280" data-name="パス 7280" d="M528.517,1268.238c.007.043.014.087.021.13.009.007.01-.048-.021-.192,0,.005,0,.011,0,.016S528.517,1268.222,528.517,1268.238Z" transform="translate(-525.144 -1262.704)" fill="#e6e6e6"/>
          <path id="パス_7281" data-name="パス 7281" d="M521.23,1260.939a.38.38,0,0,0,.005.171v-.006A1.108,1.108,0,0,1,521.23,1260.939Z" transform="translate(-520.97 -1258.563)" fill="#e6e6e6"/>
          <path id="パス_7282" data-name="パス 7282" d="M525.3,1294.434c-.041.325-.13-.462-.047-.272.019.042.036.089.055.135,0-.072,0-.144.005-.215.007-.186.021-.373.021-.559,0-.337-.025-.678-.044-1.015s-.053-.677-.071-1.015c-.011-.186-.016-.373-.023-.56,0-.075,0-.152-.006-.228-.019.05-.037.1-.056.147-.079.195,0-.6.048-.271.006.04.006.082.008.124a3.12,3.12,0,0,0,.218-1.684,6.312,6.312,0,0,0-.292-.736c-.04.2-.082.4-.113.588v-.853c.036.088.074.177.113.265a3.436,3.436,0,0,0,.089-1.077,3.269,3.269,0,0,0-.308-.9c-.049.183-.1.364-.141.537V1286c.044.1.092.21.141.316a3.621,3.621,0,0,0,.158-.918,4.019,4.019,0,0,0-.142-.914c-.041.111-.083.222-.121.331v-.852c.034.167.078.344.121.521a2.813,2.813,0,0,0,.262-1.342,3.2,3.2,0,0,0-.446-1.1c-.037.251-.079.5-.112.75q-.081-.619-.162-1.236c.084.157.18.32.275.486a6.2,6.2,0,0,0,.078-.88c0-.487-.02-.962,0-1.449.023-.464.133-.923.15-1.384a2.914,2.914,0,0,0-.446-1.367c-.012.108-.023.216-.035.323l-.219-.81c.076.154.165.318.254.487l.026-.239c0-.041.009-.081.013-.122-.007.024-.012.051-.019.075,0-.009.07-.6.044-.307-.006.077-.016.155-.025.232a6.878,6.878,0,0,0,.212-1.364,9.991,9.991,0,0,0-.553-2.429c-.033-.151-.045-.308-.068-.461,0-.033-.017-.118-.03-.208,0-.026-.012-.068-.021-.133-.049-.344-.011-.086.021.133a3.306,3.306,0,0,0-.031-.477c-.006-.077-.008-.156-.013-.235-.022.062-.044.12-.068.174s0-.592.056-.29c.006.038.008.077.011.116a3.636,3.636,0,0,0,.221-1.462c-.03-.218-.067-.434-.1-.651-.031.1-.062.19-.089.283v-.853c.03.19.058.38.089.57a3.216,3.216,0,0,0,.244-1.385,3.761,3.761,0,0,0-.411-1.111c-.006.11-.014.22-.017.329q-.11-.405-.219-.81c.071.154.154.316.236.481.008-.14.009-.279.01-.418-.156.394-.012-.438,0-.163,0,.054,0,.109,0,.163v0c.075-.19.13-.391.195-.585a1.981,1.981,0,0,0-.134-1.641c-.077-.149-.158-.3-.238-.443-.005.13-.011.26-.01.383l-.219-.81c.076.142.152.285.229.427a4.017,4.017,0,0,0,0-.425.907.907,0,0,1-.042.123c-.127.271.013-.373.025-.3a1.707,1.707,0,0,1,.017.177c.012-.036.025-.072.037-.107.069-.2.149-.4.209-.607a3.169,3.169,0,0,0-.069-1.5c0-.009,0-.02,0-.03a.29.29,0,0,1-.021-.13,2.345,2.345,0,0,0-.055-.282c.026.092.042.16.055.219,0-.087,0-.175,0-.263a7.5,7.5,0,0,0-.028-.821,6.017,6.017,0,0,0-.066-.62c-.01.039-.022.08-.031.118-.113.441-.044-.447.028-.142,0,.008,0,.017,0,.024a4.607,4.607,0,0,0,.216-1.163c0-.331-.065-.669-.1-1a1.64,1.64,0,0,0-1.6-1.6,1.622,1.622,0,0,0-1.6,1.6l.068.7c0,.019,0,.042,0,.068.027-.146.109-.251.067-.107-.018.061-.028.125-.042.186-.006.03-.012.057-.018.086a.191.191,0,0,0,.02.063.251.251,0,0,1-.021-.058,4.828,4.828,0,0,0-.15,1.647c.048.447.041.879.049,1.329a5.973,5.973,0,0,0,.135,1.026c.036-.1.073-.2.108-.3v.852c-.033-.182-.071-.366-.108-.552-.072.2-.143.4-.2.6a3.706,3.706,0,0,0-.1,1.113,2.814,2.814,0,0,0,.272,1.358c.045.088.093.173.139.26.055-.194.114-.39.182-.594l.162,1.236q-.172-.32-.344-.642a5.758,5.758,0,0,0-.234,1.417,2.785,2.785,0,0,0,.247,1.358c.03.065.06.13.09.2.054-.177.112-.352.163-.527l.162,1.236c-.108-.236-.217-.472-.325-.709a4.514,4.514,0,0,0-.17.714,3.663,3.663,0,0,0,.1,1.136c.032-.114.065-.229.095-.341v.853c-.026-.163-.06-.336-.095-.511a4.361,4.361,0,0,0-.223,1.218,13.325,13.325,0,0,0,.178,1.739c.11.765.33,1.506.5,2.26.027-.166.052-.333.08-.5v.853c-.024-.119-.053-.235-.08-.353-.084.52-.162,1.039-.219,1.564a2.288,2.288,0,0,0,.235,1.343c.056.118.115.235.173.353.012-.1.022-.194.035-.292l.219.81-.254-.518a15.69,15.69,0,0,0-.131,2.412c0,.072,0,.153,0,.231,0-.187.082-.42.036-.077q-.053.395-.107.789a2.4,2.4,0,0,0,.327,1.564c.066-.187.138-.373.2-.556l.162,1.236-.363-.68h0a3.5,3.5,0,0,0-.182.691,3.45,3.45,0,0,0,.131,1.2c.036-.136.072-.27.1-.4v.853c-.03-.145-.067-.3-.1-.453a3.384,3.384,0,0,0-.167,1.268,3.476,3.476,0,0,0,.334.955c.04-.2.083-.407.115-.595v.853c-.035-.085-.075-.171-.115-.258a3.408,3.408,0,0,0-.087,1.069,3.342,3.342,0,0,0,.292.882c.044-.171.092-.344.142-.521v.853c-.044-.11-.093-.22-.142-.332a4.629,4.629,0,0,0-.184,1.391c.022.526.065,1.05.095,1.575s.043,1.047.024,1.574a4.548,4.548,0,0,0,.208,1.437c.045-.133.089-.267.133-.4v.853c-.046-.154-.091-.3-.133-.453-.052.155-.106.309-.154.465a2.461,2.461,0,0,0,.018,1.321c.029.128.058.256.088.384v-.006c.086-.314.144.582.03.144-.012-.046-.021-.093-.032-.139a7.089,7.089,0,0,0-.119.9,1.606,1.606,0,0,0,1.6,1.6,1.655,1.655,0,0,0,1.6-1.6,4.737,4.737,0,0,0,.105-1.229c-.032-.239-.083-.476-.139-.712-.041.115-.083.23-.121.344v-.852c.039.169.08.339.121.509.081-.225.161-.452.219-.681a3.1,3.1,0,0,0-.231-1.675C525.307,1294.343,525.306,1294.389,525.3,1294.434Z" transform="translate(-520.631 -1255.384)" fill="#e6e6e6"/>
          <path id="パス_7283" data-name="パス 7283" d="M528.143,1264.19c.009-.038.021-.079.031-.118,0-.008,0-.017,0-.024C528.1,1263.743,528.03,1264.631,528.143,1264.19Z" transform="translate(-524.896 -1260.305)" fill="#e6e6e6"/>
          <path id="パス_7284" data-name="パス 7284" d="M521.781,1277.093c-.068.2-.128.4-.182.594q.171.321.344.641Z" transform="translate(-521.185 -1267.808)" fill="#e6e6e6"/>
          <path id="パス_7285" data-name="パス 7285" d="M531.315,1351.532c.038-.114.08-.229.121-.344-.04-.17-.082-.339-.121-.509Z" transform="translate(-526.745 -1309.92)" fill="#e6e6e6"/>
          <path id="パス_7286" data-name="パス 7286" d="M522,1284.2c-.052.175-.109.351-.163.527.108.237.217.473.325.709Z" transform="translate(-521.322 -1271.873)" fill="#e6e6e6"/>
          <path id="パス_7287" data-name="パス 7287" d="M521.44,1269.993c-.035.1-.071.2-.108.3.037.185.074.37.108.552Z" transform="translate(-521.032 -1263.745)" fill="#e6e6e6"/>
        </g>
        <path id="パス_7288" data-name="パス 7288" d="M417.2,1219.779l-1.082.1-.931-.415-.813-.64-.973-.3-.849-.54-.894-.461-.911-.442-.739-.7-.731-.7-.733-.68-.953-.418-.728-.7-.467-.921-.716-.725-.16-1.044-.673-.842-.254-1-.25-1-.044-1.04-.205-1-.039-1.024-.381-.987-.05-1.026.18-1.031-.377-1.022.378-1.018-.319-1.041.054-1.029.392-.994.333-.989.13-1.011.073-1.022-.189-1.074.163-1.016.433-.958L404.8,1190l.358-.971.457-.942.384-.957.34-.967.249-.991.082-1.043.41-.946-.07-1.1.758-.821.175-1.007.237-.991.482-.908.17-1.012.5-.906.3-.971.035-1.055.182-1,.691-.85-.055-1.074.568-.892.272-.979.18-1,.494-.926-.107-1.067.157-1,.481-.942-.287-1.076.391-.964-.046-1.024.183-1,.456-.99-.12-1.025-.367-1.012.43-1.031-.223-1.006.043-1.033-.517-.948-.15-1,.045-1.081-.406-1-.328-.967-.789-.815-.365-.98-.31-1-.237-1.028-.687-.852-.337-.99-.183-1.049-.5-.924-.31-1-.26-1.019-.569-.9-.254-1.02-.186-1.048-.592-.889-.44-.947-.174-1.051-.344-.985-.558-.9-.211-1.035-.449-.944-.65-.867-.228-1.03-.417-.957-.505-.857-.177.8-.128,1,.327,1.087-.242.987-.467.949-.093,1.015-.006,1.029-.112,1.01-.2,1-.451.951.041,1.039-.34.971-.293.979.18,1.063-.5.941-.027,1.027-.067,1.02-.259.986-.522.939-.229.992.176,1.065-.534.938.233,1.075-.33.974-.157,1.005-.212,1-.277.984-.288.981.009,1.034-.182,1,.092,1.049-.3.978-.14,1.007-.121,1.011-.3.977-.244.984-.071,1.02-.593.91-.2.99.1,1.058-.532.917-.108,1.014-.127,1.01-.04,1.032-.57.9-.309.965,0,1.042-.049,1.031-.252.98-.639.885-.208.989-.322.965.116,1.066-.3.97-.27.978-.5.935-.134,1.009.334,1.09-.736.9.086,1.041-.279.985.015,1.025-.179,1,.268,1.045-.113,1-.568.97-.063,1.014.013,1.018.138,1.039.073,1.028-.276,1.052.24,1.021-.032,1.052.659.939-.287,1.11.718.895,0,1.066.585.9-.155,1.135.46.938.537.9.389.955.371.964.47.919.363.974.455.93.374.98.729.77.421.96.512.908,1.042.522.419.974.718.744.732.726.585.86.7.764.768.691.824.623.74.728.98.4.884.509.754.758,1,.283.977.3.909.574,1.038.118,1.043-.285,1.062.364.74-.785.868-.485.938-.358,1.032-.2.711-.766.992-.286.812-.59.861-.533.752-.912-1.143-.063Z" transform="translate(-330.743 -1054.34)" fill="#505050"/>
        <path id="パス_7289" data-name="パス 7289" d="M424.228,1100.251c-.035-.552-.229-.54-.263-1.092s.011-.554-.024-1.106.2-.566.161-1.118-.315-.533-.349-1.084.263-.569.228-1.119-.42-.527-.455-1.079-.028-.551-.062-1.1.4-.578.362-1.129-.508-.521-.542-1.073.041-.556.007-1.106.218-.567.183-1.118-.323-.532-.358-1.083.189-.565.154-1.116-.031-.551-.066-1.1-.359-.53-.394-1.08.258-.569.224-1.119.047-.556.013-1.106.132-.618-.075-1.129c-.376,0-.843.042-1.22.078s-.706.311-1.078.383-.695.23-1.058.338-.8-.05-1.152.094a10.9,10.9,0,0,1-2.088.929,11.184,11.184,0,0,0-.815.815,10.715,10.715,0,0,0-.729.868,10.013,10.013,0,0,0-.714.861,10.27,10.27,0,0,0-.556.968,13.816,13.816,0,0,1-.966,2c-.121.349-.563.611-.655.986-.088.358.077.78.018,1.163-.056.364-.354.715-.382,1.1-.027.367.355.758.355,1.145a2.321,2.321,0,0,0,.3,2.13,7.867,7.867,0,0,0,.349,1.032,9.214,9.214,0,0,0,.657.876,9.993,9.993,0,0,0,.519.963c.228.288.31.7.568.972s.537.512.817.757.436.654.734.876.881.027,1.194.227.38.818.705.994.726.238,1.062.391.645.424.99.551.876-.285,1.228-.185.667.342,1.025.414.7.337,1.063.376a9.255,9.255,0,0,0,1.061-.042,1.911,1.911,0,0,0,.047-1.1A10.32,10.32,0,0,1,424.228,1100.251Z" transform="translate(-343.302 -1027.987)" fill="#ffd2be"/>
        <path id="パス_7290" data-name="パス 7290" d="M582.105,1093.417c-.054-.384.131-.793.049-1.145-.087-.378-.424-.666-.541-1.008-.125-.366.056-.845-.1-1.172a9.636,9.636,0,0,0-.462-1.062,8.365,8.365,0,0,0-.767-.87,8.172,8.172,0,0,0-.87-.748,8.338,8.338,0,0,0-.92-.669,9.13,9.13,0,0,0-1.048-.434,10.112,10.112,0,0,0-1.087-.273,11.278,11.278,0,0,0-1.014-.5c-.361-.085-.736-.118-1.109-.172s-.719-.387-1.094-.412-.965.183-1.34.183c-.177.53.214.626.216,1.185s.084.558.086,1.117,0,.558,0,1.116-.081.559-.08,1.117-.292.56-.29,1.119.327.558.328,1.116,0,.559,0,1.118-.222.56-.221,1.119.291.559.292,1.118-.251.559-.25,1.119-.074.56-.073,1.119.475.558.477,1.118-.43.559-.429,1.118-.006.559,0,1.118.388.559.389,1.119-.3.561-.295,1.121.282.559.283,1.119-.154.56-.228,1.116c-.075.576-.185.613-.009,1.146a7.443,7.443,0,0,1,2.269-.172,10.373,10.373,0,0,0,1.122-.182c.344-.129.458-.787.787-.953a10.335,10.335,0,0,0,1.006-.42c.309-.2.521-.5.811-.728s.893-.092,1.159-.347.16-.859.4-1.138.63-.423.842-.724.392-.616.574-.936.538-.557.688-.894.414-.651.529-1,.068-.766.147-1.126a10.643,10.643,0,0,0,.23-1.1,11.022,11.022,0,0,0-.107-1.121c0-.387.184-.774.161-1.135C582.586,1094.107,582.155,1093.774,582.105,1093.417Z" transform="translate(-434.957 -1030.594)" fill="#ffd2be"/>
        <path id="パス_7291" data-name="パス 7291" d="M493.189,1034.077c.009-.545.126-.543.135-1.088s.174-.543.183-1.089a2.073,2.073,0,0,0-.2-1.077c-.357.149-.745.044-1.124.157s-.747.177-1.129.261-.752.219-1.132.282c-.4.067-.76.294-1.133.346-.411.058-.792.192-1.152.243s-.756-.224-1.12-.191-.73-.008-1.094.019-.7.557-1.06.578-.731.083-1.1.1-.749-.508-1.114-.5-.725.183-1.09.187-.729.046-1.095.042-.725-.169-1.091-.179-.74.269-1.1.252-.737.04-1.1.016-.717-.228-1.08-.26-.748.127-1.111.089-.725-.117-1.087-.164-.7-.313-1.056-.367-.731-.047-1.091-.109-.764.1-1.122.026-.676-.349-1.032-.429-.68-.293-1.034-.381-.759.016-1.111-.081-.667-.323-1.016-.429-.672-.287-1.018-.4-.734-.109-1.077-.235-.606-.451-.945-.587-.653-.314-.988-.459-.8.008-1.133-.148-.592-.451-.919-.617-.612-.4-.933-.573-.627-.365-.943-.55-.856,0-1.166-.193-.6-.433-.9-.638-.59-.441-.888-.655-.307-.809-.6-1.032-.625-.375-.909-.607-.842-.14-1.119-.381c-.282-.262-.338-.751-.592-1.011-.269-.275-.479-.583-.719-.856-.252-.29-.772-.352-.994-.641s-.326-.71-.529-1.014-.539-.567-.721-.886.053-.877-.107-1.21-.646-.531-.784-.875-.414-.658-.532-1.012.15-.829.05-1.19-.1-.736-.185-1.1-.324-.686-.4-1.056.1-.771.036-1.143-.585-.648-.648-1.021.169-.78.1-1.154-.175-.722-.241-1.1-.465-.666-.534-1.039.118-.776.042-1.149-.226-.712-.308-1.083a3.693,3.693,0,0,1-.364,1.109c-.267.438-.419.6-.525-.192-.036-.271-.372-.543-.357-1.089-.242.28-.575.291-.8.565s-.375.646-.6.923-.237.75-.459,1.03-.441.583-.657.867-.595.469-.806.756-.3.682-.51.973-.56.5-.759.8-.334.655-.526.957-.265.692-.449,1-.781.392-.958.7-.011.829-.179,1.147-.439.592-.6.915-.12.745-.271,1.074-.266.669-.409,1-.344.636-.479.973-.381.625-.509.966-.45.607-.571.951-.353.646-.468.994.07.782-.041,1.131-.432.622-.539.974-.183.749-.287,1.1c-.012.525.408.515.444,1.038s.124.519.16,1.043.046.524.082,1.05-.179.54-.143,1.065-.259.545-.223,1.071.056.525.092,1.051.411.5.438,1.03c.029.555-.337.571-.317,1.126s.388.542.408,1.1-.2.563-.18,1.119,0,.556.015,1.112.293.544.314,1.1-.088.559-.068,1.113.04.554.06,1.11-.168.562-.148,1.117,0,.556.019,1.11-.044.558-.024,1.112.356.544.376,1.1-.244.565-.224,1.12.231.548.251,1.1-.25.565-.23,1.121.008.557.028,1.113.31.545.33,1.1-.073.559-.053,1.115-.122.561-.1,1.118-.154.561-.134,1.116.13.552.15,1.107.077.554.1,1.111-.044.559-.023,1.115.191.55.212,1.107-.222.567-.2,1.124-.018.556,0,1.114c0,.369.42.722.435,1.088s-.224.751-.2,1.116.472.692.514,1.055,0,.734.055,1.1.036.735.1,1.094.2.706.277,1.063-.09.778,0,1.133.493.623.6.973-.091.8.028,1.147.127.744.258,1.086.3.682.442,1.018.629.526.785.857-.05.847.118,1.173.663.482.842.8.424.6.615.911.131.788.334,1.093.465.578.679.876.569.493.793.782.223.767.458,1.048.512.538.758.811.677.376.932.639.435.6.7.858.58.456.854.7.565.468.848.7.542.5.834.72.5.567.8.779.651.356.959.557.667.321.982.51.509.6.831.774.9-.132,1.226.032.614.4.949.547.6.444.943.583.758.057,1.1.182.634.392.984.5.687.252,1.042.349.68.3,1.038.383.724.129,1.085.2.714.183,1.078.238.728.108,1.094.148.745-.1,1.112-.078.731-.076,1.1-.064.727.513,1.1.51.732-.32,1.1-.337.757.232,1.121.2.68-.566,1.043-.612.8.393,1.161.333.633-.616.991-.69.748.008,1.1-.08.668-.322,1.019-.423.8.106,1.147-.01.677-.3,1.02-.426.62-.423.958-.565.638-.357.97-.512.651-.321.977-.49.882.085,1.2-.1.654-.357.967-.55.42-.71.725-.914.639-.364.935-.58.5-.553.785-.78.656-.352.935-.589.388-.66.659-.908.933-.084,1.194-.342.145-.886.4-1.154.448-.571.69-.848.7-.36.935-.645.506-.539.726-.832.5-.546.715-.847.121-.8.32-1.11.465-.568.653-.884.34-.646.515-.968.709-.46.873-.789.334-.665.486-1,.114-.757.254-1.1.039-.77.166-1.115.31-.663.424-1.013.547-.6.649-.954,0-.764.091-1.121.064-.737.14-1.1.021-.736.085-1.1.43-.673.48-1.038-.231-.764-.194-1.13.057-.722.081-1.09.435-.713.445-1.081-.118-.737-.12-1.106c.006-.544.06-.543.069-1.086s.121-.542.13-1.085-.053-.545-.044-1.088-.03-.544-.021-1.088.134-.541.143-1.085-.266-.547-.257-1.09.012-.542.021-1.085-.182-.547-.172-1.09.12-.542.129-1.085.108-.541.117-1.084.042-.543.051-1.086-.014-.544-.005-1.088.162-.541.172-1.084-.41-.551-.4-1.095.369-.538.378-1.082-.352-.55-.342-1.095.059-.543.068-1.087.357-.538.366-1.083.091-.543.1-1.087-.1-.545-.1-1.088-.145-.547-.136-1.09.339-.539.348-1.084S493.18,1034.621,493.189,1034.077Z" transform="translate(-355.679 -984.577)" fill="#ffd2be"/>
        <path id="パス_7292" data-name="パス 7292" d="M505.219,1008.1l.1-1.035.1-1.052-.358-1-.5-.948.051-1.069-.346-.973-.119-1.065-.756-.8-.223-1.047-.776-.741-.549-.866-.543-.877-.873-.6-.326-1.1-.918-.541-.921-.5-.693-.768-.838-.591-.829-.605-.881-.527-.961-.381-.778-.728-.864-.59-1.152.066-.745-.9-1.02-.226-1.071-.041-1-.246-.964-.359-.931-.521-1.024-.148-1-.284-1.018-.172-1.019-.169-1.054.134-1.025-.067-1-.439-1.037.04h-1.033l-1.032-.041-1.021.454-1.044-.4-1.029.093-1.006.326-1.032.019-1.03.065-.966.473-1.035.03-1.034.075-1.009.208-1.056.038-.988.313-.925.5-.954.39-.893.539-1.031.186-.915.472-1.013.269-.819.639-.938.714-.96.709-1,.813.549.923.23.991-.026,1.064.591.891.021,1.062.14,1.035.36.963.609.86.348.963.334.975.889.693.07,1.122.449.928.848.676.535.868.5.9.78.685.747.7.349,1.053.974.486.569.872.825.611.575.925.988.426.885.541.8.655.811.649.86.579.809.677.909.51,1.05.225.939.435.908.51,1.064.127.854.67,1.026.205.956.416,1.025.185,1.042.1.943.509,1.015.214,1.049.024,1.044.015.989.379,1.008.3,1.058-.164,1.008.393,1.055-.266,1.038-.12,1.025.311,1.036-.035,1.036.111,1.029-.269,1.039.117,1.026-.18,1.019-.231,1.063.312,1.03-.129.931-.431,1.032.3.954-.27.988-.105.984-.185.81-.626.224-1.025-.3-1.04.385-1.029-.47-1.043.045-1.036.465-1.029-.306-1.015-.068-1.012.246-1.007-.135-1.013.025-1.011Z" transform="translate(-367.355 -974.148)" fill="#505050"/>
        <path id="パス_7295" data-name="パス 7295" d="M530.2,1081.4c-.481-.3-.328-.535-.89-.606a1.2,1.2,0,0,0-1.1.209,1.406,1.406,0,0,0-.815.813,1.674,1.674,0,0,0-.336,1.119c-.026.618-.083.627.282,1.126s.443.328.969.633.408.7,1.017.68.685-.132,1.161-.519c.4-.327.326-.467.571-.922a1.726,1.726,0,0,0,.348-.989c.036-.544.1-.607-.276-1.026S530.671,1081.688,530.2,1081.4Z" transform="translate(-409.38 -1028.191)" fill="#505050"/>
        <path id="パス_7296" data-name="パス 7296" d="M475.805,1080.841c-.21-.56-.463-.329-.971-.646s-.429-.725-1.043-.686-.686.162-1.145.566c-.4.35-.312.47-.614.9-.333.477-.573.433-.681,1-.114.6-.2.893.182,1.369s.776-.024,1.348.183c.473.172.4.644.9.662s.451-.476.931-.665c.543-.214.661.068.935-.447s-.221-.5-.217-1.081S476.025,1081.429,475.805,1080.841Z" transform="translate(-377.454 -1027.481)" fill="#505050"/>
        <g id="グループ_226" data-name="グループ 226" transform="translate(105.386 69.686)">
          <path id="パス_7297" data-name="パス 7297" d="M509.676,1122.472l.062.048.057.024A.661.661,0,0,1,509.676,1122.472Z" transform="translate(-504.829 -1121.755)" fill="#f0a697"/>
          <path id="パス_7298" data-name="パス 7298" d="M507.78,1122.052l.489.066-.07-.03a.6.6,0,0,0,.149.041l-.079-.011.384.162-.062-.048a.663.663,0,0,0,.119.072l-.057-.024.371.287c-.1-.081-.182-.184-.281-.268-.037-.032-.078-.064-.118-.1a2.128,2.128,0,0,0-.769-.146C507.831,1122.056,507.806,1122.055,507.78,1122.052Z" transform="translate(-503.744 -1121.514)" fill="#f0a697"/>
          <path id="パス_7299" data-name="パス 7299" d="M508.76,1122.136l.07.03.079.011A.6.6,0,0,1,508.76,1122.136Z" transform="translate(-504.305 -1121.562)" fill="#f0a697"/>
          <path id="パス_7300" data-name="パス 7300" d="M503.777,1130.356l-.062-.048-.057-.024A.681.681,0,0,1,503.777,1130.356Z" transform="translate(-501.386 -1126.225)" fill="#f0a697"/>
          <path id="パス_7301" data-name="パス 7301" d="M503.97,1121.964l-.433-.334a2.216,2.216,0,0,0-.311-.146c.039.033.08.065.118.1.1.084.18.187.281.268l-.371-.287-.384-.162-.489-.066c.026,0,.051,0,.077,0a2.128,2.128,0,0,1,.769.146,4.492,4.492,0,0,0-.37-.279,2.081,2.081,0,0,0-.335-.151,2.229,2.229,0,0,0-.347-.138l-.057-.01a5.559,5.559,0,0,0-.606-.08c-.34-.014-.684-.028-1.025-.029a2.2,2.2,0,0,0-2.139,2.139q.039.284.077.569a2.133,2.133,0,0,0,.55.943l.432.334a2.126,2.126,0,0,0,1.08.292c.128,0,.255.006.383.011-.084-.062-.173-.134-.275-.22s-.184-.19-.288-.273l.37.286.384.162.489.066c-.178-.018-.361-.007-.54-.017-.047,0-.093,0-.139,0a2.746,2.746,0,0,0,.8.412.707.707,0,0,0,.1.031,5.5,5.5,0,0,0,.6.082c.026,0,.051,0,.077,0a2.2,2.2,0,0,0,2.139-2.139q-.038-.284-.077-.568A2.134,2.134,0,0,0,503.97,1121.964Z" transform="translate(-498.345 -1120.795)" fill="#f0a697"/>
          <path id="パス_7302" data-name="パス 7302" d="M504.168,1130.185l-.489-.066.071.03a.6.6,0,0,0-.15-.04l.079.011-.384-.162.062.048a.681.681,0,0,0-.119-.072l.057.024-.37-.286c.1.083.186.188.288.273s.192.158.275.22c.047,0,.093,0,.139,0C503.807,1130.178,503.99,1130.167,504.168,1130.185Z" transform="translate(-500.966 -1125.875)" fill="#f0a697"/>
          <path id="パス_7303" data-name="パス 7303" d="M504.653,1130.734l-.071-.03-.079-.011A.611.611,0,0,1,504.653,1130.734Z" transform="translate(-501.869 -1126.46)" fill="#f0a697"/>
        </g>
        <g id="グループ_227" data-name="グループ 227" transform="translate(96.437 77.658)">
          <path id="パス_7304" data-name="パス 7304" d="M516.344,1156.9a1.221,1.221,0,0,1,.283-.267c-.076.044-.176.092-.184.1s-.03.02-.046.03a.5.5,0,0,0-.02.069Z" transform="translate(-499.696 -1149.277)" fill="#f0a697"/>
          <path id="パス_7305" data-name="パス 7305" d="M498.485,1160.659l-.059-.036C498.5,1160.7,498.583,1160.8,498.485,1160.659Z" transform="translate(-489.442 -1151.56)" fill="#f0a697"/>
          <path id="パス_7306" data-name="パス 7306" d="M511.674,1161.047c.026-.024.06-.058.088-.088a.7.7,0,0,1-.109.074l-.005.009Z" transform="translate(-497.009 -1151.752)" fill="#f0a697"/>
          <path id="パス_7307" data-name="パス 7307" d="M518.812,1150.538h0Z" transform="translate(-501.109 -1145.788)" fill="#f0a697"/>
          <path id="パス_7308" data-name="パス 7308" d="M509.228,1149.846c.086-.02.323-.061-.014-.013l-.068.008.065.009Z" transform="translate(-495.577 -1145.372)" fill="#f0a697"/>
          <path id="パス_7309" data-name="パス 7309" d="M505.164,1149.5a1.011,1.011,0,0,1-.462.145l-.075.009.1.018a1.447,1.447,0,0,1-.15,0c.044.009.089.019.131.026l.075.011a2.408,2.408,0,0,0,.25-.13A.606.606,0,0,1,505.164,1149.5Z" transform="translate(-492.962 -1145.195)" fill="#f0a697"/>
          <path id="パス_7310" data-name="パス 7310" d="M511.659,1161.158l-.026-.005C511.609,1161.195,511.625,1161.189,511.659,1161.158Z" transform="translate(-496.994 -1151.863)" fill="#f0a697"/>
          <path id="パス_7311" data-name="パス 7311" d="M510.8,1161.151l-.008,0c-.386.213-1.157.36-.054.217.941-.121.459-.139.088-.21C510.8,1161.187,510.78,1161.193,510.8,1161.151Z" transform="translate(-496.164 -1151.861)" fill="#f0a697"/>
          <path id="パス_7312" data-name="パス 7312" d="M511.638,1161.141l.005-.009-.013.007Z" transform="translate(-496.999 -1151.851)" fill="#f0a697"/>
          <path id="パス_7313" data-name="パス 7313" d="M508.633,1149.781l-.216-.028c-.067-.017-.12-.032-.167-.047.067.034.17.076.271.115.054-.01.11-.018.163-.03C508.52,1149.8,508.505,1149.8,508.633,1149.781Z" transform="translate(-495.064 -1145.313)" fill="#f0a697"/>
          <path id="パス_7314" data-name="パス 7314" d="M504.605,1149.861a.242.242,0,0,0-.066.011l.016,0a1.471,1.471,0,0,0,.15,0Z" transform="translate(-492.94 -1145.401)" fill="#f0a697"/>
          <path id="パス_7315" data-name="パス 7315" d="M513.3,1149.909a1.588,1.588,0,0,1-.611-.173,1.557,1.557,0,0,1,.174.09c.121.059.232.109.34.151.068-.019.135-.044.2-.068C513.685,1149.806,513.449,1149.9,513.3,1149.909Z" transform="translate(-497.603 -1145.33)" fill="#f0a697"/>
          <path id="パス_7316" data-name="パス 7316" d="M498.015,1161.036q1.015.352.59.137c-.1-.066-.207-.123-.312-.182-.189.028-.377.063-.565.084Z" transform="translate(-489.043 -1151.771)" fill="#f0a697"/>
          <path id="パス_7317" data-name="パス 7317" d="M501.843,1162.321c.026-.034,1.227.08,1.39.3a2.949,2.949,0,0,0-.544-.462c-.033-.025-.07-.045-.1-.069a1.977,1.977,0,0,0-.36.087C502.145,1162.205,501.888,1162.261,501.843,1162.321Z" transform="translate(-491.398 -1152.4)" fill="#f0a697"/>
          <path id="パス_7318" data-name="パス 7318" d="M509.29,1149.9l-.012,0-.014,0Z" transform="translate(-495.645 -1145.424)" fill="#f0a697"/>
          <path id="パス_7319" data-name="パス 7319" d="M509.083,1149.892l.014,0-.065-.009C508.9,1149.9,508.918,1149.9,509.083,1149.892Z" transform="translate(-495.463 -1145.413)" fill="#f0a697"/>
          <path id="パス_7320" data-name="パス 7320" d="M511.986,1160.847l.02-.024A.193.193,0,0,1,511.986,1160.847Z" transform="translate(-497.202 -1151.674)" fill="#f0a697"/>
          <path id="パス_7321" data-name="パス 7321" d="M506.524,1140.17l.128.017a.2.2,0,0,1,.039-.015C506.635,1140.171,506.58,1140.174,506.524,1140.17Z" transform="translate(-494.076 -1139.855)" fill="#f0a697"/>
          <path id="パス_7322" data-name="パス 7322" d="M519.23,1141.043a4.479,4.479,0,0,0,.752-.171c-.281.044-.37.012-.317-.015-.043-.006-.086-.012-.129-.021a4.482,4.482,0,0,0-.575.423Z" transform="translate(-501.194 -1140.236)" fill="#f0a697"/>
          <path id="パス_7323" data-name="パス 7323" d="M516.373,1140.861l.169-.021h-.007Z" transform="translate(-499.713 -1140.238)" fill="#f0a697"/>
          <path id="パス_7324" data-name="パス 7324" d="M516.957,1140.85l-.086-.041-.1.014A1.254,1.254,0,0,1,516.957,1140.85Z" transform="translate(-499.939 -1140.221)" fill="#f0a697"/>
          <path id="パス_7325" data-name="パス 7325" d="M516.751,1140.82h.007l.1-.014,0,0Z" transform="translate(-499.929 -1140.219)" fill="#f0a697"/>
          <path id="パス_7326" data-name="パス 7326" d="M517.093,1140.755c.042-.01-.057,0-.156.005l.027.013Z" transform="translate(-500.036 -1140.187)" fill="#f0a697"/>
          <path id="パス_7327" data-name="パス 7327" d="M517,1140.782c.069-.009.109-.016.125-.02l-.129.018Z" transform="translate(-500.072 -1140.194)" fill="#f0a697"/>
          <path id="パス_7328" data-name="パス 7328" d="M508.618,1139.939Z" transform="translate(-495.275 -1139.721)" fill="#f0a697"/>
          <path id="パス_7329" data-name="パス 7329" d="M525.271,1140.455c-.016,0,.157.036.325.071-.111-.047-.223-.107-.336-.164a1.9,1.9,0,0,1-.6.249C524.879,1140.591,525.042,1140.454,525.271,1140.455Z" transform="translate(-504.457 -1139.965)" fill="#f0a697"/>
          <path id="パス_7330" data-name="パス 7330" d="M516.5,1140.786c.037,0,.071.012.107.015l.107-.014-.027-.013-.1.011Z" transform="translate(-499.787 -1140.201)" fill="#f0a697"/>
          <path id="パス_7331" data-name="パス 7331" d="M508.612,1139.945h0Z" transform="translate(-495.271 -1139.726)" fill="#f0a697"/>
          <path id="パス_7332" data-name="パス 7332" d="M521.382,1140.909c-.008,0-.018,0-.026,0l-.008,0Z" transform="translate(-502.561 -1140.278)" fill="#f0a697"/>
          <path id="パス_7333" data-name="パス 7333" d="M520.906,1140.9l.008,0a1.184,1.184,0,0,1-.325-.011C520.536,1140.911,520.625,1140.943,520.906,1140.9Z" transform="translate(-502.117 -1140.264)" fill="#f0a697"/>
          <path id="パス_7334" data-name="パス 7334" d="M520.933,1140.862c.039-.025-.024-.037-.2-.035a.332.332,0,0,0-.124.024A1.179,1.179,0,0,0,520.933,1140.862Z" transform="translate(-502.136 -1140.231)" fill="#f0a697"/>
          <path id="パス_7335" data-name="パス 7335" d="M506.931,1140.172h0Z" transform="translate(-494.3 -1139.856)" fill="#f0a697"/>
          <path id="パス_7336" data-name="パス 7336" d="M497.4,1148.649l.048.037C497.33,1148.589,497.311,1148.574,497.4,1148.649Z" transform="translate(-488.824 -1144.68)" fill="#f0a697"/>
          <path id="パス_7337" data-name="パス 7337" d="M490.895,1140.588c-.084-.065-.164-.121-.243-.174-.051,0-.1-.006-.153-.008C489.818,1140.378,490.663,1140.494,490.895,1140.588Z" transform="translate(-484.757 -1139.988)" fill="#f0a697"/>
          <path id="パス_7338" data-name="パス 7338" d="M511.357,1140.5c.185-.006.867.286.436.079-.109-.053-.219-.1-.328-.142-.037.009-.075.016-.114.027C511.168,1140.514,510.868,1140.513,511.357,1140.5Z" transform="translate(-496.69 -1140.007)" fill="#f0a697"/>
          <path id="パス_7339" data-name="パス 7339" d="M495.846,1140.545c-.1.007-.218.028-.267.032h-.01a4.194,4.194,0,0,0-.573.4A3.013,3.013,0,0,1,495.846,1140.545Z" transform="translate(-487.479 -1140.07)" fill="#f0a697"/>
          <path id="パス_7340" data-name="パス 7340" d="M499.5,1149.131h0a1.529,1.529,0,0,1-1.447.01c.075.059.15.119.227.176a2.724,2.724,0,0,0,.476.24,2.2,2.2,0,0,0,.46-.216A2.961,2.961,0,0,0,499.5,1149.131Z" transform="translate(-489.23 -1144.983)" fill="#f0a697"/>
          <path id="パス_7341" data-name="パス 7341" d="M504.555,1149.891l-.016,0S504.547,1149.89,504.555,1149.891Z" transform="translate(-492.94 -1145.417)" fill="#f0a697"/>
          <path id="パス_7342" data-name="パス 7342" d="M494.532,1140.706c0,.034.507.074.226.032l-.088-.014C494.591,1140.726,494.534,1140.721,494.532,1140.706Z" transform="translate(-487.214 -1140.162)" fill="#f0a697"/>
          <path id="パス_7343" data-name="パス 7343" d="M507.116,1140.234a.165.165,0,0,0-.063-.026l-.061.01Z" transform="translate(-494.344 -1139.877)" fill="#f0a697"/>
          <path id="パス_7344" data-name="パス 7344" d="M507.11,1140.176c-.053,0-.105,0-.158,0,.027,0,.054.009.078.015Z" transform="translate(-494.321 -1139.857)" fill="#f0a697"/>
          <path id="パス_7345" data-name="パス 7345" d="M506.634,1140.215l-.049.012c-.129.029-.078.025.134-.009l-.072-.009Z" transform="translate(-494.071 -1139.877)" fill="#f0a697"/>
          <path id="パス_7346" data-name="パス 7346" d="M500.851,1140.474a1.528,1.528,0,0,1,1.3.2c-.121-.1-.241-.191-.364-.283a.594.594,0,0,0-.922.047C500.759,1140.5,500.529,1140.546,500.851,1140.474Z" transform="translate(-490.735 -1139.872)" fill="#f0a697"/>
          <path id="パス_7347" data-name="パス 7347" d="M506.823,1140.189l.072.009.061-.01c-.024-.006-.051-.011-.078-.015h-.016A.208.208,0,0,0,506.823,1140.189Z" transform="translate(-494.248 -1139.857)" fill="#f0a697"/>
          <path id="パス_7348" data-name="パス 7348" d="M504.273,1149.811c.019.005.041.008.061.012a.242.242,0,0,1,.066-.011C504.265,1149.785,504.062,1149.746,504.273,1149.811Z" transform="translate(-492.736 -1145.352)" fill="#f0a697"/>
          <path id="パス_7349" data-name="パス 7349" d="M518.8,1150.542l.068,0H518.8C518.8,1150.539,518.8,1150.54,518.8,1150.542Z" transform="translate(-501.1 -1145.788)" fill="#f0a697"/>
          <path id="パス_7350" data-name="パス 7350" d="M480.847,1152.23l.115.089.04.029h0l-.059-.045Z" transform="translate(-479.382 -1146.757)" fill="#f0a697"/>
          <path id="パス_7351" data-name="パス 7351" d="M480.818,1152.208l-.021-.016c.1.1.155.145.176.135l-.04-.029Z" transform="translate(-479.353 -1146.735)" fill="#f0a697"/>
          <path id="パス_7352" data-name="パス 7352" d="M481.209,1152.505h0C481.28,1152.558,481.28,1152.558,481.209,1152.505Z" transform="translate(-479.589 -1146.914)" fill="#f0a697"/>
          <path id="パス_7353" data-name="パス 7353" d="M483.12,1158.573c.022.03.046.059.068.09l.012.012Z" transform="translate(-480.683 -1150.387)" fill="#f0a697"/>
          <path id="パス_7354" data-name="パス 7354" d="M480.306,1150.944l.1.073.059.045c.048-.028-.131-.383-.547-1.079a1.762,1.762,0,0,0-.012.32c0,.112.007.225.018.338l.067.057Z" transform="translate(-478.841 -1145.471)" fill="#f0a697"/>
          <path id="パス_7355" data-name="パス 7355" d="M485.191,1160.761c.242.165-.186-.29,0,0Z" transform="translate(-481.841 -1151.582)" fill="#f0a697"/>
          <path id="パス_7356" data-name="パス 7356" d="M478.082,1142.909a2.214,2.214,0,0,0,2.355,1.559,1.209,1.209,0,0,1-.181-.058c-.041-.018-.177-.033-.2-.062.045.058,1.186-.122.657.054a1.848,1.848,0,0,1-.275.066,2.954,2.954,0,0,0,.823.066,3.575,3.575,0,0,0,.892-.15,3.1,3.1,0,0,1-.618-.368l-.02-.009a1.491,1.491,0,0,1-.292.179q-.335.166.191-.175l.023-.038,0,0c-.422-.222-.344-.258-.194-.16.076.05.144.1.209.143l.517-.887a1.719,1.719,0,0,0,.042-.7l-.218-.351c-.071-.044-.355-.3-.1-.105l.068.05-.007-.011a.164.164,0,0,1,.013.016l.177.13c-.039-.094-.079-.187-.119-.28a1.632,1.632,0,0,1,.129.287,2.637,2.637,0,0,1,.269.223c.021.021.039.043.059.065a1.982,1.982,0,0,0-.283-1.131,2.144,2.144,0,0,0-1.223-.936,1.673,1.673,0,0,0-.287.113l.04-.028a1.244,1.244,0,0,1,.142-.116,2.474,2.474,0,0,0-1.475.155A2.124,2.124,0,0,0,478.082,1142.909Z" transform="translate(-477.748 -1139.896)" fill="#f0a697"/>
          <path id="パス_7357" data-name="パス 7357" d="M486.058,1148.925l-.01.018c.023.012.052.024.078.035l0,0Z" transform="translate(-482.358 -1144.865)" fill="#f0a697"/>
          <path id="パス_7358" data-name="パス 7358" d="M486.278,1149a3.1,3.1,0,0,0,.618.368,1.608,1.608,0,0,0,.734-.421C487.348,1149.268,486.667,1149.163,486.278,1149Z" transform="translate(-482.49 -1144.878)" fill="#f0a697"/>
          <path id="パス_7359" data-name="パス 7359" d="M486.231,1149.046l.02.009-.016-.012Z" transform="translate(-482.463 -1144.933)" fill="#f0a697"/>
          <path id="パス_7360" data-name="パス 7360" d="M486.181,1162.129a.843.843,0,0,0,.089.118l0-.008Z" transform="translate(-482.435 -1152.422)" fill="#f0a697"/>
          <path id="パス_7361" data-name="パス 7361" d="M483.854,1140.478l-.04.028a1.663,1.663,0,0,1,.287-.113c-.035-.01-.069-.023-.1-.032A1.257,1.257,0,0,0,483.854,1140.478Z" transform="translate(-481.08 -1139.965)" fill="#f0a697"/>
          <path id="パス_7362" data-name="パス 7362" d="M484.344,1140.224a1.653,1.653,0,0,1,.352-.065c.414-.01.272.013.072-.036a3.105,3.105,0,0,0-.335-.059,1.417,1.417,0,0,0-.194.127C484.275,1140.2,484.309,1140.214,484.344,1140.224Z" transform="translate(-481.324 -1139.795)" fill="#f0a697"/>
          <path id="パス_7363" data-name="パス 7363" d="M482.266,1140.155a1.43,1.43,0,0,1,.194-.128,2.851,2.851,0,0,0-1.282.113,2.331,2.331,0,0,0-.387.17A2.474,2.474,0,0,1,482.266,1140.155Z" transform="translate(-479.35 -1139.758)" fill="#f0a697"/>
          <path id="パス_7364" data-name="パス 7364" d="M486.571,1144.6c0,.013.006.026.009.038l.021.048q.084.194.163.391l-.133-.213a1.72,1.72,0,0,1-.042.7l-.517.888.072.05a2.135,2.135,0,0,0,.755-1.613c-.02-.021-.038-.044-.059-.065A2.643,2.643,0,0,0,486.571,1144.6Z" transform="translate(-482.372 -1142.39)" fill="#f0a697"/>
          <path id="パス_7365" data-name="パス 7365" d="M486.24,1146.884l.016.011c.389.164,1.07.269,1.351-.053a1.61,1.61,0,0,1-.734.421c.065.027.133.053.209.077a3.044,3.044,0,0,0,.728.121,2.967,2.967,0,0,0-.815-2.191A2.135,2.135,0,0,1,486.24,1146.884Z" transform="translate(-482.468 -1142.774)" fill="#f0a697"/>
          <path id="パス_7366" data-name="パス 7366" d="M532.009,1149.635l-.008.028C532.041,1149.6,532.046,1149.586,532.009,1149.635Z" transform="translate(-508.656 -1145.255)" fill="#f0a697"/>
          <path id="パス_7367" data-name="パス 7367" d="M532.013,1149.557l-.031.072.016-.021C532,1149.59,532.008,1149.573,532.013,1149.557Z" transform="translate(-508.646 -1145.227)" fill="#f0a697"/>
          <path id="パス_7368" data-name="パス 7368" d="M531.9,1149.775l.026-.024.011-.025Z" transform="translate(-508.596 -1145.323)" fill="#f0a697"/>
          <path id="パス_7369" data-name="パス 7369" d="M531.984,1149.675l-.016.021-.011.025.018-.017v0Z" transform="translate(-508.631 -1145.295)" fill="#f0a697"/>
          <path id="パス_7370" data-name="パス 7370" d="M498.517,1139.718a1.215,1.215,0,0,0-.292.113c.113.057.225.117.336.164.2.043.388.086.245.071a.852.852,0,0,1-.245-.071c-.167-.036-.34-.071-.325-.071-.229,0-.392.136-.608.156a1.907,1.907,0,0,0,.6-.249,1.481,1.481,0,0,0-.288-.117,2.9,2.9,0,0,0-2.055.245c-.041.022-.077.051-.117.075.044.008.086.014.129.021a.332.332,0,0,1,.124-.024c.177,0,.24.011.2.036.008,0,.018,0,.026,0l-.033,0a4.491,4.491,0,0,1-.752.171l-.269.217a4.479,4.479,0,0,1,.575-.423,3.625,3.625,0,0,0-.6-.092,4.475,4.475,0,0,0-.684.06c-.017,0-.056.011-.125.02l.086.041a1.231,1.231,0,0,1,.309.13,2.33,2.33,0,0,1-.309-.13,1.254,1.254,0,0,0-.189-.027l-.169.021c.054-.006.108-.015.162-.022-.035,0-.07-.015-.106-.015h.085l.1-.012a2.251,2.251,0,0,0-.424-.17,3.493,3.493,0,0,0-1.522-.017c-.063.011-.121.027-.181.042.109.042.219.089.328.142.431.207-.251-.085-.436-.079-.489.015-.189.017-.006-.036.039-.011.077-.017.114-.027a3.212,3.212,0,0,0-1.13-.227,3.024,3.024,0,0,0-.3.017,6.155,6.155,0,0,0-.722.1h.012c.053,0,.105,0,.158,0l-.08.013a.165.165,0,0,1,.063.026l-.124-.016c-.212.033-.263.038-.134.009l.049-.012.012-.006-.128-.017c.056,0,.111,0,.167,0h0c-.038,0-.074-.009-.1-.013a5.154,5.154,0,0,0-.927-.108,2.965,2.965,0,0,0-.881.133,2.991,2.991,0,0,1,.343.189c.123.092.243.187.364.283l.01.006.136.108c-.048-.039-.1-.076-.146-.114a1.528,1.528,0,0,0-1.3-.2c-.322.072-.092.022.019-.038a3.031,3.031,0,0,1,.58-.236,2.143,2.143,0,0,0-.348-.131,2.856,2.856,0,0,0-2.276.311h.01c.05,0,.168-.025.267-.032.065-.012.121-.014.148.014-.018-.019-.08-.019-.148-.014a3.013,3.013,0,0,0-.85.433,4.194,4.194,0,0,1,.573-.4c-.074.007-.431.05-.633.054l.088.014c.281.043-.222,0-.226-.032,0,.015.059.02.139.018-.229-.036-.458-.074-.689-.1-.271-.026-.546-.023-.818-.037l-.056,0c.08.053.159.109.243.174l.028.012c.518.271.22.18-.022-.008l-.006,0c-.232-.094-1.076-.21-.4-.182l.153.008a2.347,2.347,0,0,0-.657-.3,3.073,3.073,0,0,0-2.127.148,3.166,3.166,0,0,1,.335.059c.2.049.342.026-.072.036a1.646,1.646,0,0,0-.352.065,2.144,2.144,0,0,1,1.223.936,1.982,1.982,0,0,1,.283,1.131,2.967,2.967,0,0,1,.815,2.191c.256.016.515.017.761.028a2.728,2.728,0,0,0,.473.027c-.137,0-.392-.081-.169-.042.069.012.139.022.208.033h.006l.012,0-.01,0a6.182,6.182,0,0,0,1.532.045,5.656,5.656,0,0,0,1.373-.206,2.7,2.7,0,0,1-.476-.24c-.077-.057-.151-.117-.227-.176l-.011-.005-.186-.147L486,1143.4c-.093-.074-.074-.06.048.037.065.052.131.1.2.152a1.529,1.529,0,0,0,1.447-.01h0c.064-.052.127-.1.191-.153.258-.2-.186.15-.191.153a2.92,2.92,0,0,1-.284.21,2.2,2.2,0,0,1-.46.216,2.956,2.956,0,0,0,1.475.155,2.822,2.822,0,0,0,.818-.216l-.075-.012c-.042-.007-.086-.017-.131-.026-.008,0-.017,0-.016,0-.021,0-.042-.007-.061-.012-.212-.065-.009-.026.127,0l.075-.009a1.012,1.012,0,0,0,.462-.146.606.606,0,0,0-.132.076,2.41,2.41,0,0,1-.25.13,4.58,4.58,0,0,0,.882.085,4.817,4.817,0,0,0,.754-.088c-.1-.04-.2-.082-.271-.115-.381-.113-.169-.122-.067-.039a.4.4,0,0,0,.067.039c.047.014.1.03.167.047l.216.028.068-.008c.337-.048.1-.007.014.013l-.017,0,.012,0h-.025c-.053.012-.109.019-.163.03.128.05.254.1.3.116a3.49,3.49,0,0,0,.905.143,3.191,3.191,0,0,0,.929-.119h0c-.107-.042-.219-.092-.34-.151a1.123,1.123,0,1,1,.437.083c.152,0,.388-.1.1,0-.066.024-.133.049-.2.068a2.962,2.962,0,0,0,.965.2,3.265,3.265,0,0,0,.568-.013c.114-.012.233-.037.352-.059-.029-.009.1-.025.221-.031h.094l-.031,0c.15.006.461.038.145.041h-.009c.214.034.432.068.651.08.132-.341.3-.666.447-1,.044-.1.091-.2.135-.3,0-.029.057-.194.077-.255a5.265,5.265,0,0,1,.4-1.014,5.122,5.122,0,0,1,.565-.756,2.564,2.564,0,0,1,.2-.217c.17-.154-.162.3-.182.255l-.275,1.017.06.459.55.944c.056.043.11.078.165.115l.016-.012.079-.061a1.16,1.16,0,0,1-.084.081,1.591,1.591,0,0,0,1.749.159l-.092.052a4.864,4.864,0,0,1-.609.267,2.875,2.875,0,0,1-1.018.155,2.765,2.765,0,0,1-.807-.136,3.118,3.118,0,0,1-1,.239c.009,0,.02-.006.028,0s-.085.041-.153.078c-.18.2-.412.695-.444.677a1.349,1.349,0,0,1,.1-.478,3.1,3.1,0,0,0-.754.7,9.132,9.132,0,0,0-.872,1.358,2.422,2.422,0,0,0-.137.29c.016-.009.029-.02.046-.03s.108-.053.184-.1c.028-.02.053-.042.083-.06a.265.265,0,0,1-.083.06,1.221,1.221,0,0,0-.283.267l.033-.071a.507.507,0,0,1,.02-.069,7.628,7.628,0,0,0-1.219.969l-.065.057q.459-.337-.273.218c-.079.069-.149.13-.222.208a2.707,2.707,0,0,0-.206.241c-.036.05-.057.08-.071.1a.7.7,0,0,0,.109-.074l.031-.034a.21.21,0,0,0,.02-.024l-.02.024a.227.227,0,0,1-.031.034c-.028.03-.062.065-.088.088.372.071.853.089-.088.21-1.1.142-.332,0,.054-.217l-.035-.007a3.026,3.026,0,0,0-1.466.024c-.245.058-.485.131-.733.176a5.37,5.37,0,0,1-.839.169c.58,0-.156.007-.216.016s-.1.016-.155.024c.034.024.071.044.1.069a2.949,2.949,0,0,1,.544.462.088.088,0,0,1,.02.051.112.112,0,0,0-.02-.051c-.163-.22-1.364-.334-1.39-.3.045-.06.3-.116.381-.145a1.977,1.977,0,0,1,.36-.087,2.566,2.566,0,0,0-1.508-.51,3.1,3.1,0,0,0-.428.041c.1.059.214.115.312.182q.425.215-.59-.137l-.287.04c.189-.021.377-.056.565-.084l-.068-.038-.14-.083c.1.145.019.045-.059-.036a.821.821,0,0,1-.095-.062c.006-.025.05.015.095.062l.059.036-.047-.07a2.991,2.991,0,0,0-.833-.785,3.057,3.057,0,0,0-.491-.255c.082.181.165.373.212.491.037.059.059.1.039.11a.579.579,0,0,0-.039-.11c-.094-.149-.3-.393-.261-.358a2.311,2.311,0,0,0-.33-.269c-.046-.015-.092-.03-.138-.043-.27-.077-.171-.162.138.043.127.04.254.084.379.136-.085-.188-.165-.359-.193-.4-.122-.182-.271-.346-.406-.519.031.045.028.044-.059-.074.019.026.04.049.059.074-.052-.077-.2-.288-.208-.295a4.03,4.03,0,0,0-.77-.855c-.041-.03-.066-.048-.086-.062.04.056.083.112.122.168-.049-.07-.234-.243-.122-.168a6.23,6.23,0,0,0-.4-.506c-.035-.04-.073-.078-.109-.117,0,.023.013.048.017.069.05.147.032.114-.054-.1q-.277-.317-.116-.137c.053.053.1.109.154.165a1.6,1.6,0,0,0-.114-.347.445.445,0,0,0-.049-.08c0,.008,0,.016,0,.024-.025.389-.115-.166,0-.024,0-.041,0-.08,0-.121a3.044,3.044,0,0,1-.728-.121c-.076-.024-.144-.051-.209-.077a3.575,3.575,0,0,1-.892.15,2.954,2.954,0,0,1-.823-.066,2.214,2.214,0,0,1-2.355-1.559,2.124,2.124,0,0,1,1.107-2.461c-.042.017-.083.027-.124.046a2.362,2.362,0,0,0-1.249,2.7,4.971,4.971,0,0,0,.309.78c-.367-.847.278.621.16.41a2.5,2.5,0,0,0,.438.591c.034.032.07.06.105.089-.011-.113-.018-.226-.018-.338a1.761,1.761,0,0,1,.012-.32c.415.7.595,1.05.547,1.079.071.053.07.053,0,0-.021.01-.076-.031-.176-.135l.021.016-.318-.245c-.023-.019-.044-.039-.067-.057a6.418,6.418,0,0,0,.618,2.034,3.986,3.986,0,0,0,.677.947c.009.011.074.068.13.125-.022-.03-.047-.059-.068-.09l.08.1a.309.309,0,0,1,.069.088l-.069-.088-.012-.012c.114.156.229.311.351.46a3.408,3.408,0,0,0,.445.408l.049.035c-.186-.29.242.165,0,0,.015.024.033.051.057.085l.121.163.218.281c-.031-.053-.041-.1.006-.114a1.258,1.258,0,0,0,.079.225l.029.037c.065.073.127.139.128.166l-.128-.166-.025-.029c.059.149.128.311.118.289a3.231,3.231,0,0,0,.644,1.031,3.11,3.11,0,0,0,1.224.719c-.012-.018-.029-.032-.041-.051-.171-.264,0-.046.164.1.08.027.206.069.207.068-.025.068-.115.012-.207-.068l-.06-.021-.063-.024a4.224,4.224,0,0,0,1.429,1.146,4.119,4.119,0,0,0,1.022.449,2.531,2.531,0,0,0,.831.069c-.109-.088-.216-.18-.316-.278-.571-.554.377.194.754.209q.494-.064.139-.008l-.569.076h-.008a3.633,3.633,0,0,0,.437.307,2.63,2.63,0,0,0,1.894.242,2.976,2.976,0,0,0,.3-.086c.1-.042.2-.083.307-.121l-.261.015a10.281,10.281,0,0,0,2-.333l.062-.017c-.145-.029-.249-.063-.252-.1a2.131,2.131,0,0,0,.489.034.283.283,0,0,1,.1-.018c.009.011-.038.016-.1.018-.076.02-.173.049-.237.068.381.077,1.053.119.976.124a4.651,4.651,0,0,0,2.142-.82,4.017,4.017,0,0,0,.88-.761,2.329,2.329,0,0,1,.21-.231q-.487.361.254-.2l.134-.111c.11-.095.216-.194.322-.292l.023-.021s-.013,0-.015,0,.022-.011.044-.029c.189-.172.074-.06,0,0l-.03.027a4.478,4.478,0,0,0,.725-.488,6.261,6.261,0,0,0,1.278-1.784c.064-.1.122-.2.181-.3l.015-.026a.987.987,0,0,1-.108.051c-.345.134.1-.168.185-.225q.168-.221-.006.049l-.071.125c.045-.023.09-.049.13-.072a3.063,3.063,0,0,0,1.434-2.114c0-.015.048-.161.069-.242-.057.127-.114.248-.036.048.053-.136.053-.114.036-.048.037-.081.074-.165.076-.17q.2-.445.388-.895c.084-.2.16-.394.229-.6,0-.006.016-.063.033-.127h0l-.033.052.015-.036-.026.024-.006.009c-.165.148-.088.079.006-.009l.037-.05.031-.072a.321.321,0,0,1,.047-.109l-.047.109c-.005.016-.01.033-.015.05.037-.049.033-.036-.008.028h0c.042-.039.08-.076.095-.093a2.393,2.393,0,0,0-2.344-4.032Z" transform="translate(-477.422 -1139.434)" fill="#f0a697"/>
          <path id="パス_7371" data-name="パス 7371" d="M531.921,1149.8l.033-.053-.018.017Z" transform="translate(-508.611 -1145.335)" fill="#f0a697"/>
          <path id="パス_7372" data-name="パス 7372" d="M532,1149.742h0Z" transform="translate(-508.655 -1145.332)" fill="#f0a697"/>
          <path id="パス_7373" data-name="パス 7373" d="M491.006,1166.985c-.164-.142-.335-.36-.164-.1.012.018.029.033.041.051l.063.024Z" transform="translate(-485.061 -1155.075)" fill="#f0a697"/>
          <path id="パス_7374" data-name="パス 7374" d="M498.619,1170.345q.354-.055-.139.008c-.376-.015-1.325-.763-.754-.209.1.1.207.189.316.278h.008Z" transform="translate(-488.939 -1156.892)" fill="#f0a697"/>
          <path id="パス_7375" data-name="パス 7375" d="M509.2,1170.846c0,.039.107.073.252.1.064-.019.161-.048.237-.068A2.131,2.131,0,0,1,509.2,1170.846Z" transform="translate(-495.608 -1157.41)" fill="#f0a697"/>
          <path id="パス_7376" data-name="パス 7376" d="M486.447,1162.474l.128.166C486.574,1162.613,486.512,1162.547,486.447,1162.474Z" transform="translate(-482.587 -1152.619)" fill="#f0a697"/>
          <path id="パス_7377" data-name="パス 7377" d="M526.244,1159.066c-.088.057-.529.359-.185.225a1.007,1.007,0,0,0,.108-.051l.071-.125Q526.412,1158.844,526.244,1159.066Z" transform="translate(-505.182 -1150.612)" fill="#f0a697"/>
          <path id="パス_7378" data-name="パス 7378" d="M530.169,1153.909c-.079.2-.022.079.035-.048C530.222,1153.8,530.223,1153.772,530.169,1153.909Z" transform="translate(-507.586 -1147.66)" fill="#f0a697"/>
          <path id="パス_7379" data-name="パス 7379" d="M521.308,1165.638s.011,0,.015,0l.029-.027C521.33,1165.627,521.311,1165.641,521.308,1165.638Z" transform="translate(-502.537 -1154.413)" fill="#f0a697"/>
          <path id="パス_7380" data-name="パス 7380" d="M524.285,1149.457c-.087.047-.175.087-.265.125a2.773,2.773,0,0,0,.807.136,2.872,2.872,0,0,0,1.018-.155,4.861,4.861,0,0,0,.609-.267l.092-.052a1.591,1.591,0,0,1-1.749-.159.905.905,0,0,1-.192.138A2.335,2.335,0,0,1,524.285,1149.457Z" transform="translate(-504.089 -1144.958)" fill="#f0a697"/>
          <path id="パス_7381" data-name="パス 7381" d="M524.641,1143.058l.017-.062C524.641,1143.034,524.638,1143.052,524.641,1143.058Z" transform="translate(-504.444 -1141.472)" fill="#f0a697"/>
          <path id="パス_7382" data-name="パス 7382" d="M522.23,1147.405c-.021.055-.045.109-.069.163C522.158,1147.586,522.174,1147.552,522.23,1147.405Z" transform="translate(-503.025 -1143.996)" fill="#f0a697"/>
          <path id="パス_7383" data-name="パス 7383" d="M494.8,1158.063c-.036-.035.167.209.261.358-.047-.118-.13-.309-.212-.491-.125-.052-.252-.1-.379-.136A2.315,2.315,0,0,1,494.8,1158.063Z" transform="translate(-487.179 -1149.941)" fill="#f0a697"/>
          <path id="パス_7384" data-name="パス 7384" d="M525.578,1149.076l-.01-.007c-.047.034-.11.086-.182.145A.9.9,0,0,0,525.578,1149.076Z" transform="translate(-504.87 -1144.948)" fill="#f0a697"/>
          <path id="パス_7385" data-name="パス 7385" d="M518.885,1150.56l.12.019h.009c.316,0,0-.036-.145-.041-.022,0-.045,0-.068,0A.406.406,0,0,0,518.885,1150.56Z" transform="translate(-501.102 -1145.789)" fill="#f0a697"/>
          <path id="パス_7386" data-name="パス 7386" d="M520.591,1151.088c.082-.054.166-.107.254-.154l.086-.046a.341.341,0,0,1,.082-.072l-.051.005a2.667,2.667,0,0,1-.281,0h0C520.671,1150.842,520.632,1150.955,520.591,1151.088Z" transform="translate(-502.127 -1145.948)" fill="#f0a697"/>
          <path id="パス_7387" data-name="パス 7387" d="M521.132,1146.041a.064.064,0,0,1,.043,0,3.118,3.118,0,0,0,1-.239,4.466,4.466,0,0,1-.574-.228c-.084-.04-.359-.141-.015-.03a1.107,1.107,0,0,0,.816,0,.938.938,0,0,0,.357-.1c.072-.059.136-.112.182-.146-.055-.037-.109-.073-.165-.115l-.55-.943-.06-.459.275-1.017c0-.007,0-.024.017-.062l-.017.063c.02.044.352-.409.182-.255a2.582,2.582,0,0,0-.2.217,5.117,5.117,0,0,0-.565.756,5.262,5.262,0,0,0-.4,1.014c-.02.061-.073.226-.077.254.024-.054.048-.109.069-.163-.056.147-.072.181-.069.163-.044.1-.09.2-.135.3-.149.334-.316.658-.447,1a2.667,2.667,0,0,0,.281,0Z" transform="translate(-502.246 -1141.172)" fill="#f0a697"/>
          <path id="パス_7388" data-name="パス 7388" d="M493.877,1155.864c-.019-.025-.041-.048-.059-.074C493.905,1155.908,493.908,1155.909,493.877,1155.864Z" transform="translate(-486.805 -1148.794)" fill="#f0a697"/>
          <path id="パス_7389" data-name="パス 7389" d="M491.545,1153.275c-.039-.057-.082-.112-.122-.168C491.311,1153.032,491.5,1153.2,491.545,1153.275Z" transform="translate(-485.414 -1147.248)" fill="#f0a697"/>
          <path id="パス_7390" data-name="パス 7390" d="M489.965,1151.338q.128.316.054.1c0-.021-.012-.046-.017-.069-.051-.055-.1-.112-.154-.165Q489.688,1151.021,489.965,1151.338Z" transform="translate(-484.5 -1146.131)" fill="#f0a697"/>
          <path id="パス_7391" data-name="パス 7391" d="M523.589,1149.409a.935.935,0,0,1-.357.1,1.106,1.106,0,0,1-.816,0c-.344-.111-.069-.01.015.03a4.479,4.479,0,0,0,.574.228c.089-.038.178-.078.265-.125A2.327,2.327,0,0,0,523.589,1149.409Z" transform="translate(-503.074 -1145.142)" fill="#f0a697"/>
          <path id="パス_7392" data-name="パス 7392" d="M518.914,1150.536l.031,0h-.031Z" transform="translate(-501.148 -1145.786)" fill="#f0a697"/>
          <path id="パス_7393" data-name="パス 7393" d="M520.441,1151.184a1.349,1.349,0,0,0-.1.478c.032.017.264-.474.444-.677l-.086.046C520.607,1151.077,520.523,1151.13,520.441,1151.184Z" transform="translate(-501.977 -1146.044)" fill="#f0a697"/>
          <path id="パス_7394" data-name="パス 7394" d="M521.619,1150.8a.065.065,0,0,0-.043,0Z" transform="translate(-502.69 -1145.94)" fill="#f0a697"/>
          <path id="パス_7395" data-name="パス 7395" d="M509.54,1150.234c-.014,0-.028-.005-.042-.01C509.575,1150.248,509.578,1150.248,509.54,1150.234Z" transform="translate(-495.778 -1145.609)" fill="#f0a697"/>
          <path id="パス_7396" data-name="パス 7396" d="M486.938,1143.928c.04.093.08.187.119.28l.01.007A1.628,1.628,0,0,0,486.938,1143.928Z" transform="translate(-482.868 -1142.006)" fill="#f0a697"/>
          <path id="パス_7397" data-name="パス 7397" d="M518.511,1150.539c-.124.006-.249.022-.221.031.073-.013.145-.021.216-.027C518.5,1150.541,518.505,1150.54,518.511,1150.539Z" transform="translate(-500.808 -1145.789)" fill="#f0a697"/>
          <path id="パス_7398" data-name="パス 7398" d="M486.492,1144.057c-.253-.193.031.062.1.105l-.035-.056Z" transform="translate(-482.554 -1142.039)" fill="#f0a697"/>
          <path id="パス_7399" data-name="パス 7399" d="M487.226,1144.59l-.01-.007.019.045C487.231,1144.615,487.23,1144.6,487.226,1144.59Z" transform="translate(-483.027 -1142.381)" fill="#f0a697"/>
          <path id="パス_7400" data-name="パス 7400" d="M485.424,1148.521c-.15-.1-.228-.062.194.16l0,0,.01-.018C485.567,1148.618,485.5,1148.571,485.424,1148.521Z" transform="translate(-481.933 -1144.605)" fill="#f0a697"/>
          <path id="パス_7401" data-name="パス 7401" d="M486.98,1144.409l-.177-.13c.047.053.051.065.028.051l.218.351a1.471,1.471,0,0,0-.05-.226Z" transform="translate(-482.791 -1142.207)" fill="#f0a697"/>
          <path id="パス_7402" data-name="パス 7402" d="M486.794,1144.273l-.006,0,.035.056C486.846,1144.338,486.841,1144.325,486.794,1144.273Z" transform="translate(-482.782 -1142.2)" fill="#f0a697"/>
          <path id="パス_7403" data-name="パス 7403" d="M486.772,1144.243l.007.011.006,0A.164.164,0,0,0,486.772,1144.243Z" transform="translate(-482.773 -1142.186)" fill="#f0a697"/>
          <path id="パス_7404" data-name="パス 7404" d="M487.281,1144.737l-.021-.048a1.468,1.468,0,0,1,.05.226l.133.213Q487.366,1144.931,487.281,1144.737Z" transform="translate(-483.053 -1142.441)" fill="#f0a697"/>
          <path id="パス_7405" data-name="パス 7405" d="M492.843,1150.5h0a.291.291,0,0,1-.046.009A.162.162,0,0,0,492.843,1150.5Z" transform="translate(-486.22 -1145.768)" fill="#f0a697"/>
          <path id="パス_7406" data-name="パス 7406" d="M518.716,1150.585l-.12-.019a.416.416,0,0,1-.085-.018c-.071.006-.143.014-.216.027a.89.89,0,0,0,.174.006C518.552,1150.579,518.634,1150.585,518.716,1150.585Z" transform="translate(-500.813 -1145.794)" fill="#f0a697"/>
          <path id="パス_7407" data-name="パス 7407" d="M485.565,1149.005q-.526.342-.191.175a1.485,1.485,0,0,0,.292-.179c-.026-.012-.055-.023-.078-.035Z" transform="translate(-481.898 -1144.89)" fill="#f0a697"/>
          <path id="パス_7408" data-name="パス 7408" d="M482.819,1149.81c.023.029.159.044.2.062a1.223,1.223,0,0,0,.181.058,1.875,1.875,0,0,0,.275-.066C484.005,1149.688,482.864,1149.868,482.819,1149.81Z" transform="translate(-480.511 -1145.358)" fill="#f0a697"/>
          <path id="パス_7409" data-name="パス 7409" d="M489.829,1150.667c0-.008,0-.016,0-.024C489.714,1150.5,489.8,1151.056,489.829,1150.667Z" transform="translate(-484.489 -1145.835)" fill="#f0a697"/>
        </g>
        <g id="グループ_228" data-name="グループ 228" transform="translate(0 114.342)">
          <path id="パス_7410" data-name="パス 7410" d="M310.966,1272.636c-.013-.334-.05-.7-.068-1.1-.015-.345-.107-.71-.124-1.1-.015-.35.227-.73.209-1.114-.017-.353-.5-.7-.514-1.078-.018-.355.453-.747.434-1.124-.018-.357-.479-.7-.5-1.077-.019-.359-.16-.719-.181-1.093s.134-.736.113-1.109-.207-.718-.229-1.09.359-.753.336-1.124,0-.733-.02-1.1-.181-.722-.205-1.092.114-.742.089-1.112-.5-.7-.521-1.068.111-.742.084-1.111-.163-.723-.191-1.091.26-.756.231-1.124-.1-.73-.126-1.1.074-.743.044-1.11-.553-.691-.585-1.057.482-.781.45-1.148-.393-.7-.427-1.071.059-.747.023-1.113-.415-.7-.452-1.064.247-.766.208-1.131-.133-.728-.173-1.092.148-.76.107-1.124-.551-.679-.595-1.042.077-.754.031-1.116-.18-.722-.228-1.084.013-.748-.038-1.109-.37-.693-.424-1.053.271-.791.214-1.15-.135-.73-.2-1.087-.132-.732-.2-1.086-.5-.661-.567-1.013c-.074-.37.2-.8.119-1.151-.081-.37-.364-.681-.448-1.027-.09-.371-.235-.708-.329-1.049-.1-.372.063-.8-.044-1.135-.12-.373-.572-.6-.7-.916-.147-.374-.082-.789-.237-1.084a4.52,4.52,0,0,0-.592-.915c-.3-.332-.595-.275-.918-.29-.385-.018-.773-.464-1.128-.41a5.617,5.617,0,0,0-1.056.449,5.731,5.731,0,0,0-1,.5,6.75,6.75,0,0,0-.853.714,8.7,8.7,0,0,0-.659.89,10.538,10.538,0,0,0-.6.909c-.208.3-.8.358-.991.684s-.1.785-.266,1.123-.3.668-.448,1.012-.34.659-.467,1.008-.012.775-.125,1.127-.725.56-.825.915-.21.727-.3,1.082.036.784-.041,1.139c-.081.373.118.791.051,1.143-.072.381-.271.721-.328,1.069-.065.393-.5.7-.55,1.043-.059.417.277.839.241,1.152-.08.693.4.954-.028,1.31s-.571-.27-1.258-.379c-.3-.048-.622-.37-1.035-.435-.328-.052-.7-.04-1.088-.1-.338-.053-.751.231-1.13.172-.344-.053-.717-.022-1.091-.079-.347-.053-.709-.089-1.079-.145-.35-.053-.65-.5-1.018-.559-.352-.053-.75.149-1.116.094s-.687-.284-1.053-.338-.76.2-1.124.147-.722-.065-1.086-.117-.664-.483-1.026-.534-.71-.171-1.072-.221-.748.106-1.109.057-.714-.157-1.075-.206-.713-.18-1.074-.228-.759.172-1.118.126-.721-.122-1.08-.167-.72-.136-1.079-.18-.711-.221-1.069-.263-.709-.262-1.065-.3-.742.014-1.1-.024-.77.291-1.124.255c-.373-.037-.7-.436-1.053-.468-.376-.034-.756.129-1.105.1-.38-.03-.755.162-1.1.141-.388-.024-.733-.347-1.069-.359-.374-.013-.74-.066-1.1-.069-.375,0-.746-.208-1.1-.2-.377.008-.739.244-1.094.264-.377.021-.748,0-1.1.034-.376.036-.71.312-1.059.362-.375.053-.7.256-1.044.325-.373.074-.744.03-1.083.121-.369.1-.66.331-.988.45-.36.13-.737.12-1.05.272-.345.168-.8.112-1.088.305a7.038,7.038,0,0,0-.931.637c-.275.262-.157.838-.355,1.129-.21.309-.849.393-.975.73s.154.808.108,1.174-.29.718-.259,1.091a7.277,7.277,0,0,0,.319,1.067,8.452,8.452,0,0,0,.387,1.021,9.842,9.842,0,0,0,.388,1.026c.166.313.382.611.586.927.193.3.578.464.8.762s.288.684.532.968.549.472.808.74.389.632.66.886.483.552.765.793.684.312.975.542.643.344.943.562.522.512.829.719.423.666.724.86.7.247,1,.436.56.466.867.65.728.183,1.037.362.561.469.873.643.78.073,1.094.243.4.784.715.949.636.349.953.509.713.194,1.032.35.69.234,1.011.386.582.465.9.613.713.181,1.036.325.771.042,1.095.181.645.331.969.466.634.367.958.5c.342.138.747.088,1.071.214.346.135.563.567.886.688.351.132.666.318.988.435.358.13.718.194,1.036.305.367.128.763.081,1.073.184.391.131.767.135,1.053.226.658.209.8-.094,1.168.292.393.406.168.625.486,1.091s.364.436.683.9.018.672.336,1.139.485.352.8.817.4.409.722.875.333.458.651.925.194.552.512,1.02.246.517.565.984.217.537.537,1.005.508.27,1.005.542.432-.062.985-.053.552.082,1.1.091.545.513,1.1.522.555-.068,1.109-.059.557-.215,1.11-.205.55.2,1.1.213.557-.137,1.111-.128.557-.192,1.111-.183.555,0,1.109.006.547.381,1.1.391.555-.038,1.11-.029.552.173,1.106.183.557-.157,1.112-.148l1.109.018c.553.009.554-.019,1.108-.01s.552.147,1.106.156.562-.408,1.117-.4.55.306,1.1.316.553.139,1.108.148.558-.091,1.114-.081.681.326,1.208.148.2-.679.169-1.389C311.2,1273.421,310.983,1273.06,310.966,1272.636Z" transform="translate(-251.954 -1225.2)" fill="#ffc8b4"/>
          <path id="パス_7411" data-name="パス 7411" d="M359.244,1354.353l.114-1.025.248-1.026-.38-1.026.395-1.026-.288-1.026.216-1.026-.5-1.027.288-1.024.129-1.026-.376-1.027.419-1.027.041-1.027-.005-1.014-.036-1.209-1.188.3-1.021-.36-1.021.3-1.021-.074-1.021.262-1.022-.213h-1.021l-1.021-.117-1.021.251-1.022-.431-1.021.476-1.022-.044-1.022-.233-1.02-.05-1.02.261-1.02-.026-1.022.1-1.021-.31-1.021.149-1.021-.347-1.023-.018-1.021.171-1.023-.095-1.022-.064-1.023.1-1.022-.024-1.023.059-1.023.1-1.021-.006-1.022.049-1.024.191-1.024-.021-1.024-.441-1.026.27-1.212-.194.1,1.211.025,1.025-.208,1.026.549,1.025.008,1.025-.343,1.025.163,1.025-.2,1.025-.035,1.025.371,1.025-.066,1.024-.444,1.023.483,1.024-.233,1.025-.221,1.025.443,1.024-.322,1.025.018,1.026.159,1.025-.147,1.026-.054,1.026.191,1.026-.347,1.026.043,1.026.044,1.027.429,1.025-.375,1.026.028,1.027.128,1.027-.279,1.028.3,1.029-.24,1.24,1.234-.513,1.021.077,1.021-.029,1.021.472,1.021-.444,1.022.426,1.021-.3,1.021.022,1.022-.1,1.022.118,1.021.126,1.022-.244,1.022-.068,1.02.259,1.019-.046,1.02-.174,1.022.356,1.021-.343,1.021.046,1.021.089,1.022.293,1.021-.494,1.023.1,1.022.215,1.023-.059,1.022-.145,1.023-.048,1.023.254,1.021-.034,1.022.048,1.024-.286,1.024-.074,1.024.42,1.026-.4,1.157.393-.222-1.156.177-1.025.168-1.025-.412-1.025.288-1.025-.314-1.025.213-1.025-.245-1.025.113-1.025.156-1.025.019-1.024-.237-1.023.153-1.023.138-1.025.15-1.025-.24-1.024.259-1.025Z" transform="translate(-292.769 -1290.726)" fill="#a1b8dd"/>
        </g>
      </g>
      <g id="レイヤー_3" data-name="レイヤー 3" transform="translate(313.267 953.102)">
        <g id="グループ_231" data-name="グループ 231" transform="translate(0 0)">
          <path id="パス_7413" data-name="パス 7413" d="M506.843,1192.478a11.925,11.925,0,0,0-4.6-4.3,4.706,4.706,0,0,0-2.512-.405,2.525,2.525,0,0,0-1.981,1.462,3.121,3.121,0,0,0,.512,2.74,6.51,6.51,0,0,0,8.14,2.411Z" transform="translate(-453.847 -1087.802)" fill="#505050"/>
          <rect id="長方形_131" data-name="長方形 131" width="9.183" height="30.433" rx="4.591" transform="translate(77.701 51.142)" fill="#7c7c7c"/>
          <rect id="長方形_133" data-name="長方形 133" width="9.183" height="30.433" rx="4.591" transform="translate(16.276 81.575) rotate(-180)" fill="#7c7c7c"/>
          <g id="グループ_233" data-name="グループ 233">
            <g id="グループ_229" data-name="グループ 229" transform="translate(51.889 61.186)">
              <path id="パス_7412" data-name="パス 7412" d="M516.991,1142.3a30.431,30.431,0,0,0,16.617,4.691,27.194,27.194,0,0,0,14.6-4.966,35.137,35.137,0,0,0,10.714-12.344,35.668,35.668,0,0,0,3.26-8.186,31.143,31.143,0,0,0,.733-9.142,37.359,37.359,0,0,0-1.443-8.467,16.847,16.847,0,0,0-2.705-5.78,4.774,4.774,0,0,0-.709-.731.806.806,0,0,0-1.107,0,.788.788,0,0,0,0,1.107,4.814,4.814,0,0,1,.709.731c.022.028.087.118-.011-.014.025.033.05.066.074.1.062.088.125.175.184.264.115.171.223.347.328.526a15.679,15.679,0,0,1,1.233,2.7,33.071,33.071,0,0,1,1.714,7.568,32.74,32.74,0,0,1-.114,8.755,30.208,30.208,0,0,1-2.635,8.057,34.979,34.979,0,0,1-9.649,12.484,26.1,26.1,0,0,1-13.385,5.646,27.594,27.594,0,0,1-15.636-3.237c-.671-.352-1.329-.726-1.977-1.117a.784.784,0,0,0-.79,1.352Z" transform="translate(-516.618 -1097.152)" fill="#bfbfbf"/>
            </g>
            <rect id="長方形_132" data-name="長方形 132" width="6.942" height="23.909" rx="3.471" transform="translate(87.035 54.214)" fill="#bfbfbf"/>
            <rect id="長方形_134" data-name="長方形 134" width="6.942" height="23.909" rx="3.471" transform="translate(6.942 78.123) rotate(180)" fill="#bfbfbf"/>
            <g id="グループ_230" data-name="グループ 230" transform="translate(3.793)">
              <path id="パス_7414" data-name="パス 7414" d="M491.473,1015.414l.191-10.134a102.535,102.535,0,0,0-.039-11.258,43.807,43.807,0,0,0-87.255-.233c-.18,1.858-.2,3.716-.2,5.579v13.4a1.566,1.566,0,1,0,3.131,0v-10.545q0-2.123,0-4.246c0-1.322.057-2.643.178-3.96q.053-.582.122-1.162c.013-.109.086-.731.033-.276.027-.231.065-.46.1-.69q.184-1.2.435-2.383a41.945,41.945,0,0,1,1.26-4.616q.386-1.15.838-2.277c.076-.191.146-.387.234-.573-.019.039-.138.322-.027.064.044-.1.089-.207.134-.309q.247-.565.511-1.123a42.211,42.211,0,0,1,2.235-4.119q.613-.993,1.28-1.952.317-.456.646-.9.181-.246.365-.489c.056-.073.109-.149.169-.22-.256.309-.03.04.027-.033a42.556,42.556,0,0,1,6.582-6.7q.215-.175.432-.347c.079-.062.538-.438.207-.164.312-.258.65-.492.978-.729q.945-.684,1.926-1.315a42.254,42.254,0,0,1,4.173-2.358c.7-.345,1.412-.693,2.14-.98-.415.163.169-.068.249-.1q.26-.106.523-.208.578-.226,1.163-.434a41.993,41.993,0,0,1,4.637-1.357q1.2-.279,2.425-.486.57-.1,1.144-.178c.077-.011.154-.023.23-.032-.435.05-.035.006.045,0q.347-.043.7-.081a42.866,42.866,0,0,1,9.945.088c.1.012.379.043-.013,0,.1.011.192.026.288.04q.316.046.63.095.627.1,1.252.218,1.184.225,2.353.517a41.949,41.949,0,0,1,4.549,1.416q.528.2,1.05.409l.312.128c.26.107-.022-.012-.063-.027.209.082.413.177.618.268q1.1.488,2.172,1.039a42.2,42.2,0,0,1,4.082,2.4q.97.645,1.9,1.344c.147.11.3.217.442.335-.336-.278.125.1.207.164q.477.379.944.772a42.493,42.493,0,0,1,3.426,3.222q.821.862,1.592,1.77.359.422.707.853.174.216.345.434c.045.058.093.115.136.175-.256-.354.041.056.092.123a42.25,42.25,0,0,1,4.8,8.079q.115.255.228.513l.111.258c.154.356-.13-.32.017.04.156.382.311.765.458,1.151q.422,1.11.782,2.242a42.066,42.066,0,0,1,1.186,4.646c.155.792.3,1.594.4,2.4-.051-.447.018.159.033.276q.038.319.071.638.067.641.114,1.284c.08,1.087.129,2.181.112,3.271-.021,1.388-.052,2.777-.079,4.166q-.116,6.181-.233,12.362l-.016.832a1.566,1.566,0,0,0,3.132,0Z" transform="translate(-404.171 -954.102)" fill="#bfbfbf"/>
            </g>
          </g>
        </g>
      </g>
    </g>
  </g>
</svg>
