<svg xmlns="http://www.w3.org/2000/svg" width="40.988" height="38.214" viewBox="0 0 40.988 38.214">
  <g id="グループ_330" data-name="グループ 330" transform="translate(-136.343 -572.08)">
    <g id="グループ_329" data-name="グループ 329" transform="translate(136.893 572.63)">
      <path id="パス_7457" data-name="パス 7457" d="M136.893,580.689v24.585a1.77,1.77,0,0,0,1.77,1.77h36.347a1.771,1.771,0,0,0,1.77-1.77V580.689Zm12.733,5.83h1.94v1.94h-1.94Zm-4.291,15.358H143.4v-1.94h1.94Zm0-6.71H143.4v-1.939h1.94Zm0-6.708H143.4v-1.94h1.94Zm6.23,13.418h-1.94v-1.94h1.94Zm1.107-5.6h-4.153v-4.152h4.153Zm5.124,5.6h-1.94v-1.94h1.94Zm0-6.71h-1.94v-1.939h1.94Zm0-6.708h-1.94v-1.94h1.94Zm6.25,13.418h-1.938v-1.94h1.938Zm0-6.71h-1.938v-1.939h1.938Zm0-6.708h-1.938v-1.94h1.938Zm6.23,13.418h-1.938v-1.94h1.938Zm0-6.71h-1.938v-1.939h1.938Zm0-6.708h-1.938v-1.94h1.938Z" transform="translate(-136.893 -569.93)" fill="#fffbed" stroke="#4c5c59" stroke-linecap="round" stroke-linejoin="round" stroke-width="1.1"/>
      <rect id="長方形_247" data-name="長方形 247" width="1.94" height="1.94" transform="translate(12.733 16.589)" fill="none" stroke="#4c5c59" stroke-miterlimit="10" stroke-width="1.1"/>
      <rect id="長方形_248" data-name="長方形 248" width="1.94" height="1.94" transform="translate(6.503 16.589)" fill="none" stroke="#4c5c59" stroke-miterlimit="10" stroke-width="1.1"/>
      <rect id="長方形_249" data-name="長方形 249" width="1.939" height="1.94" transform="translate(18.964 16.589)" fill="none" stroke="#4c5c59" stroke-miterlimit="10" stroke-width="1.1"/>
      <rect id="長方形_250" data-name="長方形 250" width="1.94" height="1.94" transform="translate(25.215 16.589)" fill="none" stroke="#4c5c59" stroke-miterlimit="10" stroke-width="1.1"/>
      <rect id="長方形_251" data-name="長方形 251" width="1.94" height="1.94" transform="translate(31.445 16.589)" fill="none" stroke="#4c5c59" stroke-miterlimit="10" stroke-width="1.1"/>
      <rect id="長方形_252" data-name="長方形 252" width="4.153" height="4.153" transform="translate(11.626 22.191)" fill="#1bb69f" stroke="#4c5c59" stroke-miterlimit="10" stroke-width="1.1"/>
      <rect id="長方形_253" data-name="長方形 253" width="1.94" height="1.94" transform="translate(6.503 23.298)" fill="none" stroke="#4c5c59" stroke-miterlimit="10" stroke-width="1.1"/>
      <rect id="長方形_254" data-name="長方形 254" width="1.939" height="1.94" transform="translate(18.964 23.298)" fill="none" stroke="#4c5c59" stroke-miterlimit="10" stroke-width="1.1"/>
      <rect id="長方形_255" data-name="長方形 255" width="1.94" height="1.94" transform="translate(25.215 23.298)" fill="none" stroke="#4c5c59" stroke-miterlimit="10" stroke-width="1.1"/>
      <rect id="長方形_256" data-name="長方形 256" width="1.94" height="1.94" transform="translate(31.445 23.298)" fill="none" stroke="#4c5c59" stroke-miterlimit="10" stroke-width="1.1"/>
      <rect id="長方形_257" data-name="長方形 257" width="1.94" height="1.939" transform="translate(12.733 30.006)" fill="none" stroke="#4c5c59" stroke-miterlimit="10" stroke-width="1.1"/>
      <rect id="長方形_258" data-name="長方形 258" width="1.94" height="1.939" transform="translate(6.503 30.006)" fill="none" stroke="#4c5c59" stroke-miterlimit="10" stroke-width="1.1"/>
      <rect id="長方形_259" data-name="長方形 259" width="1.939" height="1.939" transform="translate(18.964 30.006)" fill="none" stroke="#4c5c59" stroke-miterlimit="10" stroke-width="1.1"/>
      <rect id="長方形_260" data-name="長方形 260" width="1.94" height="1.939" transform="translate(25.215 30.006)" fill="none" stroke="#4c5c59" stroke-miterlimit="10" stroke-width="1.1"/>
      <rect id="長方形_261" data-name="長方形 261" width="1.94" height="1.939" transform="translate(31.445 30.006)" fill="none" stroke="#4c5c59" stroke-miterlimit="10" stroke-width="1.1"/>
      <path id="パス_7458" data-name="パス 7458" d="M175.011,575.334h-4.28v3.611h-2.555v-3.611H145.5v3.611h-2.555v-3.611h-4.28a1.77,1.77,0,0,0-1.77,1.77v5.379h39.888V577.1A1.771,1.771,0,0,0,175.011,575.334Z" transform="translate(-136.893 -571.724)" fill="#1bb69f" stroke="#4c5c59" stroke-miterlimit="10" stroke-width="1.1"/>
      <path id="パス_7459" data-name="パス 7459" d="M141.424,579.851h2.555V572.63h-2.555v7.221Z" transform="translate(-135.375 -572.63)" fill="#fff" stroke="#4c5c59" stroke-linecap="round" stroke-linejoin="round" stroke-width="1.1"/>
      <path id="パス_7460" data-name="パス 7460" d="M160.326,579.851h2.555V572.63h-2.555v7.221Z" transform="translate(-129.044 -572.63)" fill="#fff" stroke="#4c5c59" stroke-linecap="round" stroke-linejoin="round" stroke-width="1.1"/>
    </g>
    <line id="線_60" data-name="線 60" x2="14.636" transform="translate(149.626 579.851)" fill="none" stroke="#4c5c59" stroke-linecap="round" stroke-linejoin="round" stroke-width="1.1"/>
  </g>
</svg>
