<svg xmlns="http://www.w3.org/2000/svg" width="40.809" height="40.808" viewBox="0 0 40.809 40.808">
  <g id="グループ_319" data-name="グループ 319" transform="translate(-458.548 -193.838)">
    <circle id="楕円形_1784" data-name="楕円形 1784" cx="11.596" cy="11.596" r="11.596" transform="translate(465.002 222.863) rotate(-76.717)" fill="none" stroke="#30567d" stroke-linecap="round" stroke-linejoin="round" stroke-width="1.1"/>
    <g id="グループ_308" data-name="グループ 308" transform="translate(476.764 194.388)">
      <g id="グループ_306" data-name="グループ 306" transform="translate(0)">
        <circle id="楕円形_1785" data-name="楕円形 1785" cx="2.189" cy="2.189" r="2.189" fill="#1bb69f" stroke="#4c5c59" stroke-linecap="round" stroke-linejoin="round" stroke-width="1.1"/>
        <line id="線_43" data-name="線 43" y1="3.752" transform="translate(2.189 4.377)" fill="#a5d2fa" stroke="#4c5c59" stroke-linecap="round" stroke-linejoin="round" stroke-width="1.1"/>
      </g>
      <g id="グループ_307" data-name="グループ 307" transform="translate(0 31.579)">
        <path id="パス_7438" data-name="パス 7438" d="M474.289,226.958a2.189,2.189,0,1,1,2.189,2.189A2.189,2.189,0,0,1,474.289,226.958Z" transform="translate(-474.289 -221.017)" fill="#1bb69f" stroke="#4c5c59" stroke-linecap="round" stroke-linejoin="round" stroke-width="1.1"/>
        <line id="線_44" data-name="線 44" y2="3.752" transform="translate(2.189)" fill="#a5d2fa" stroke="#4c5c59" stroke-linecap="round" stroke-linejoin="round" stroke-width="1.1"/>
      </g>
    </g>
    <g id="グループ_311" data-name="グループ 311" transform="translate(459.098 212.053)">
      <g id="グループ_309" data-name="グループ 309" transform="translate(31.579)">
        <path id="パス_7439" data-name="パス 7439" d="M491.669,213.956a2.189,2.189,0,1,1,2.189-2.189A2.188,2.188,0,0,1,491.669,213.956Z" transform="translate(-485.728 -209.578)" fill="#1bb69f" stroke="#4c5c59" stroke-linecap="round" stroke-linejoin="round" stroke-width="1.1"/>
        <line id="線_45" data-name="線 45" x2="3.752" transform="translate(0 2.189)" fill="#a5d2fa" stroke="#4c5c59" stroke-linecap="round" stroke-linejoin="round" stroke-width="1.1"/>
      </g>
      <g id="グループ_310" data-name="グループ 310">
        <path id="パス_7440" data-name="パス 7440" d="M461.287,209.578a2.189,2.189,0,1,1-2.189,2.19A2.189,2.189,0,0,1,461.287,209.578Z" transform="translate(-459.098 -209.578)" fill="#1bb69f" stroke="#4c5c59" stroke-linecap="round" stroke-linejoin="round" stroke-width="1.1"/>
        <line id="線_46" data-name="線 46" x1="3.752" transform="translate(4.378 2.189)" fill="#a5d2fa" stroke="#4c5c59" stroke-linecap="round" stroke-linejoin="round" stroke-width="1.1"/>
      </g>
    </g>
    <g id="グループ_314" data-name="グループ 314" transform="translate(464.273 199.562)">
      <g id="グループ_312" data-name="グループ 312" transform="translate(22.971)">
        <path id="パス_7441" data-name="パス 7441" d="M488.766,202.573a2.189,2.189,0,1,1,0-3.1A2.188,2.188,0,0,1,488.766,202.573Z" transform="translate(-483.018 -198.837)" fill="#1bb69f" stroke="#4c5c59" stroke-linecap="round" stroke-linejoin="round" stroke-width="1.1"/>
        <line id="線_47" data-name="線 47" y1="2.653" x2="2.653" transform="translate(0 3.737)" fill="#a5d2fa" stroke="#4c5c59" stroke-linecap="round" stroke-linejoin="round" stroke-width="1.1"/>
      </g>
      <g id="グループ_313" data-name="グループ 313" transform="translate(0 22.971)">
        <path id="パス_7442" data-name="パス 7442" d="M464.189,220.961a2.189,2.189,0,1,1,0,3.1A2.188,2.188,0,0,1,464.189,220.961Z" transform="translate(-463.548 -218.308)" fill="#1bb69f" stroke="#4c5c59" stroke-linecap="round" stroke-linejoin="round" stroke-width="1.1"/>
        <line id="線_48" data-name="線 48" x1="2.653" y2="2.653" transform="translate(3.736)" fill="#a5d2fa" stroke="#4c5c59" stroke-linecap="round" stroke-linejoin="round" stroke-width="1.1"/>
      </g>
    </g>
    <g id="グループ_317" data-name="グループ 317" transform="translate(464.273 199.562)">
      <g id="グループ_315" data-name="グループ 315" transform="translate(22.971 22.971)">
        <path id="パス_7443" data-name="パス 7443" d="M485.672,224.056a2.189,2.189,0,1,1,3.095,0A2.189,2.189,0,0,1,485.672,224.056Z" transform="translate(-483.018 -218.308)" fill="#1bb69f" stroke="#4c5c59" stroke-linecap="round" stroke-linejoin="round" stroke-width="1.1"/>
        <line id="線_49" data-name="線 49" x2="2.653" y2="2.653" fill="#a5d2fa" stroke="#4c5c59" stroke-linecap="round" stroke-linejoin="round" stroke-width="1.1"/>
      </g>
      <g id="グループ_316" data-name="グループ 316">
        <path id="パス_7444" data-name="パス 7444" d="M467.283,199.478a2.189,2.189,0,1,1-3.094,0A2.189,2.189,0,0,1,467.283,199.478Z" transform="translate(-463.548 -198.837)" fill="#1bb69f" stroke="#4c5c59" stroke-linecap="round" stroke-linejoin="round" stroke-width="1.1"/>
        <line id="線_50" data-name="線 50" x1="2.653" y1="2.653" transform="translate(3.736 3.737)" fill="#a5d2fa" stroke="#4c5c59" stroke-linecap="round" stroke-linejoin="round" stroke-width="1.1"/>
      </g>
    </g>
    <g id="グループ_318" data-name="グループ 318" transform="translate(467.356 202.646)">
      <path id="パス_7445" data-name="パス 7445" d="M474.551,216.572a3.636,3.636,0,0,0,6.463-.008,9.262,9.262,0,0,1,4.892,4.8,11.6,11.6,0,1,0-16.223,0A9.265,9.265,0,0,1,474.551,216.572Zm-.893-8a.384.384,0,0,1,.383-.383.351.351,0,0,1,.115.024c.483-2.041,1.925-3.521,3.628-3.521s3.148,1.483,3.631,3.526a.376.376,0,0,1,.141-.029.383.383,0,0,1,.381.383v1.227a.381.381,0,0,1-.369.379c-.177,2.558-1.8,4.562-3.784,4.562s-3.61-2.007-3.785-4.568a.379.379,0,0,1-.341-.373Z" transform="translate(-466.199 -201.489)" fill="#fffbed" stroke="#4c5c59" stroke-linecap="round" stroke-linejoin="round" stroke-width="1.1"/>
      <path id="パス_7446" data-name="パス 7446" d="M476.171,221.432Z" transform="translate(-464.574 -198.24)" fill="#29abe2" stroke="#4c5c59" stroke-linecap="round" stroke-linejoin="round" stroke-width="1.1"/>
      <path id="パス_7447" data-name="パス 7447" d="M472.954,209.72c.176,2.561,1.8,4.568,3.785,4.568s3.607-2,3.784-4.562a.381.381,0,0,0,.369-.379v-1.227a.383.383,0,0,0-.381-.383.375.375,0,0,0-.141.029c-.483-2.043-1.926-3.526-3.631-3.526s-3.146,1.48-3.628,3.521a.351.351,0,0,0-.115-.024.384.384,0,0,0-.383.383v1.227A.379.379,0,0,0,472.954,209.72Z" transform="translate(-465.154 -201.041)" fill="#1bb69f" stroke="#4c5c59" stroke-linecap="round" stroke-linejoin="round" stroke-width="1.1"/>
      <path id="パス_7448" data-name="パス 7448" d="M480.526,214.452a3.636,3.636,0,0,1-6.463.008,9.265,9.265,0,0,0-4.867,4.794,11.555,11.555,0,0,0,8.111,3.315h0a11.555,11.555,0,0,0,8.111-3.315A9.262,9.262,0,0,0,480.526,214.452Z" transform="translate(-465.711 -199.377)" fill="#1bb69f" stroke="#4c5c59" stroke-linecap="round" stroke-linejoin="round" stroke-width="1.1"/>
    </g>
  </g>
</svg>
