<svg xmlns="http://www.w3.org/2000/svg" width="38.606" height="42.555" viewBox="0 0 38.606 42.555">
  <g id="グループ_334" data-name="グループ 334" transform="translate(-785.546 -250.466)">
    <path id="パス_7464" data-name="パス 7464" d="M786.1,264.249h3.052V261.2Z" transform="translate(0 4.039)" fill="none" stroke="#4c5c59" stroke-linecap="round" stroke-linejoin="round" stroke-width="1.1"/>
    <path id="パス_7465" data-name="パス 7465" d="M813.821,264.254l-3.068-3.068v3.068Z" transform="translate(9.781 4.034)" fill="none" stroke="#4c5c59" stroke-linecap="round" stroke-linejoin="round" stroke-width="1.1"/>
    <path id="パス_7466" data-name="パス 7466" d="M803.407,252.062a3.573,3.573,0,0,0-5.053,0l-2.253,2.253h9.559Z" transform="translate(3.969 0)" fill="none" stroke="#4c5c59" stroke-linecap="round" stroke-linejoin="round" stroke-width="1.1"/>
    <path id="パス_7467" data-name="パス 7467" d="M810.653,279.451l9.016-9.014V253.97h0c0-.2.008-.4.015-.592H788.341a4.378,4.378,0,0,0-.06.592v16.452l9.031,9.03Z" transform="translate(0.867 0.937)" fill="#fffbed" stroke="#4c5c59" stroke-linecap="round" stroke-linejoin="round" stroke-width="1.1"/>
    <path id="パス_7468" data-name="パス 7468" d="M813.314,266.463l-9.015,9.014,12.082,12.082V263.4Z" transform="translate(7.221 4.911)" fill="#1bb69f" stroke="#4c5c59" stroke-linecap="round" stroke-linejoin="round" stroke-width="1.1"/>
    <path id="パス_7469" data-name="パス 7469" d="M789.148,266.447,786.1,263.4V287.56l12.082-12.082Z" transform="translate(0 4.911)" fill="#1bb69f" stroke="#4c5c59" stroke-linecap="round" stroke-linejoin="round" stroke-width="1.1"/>
    <path id="パス_7470" data-name="パス 7470" d="M798.178,272.046,786.1,284.128H823.6l-12.082-12.082Z" transform="translate(0 8.342)" fill="#1bb69f" stroke="#4c5c59" stroke-linecap="round" stroke-linejoin="round" stroke-width="1.1"/>
    <g id="グループ_333" data-name="グループ 333" transform="translate(798.04 259.361)">
      <path id="パス_7471" data-name="パス 7471" d="M801.944,256.991c-4.454,0-7.3,3.194-7.3,7.43,0,4.137,2.74,6.742,6.539,6.742a7.1,7.1,0,0,0,4.12-1.04l-.32-1.043a7.072,7.072,0,0,1-3.732.908,5.175,5.175,0,0,1-5.279-5.548c.015-3.767,2.32-6.323,5.918-6.323,3.043,0,5.077,1.866,5.077,4.809,0,2.2-.923,3.648-2.2,3.648-.6,0-.908-.335-.655-1.427l1.008-4.726h-1.328l-.285,1.127a1.842,1.842,0,0,0-2-1.295c-1.934,0-3.464,1.985-3.464,4.541,0,1.948,1.025,2.925,2.387,2.925a2.653,2.653,0,0,0,2.388-1.295c.05.925.722,1.312,1.68,1.312,2.169,0,3.75-1.866,3.75-4.876,0-3.8-2.876-5.867-6.306-5.867Zm-1.159,9.566c-.824,0-1.312-.64-1.312-1.849,0-1.7.823-3.328,2.184-3.328,1.244,0,1.7.89,1.311,2.657-.419,1.849-1.176,2.521-2.184,2.521Zm4.337-6.137h0Z" transform="translate(-794.648 -256.991)" fill="#4c5c59"/>
    </g>
  </g>
</svg>
