<svg xmlns="http://www.w3.org/2000/svg" xmlns:xlink="http://www.w3.org/1999/xlink" width="620.5" height="381" viewBox="0 0 620.5 381">
  <defs>
    <filter id="パス_7545" x="283" y="7.5" width="301" height="355" filterUnits="userSpaceOnUse">
      <feOffset input="SourceAlpha"/>
      <feGaussianBlur stdDeviation="7.5" result="blur"/>
      <feFlood flood-opacity="0.141"/>
      <feComposite operator="in" in2="blur"/>
      <feComposite in="SourceGraphic"/>
    </filter>
    <filter id="パス_7553" x="0" y="20.5" width="291" height="332" filterUnits="userSpaceOnUse">
      <feOffset input="SourceAlpha"/>
      <feGaussianBlur stdDeviation="7.5" result="blur-2"/>
      <feFlood flood-opacity="0.141"/>
      <feComposite operator="in" in2="blur-2"/>
      <feComposite in="SourceGraphic"/>
    </filter>
    <filter id="合体_1" x="527.5" y="0" width="93" height="93" filterUnits="userSpaceOnUse">
      <feOffset input="SourceAlpha"/>
      <feGaussianBlur stdDeviation="5" result="blur-3"/>
      <feFlood flood-opacity="0.122"/>
      <feComposite operator="in" in2="blur-3"/>
      <feComposite in="SourceGraphic"/>
    </filter>
    <filter id="合体_2" x="249.5" y="288" width="93" height="93" filterUnits="userSpaceOnUse">
      <feOffset input="SourceAlpha"/>
      <feGaussianBlur stdDeviation="5" result="blur-4"/>
      <feFlood flood-opacity="0.122"/>
      <feComposite operator="in" in2="blur-4"/>
      <feComposite in="SourceGraphic"/>
    </filter>
    <filter id="パス_7565" x="281.5" y="173" width="16" height="29" filterUnits="userSpaceOnUse">
      <feOffset dx="2" dy="2" input="SourceAlpha"/>
      <feGaussianBlur result="blur-5"/>
      <feFlood flood-opacity="0.161"/>
      <feComposite operator="in" in2="blur-5"/>
      <feComposite in="SourceGraphic"/>
    </filter>
  </defs>
  <g id="グループ_444" data-name="グループ 444" transform="translate(2593.5 406)">
    <g transform="matrix(1, 0, 0, 1, -2593.5, -406)" filter="url(#パス_7545)">
      <path id="パス_7545-2" data-name="パス 7545" d="M6,0H250a6,6,0,0,1,6,6V304a6,6,0,0,1-6,6H6a6,6,0,0,1-6-6V6A6,6,0,0,1,6,0Z" transform="translate(305.5 30)" fill="#fff"/>
    </g>
    <path id="パス_7546" data-name="パス 7546" d="M0,0H202V80H0Z" transform="translate(-2261 -342)" fill="rgba(255,0,0,0.12)"/>
    <path id="パス_7547" data-name="パス 7547" d="M6,0H250a6,6,0,0,1,6,6V17H0V6A6,6,0,0,1,6,0Z" transform="translate(-2288 -376)" fill="#a1b8dd"/>
    <path id="パス_7548" data-name="パス 7548" d="M2,0H194a2,2,0,0,1,2,2V72a2,2,0,0,1-2,2H2a2,2,0,0,1-2-2V2A2,2,0,0,1,2,0Z" transform="translate(-2258 -339)" fill="#dee5f0"/>
    <g id="グループ_435" data-name="グループ 435" transform="translate(225 85)">
      <circle id="楕円形_25" data-name="楕円形 25" cx="3.5" cy="3.5" r="3.5" transform="translate(-2503 -456)" fill="#ff7165"/>
      <circle id="楕円形_26" data-name="楕円形 26" cx="3.5" cy="3.5" r="3.5" transform="translate(-2493 -456)" fill="#fcdc71"/>
      <circle id="楕円形_27" data-name="楕円形 27" cx="3.5" cy="3.5" r="3.5" transform="translate(-2483 -456)" fill="#53e898"/>
    </g>
    <g id="グループ_436" data-name="グループ 436" transform="translate(222.569 92.57)">
      <g id="グループ_271" data-name="グループ 271" transform="translate(-2478.109 -346.433)">
        <path id="パス_7416" data-name="パス 7416" d="M8.539,8.539A2.27,2.27,0,1,0,6.27,6.27,2.269,2.269,0,0,0,8.539,8.539Zm0,1.135c-1.515,0-4.539.76-4.539,2.27v1.135h9.079V11.944C13.079,10.434,10.054,9.674,8.539,9.674Z" transform="translate(-4 -4)" fill="#899bb7"/>
        <path id="パス_7417" data-name="パス 7417" d="M-2476.6-332.121h8.6v.915s-.7,1.443-4.317,1.375-4.053-1.532-4.053-1.532Z" transform="translate(2476.68 340.632)" fill="#899bb7"/>
      </g>
      <g id="楕円形_29" data-name="楕円形 29" transform="translate(-2480.57 -349.57)" fill="none" stroke="#e0e0e0" stroke-width="1">
        <circle cx="7" cy="7" r="7" stroke="none"/>
        <circle cx="7" cy="7" r="6.5" fill="none"/>
      </g>
    </g>
    <path id="パス_7549" data-name="パス 7549" d="M0,0H60V1H0Z" transform="translate(-2239 -254)" fill="#d8d1d1"/>
    <path id="パス_7550" data-name="パス 7550" d="M0,0H20V1H0Z" transform="translate(-2239 -247)" fill="#d8d1d1"/>
    <path id="パス_7551" data-name="パス 7551" d="M0,0H18V18H0Z" transform="translate(-2080 -231)" fill="#ffbfbf"/>
    <path id="パス_7552" data-name="パス 7552" d="M0,0H133V18H0Z" transform="translate(-2258 -209)" fill="#ffbfbf"/>
    <g transform="matrix(1, 0, 0, 1, -2593.5, -406)" filter="url(#パス_7553)">
      <path id="パス_7553-2" data-name="パス 7553" d="M6,0H240a6,6,0,0,1,6,6V281a6,6,0,0,1-6,6H6a6,6,0,0,1-6-6V6A6,6,0,0,1,6,0Z" transform="translate(22.5 43)" fill="#fff"/>
    </g>
    <path id="パス_7554" data-name="パス 7554" d="M6,0H240a6,6,0,0,1,6,6V17H0V6A6,6,0,0,1,6,0Z" transform="translate(-2571 -363)" fill="#a1b8dd"/>
    <path id="パス_7555" data-name="パス 7555" d="M2,0H184a2,2,0,0,1,2,2V64a2,2,0,0,1-2,2H2a2,2,0,0,1-2-2V2A2,2,0,0,1,2,0Z" transform="translate(-2541 -326)" fill="#dee5f0"/>
    <g id="グループ_437" data-name="グループ 437" transform="translate(-58 98)">
      <circle id="楕円形_25-2" data-name="楕円形 25" cx="3.5" cy="3.5" r="3.5" transform="translate(-2503 -456)" fill="#ff7165"/>
      <circle id="楕円形_26-2" data-name="楕円形 26" cx="3.5" cy="3.5" r="3.5" transform="translate(-2493 -456)" fill="#fcdc71"/>
      <circle id="楕円形_27-2" data-name="楕円形 27" cx="3.5" cy="3.5" r="3.5" transform="translate(-2483 -456)" fill="#53e898"/>
    </g>
    <g id="グループ_438" data-name="グループ 438" transform="translate(-60.43 97.57)">
      <g id="グループ_271-2" data-name="グループ 271" transform="translate(-2478.109 -346.433)">
        <path id="パス_7416-2" data-name="パス 7416" d="M8.539,8.539A2.27,2.27,0,1,0,6.27,6.27,2.269,2.269,0,0,0,8.539,8.539Zm0,1.135c-1.515,0-4.539.76-4.539,2.27v1.135h9.079V11.944C13.079,10.434,10.054,9.674,8.539,9.674Z" transform="translate(-4 -4)" fill="#899bb7"/>
        <path id="パス_7417-2" data-name="パス 7417" d="M-2476.6-332.121h8.6v.915s-.7,1.443-4.317,1.375-4.053-1.532-4.053-1.532Z" transform="translate(2476.68 340.632)" fill="#899bb7"/>
      </g>
      <g id="楕円形_29-2" data-name="楕円形 29" transform="translate(-2480.57 -349.57)" fill="none" stroke="#e0e0e0" stroke-width="1">
        <circle cx="7" cy="7" r="7" stroke="none"/>
        <circle cx="7" cy="7" r="6.5" fill="none"/>
      </g>
    </g>
    <path id="パス_7556" data-name="パス 7556" d="M0,0H60V1H0Z" transform="translate(-2522 -249)" fill="#d8d1d1"/>
    <path id="パス_7557" data-name="パス 7557" d="M0,0H20V1H0Z" transform="translate(-2522 -242)" fill="#d8d1d1"/>
    <path id="パス_7558" data-name="パス 7558" d="M0,0H186V1H0Z" transform="translate(-2541 -168)" fill="#e2e0e0"/>
    <path id="パス_7559" data-name="パス 7559" d="M0,0H186V1H0Z" transform="translate(-2541 -158)" fill="#e2e0e0"/>
    <path id="パス_7560" data-name="パス 7560" d="M0,0H146V1H0Z" transform="translate(-2541 -148)" fill="#e2e0e0"/>
    <path id="パス_7561" data-name="パス 7561" d="M0,0H186V1H0Z" transform="translate(-2541 -138)" fill="#e2e0e0"/>
    <path id="パス_7562" data-name="パス 7562" d="M0,0H176V1H0Z" transform="translate(-2541 -128)" fill="#e2e0e0"/>
    <path id="パス_7563" data-name="パス 7563" d="M0,0H186V1H0Z" transform="translate(-2541 -118)" fill="#e2e0e0"/>
    <path id="パス_7564" data-name="パス 7564" d="M0,0H86V1H0Z" transform="translate(-2541 -108)" fill="#e2e0e0"/>
    <g id="グループ_439" data-name="グループ 439" transform="translate(-880 -967)">
      <g id="グループ_408" data-name="グループ 408" transform="translate(-2368 312)">
        <g transform="matrix(1, 0, 0, 1, 654.5, 249)" filter="url(#合体_1)">
          <path id="合体_1-2" data-name="合体 1" d="M3273.1,57.068l-11.854,4.367,4.4-11.94a31.5,31.5,0,1,1,7.454,7.573Z" transform="translate(-2717.5 15)" fill="#ffdc5f"/>
        </g>
        <g id="グループ_274" data-name="グループ 274" transform="translate(1212.907 281.251)">
          <path id="パス_84" data-name="パス 84" d="M10.71,4.886,8.473,2.65A16.3,16.3,0,0,0,2.03,14.927H5.158A13.208,13.208,0,0,1,10.71,4.886ZM30.087,14.927h3.128A16.4,16.4,0,0,0,26.772,2.65L24.551,4.886A13.286,13.286,0,0,1,30.087,14.927Z" transform="translate(-2.03 -2.415)" fill="#fff"/>
          <g id="グループ_277" data-name="グループ 277">
            <path id="長方形_238" data-name="長方形 238" d="M7,0H7a7,7,0,0,1,7,7v8a0,0,0,0,1,0,0H0a0,0,0,0,1,0,0V7A7,7,0,0,1,7,0Z" transform="translate(11.093 7.749)" fill="#fff"/>
            <path id="パス_86" data-name="パス 86" d="M16.512,33a3.137,3.137,0,0,0,3.128-3.128H13.384A3.137,3.137,0,0,0,16.512,33ZM25.9,23.613v-7.82c0-4.8-2.549-8.821-7.038-9.884V4.846a2.346,2.346,0,1,0-4.692,0V5.909c-4.473,1.063-7.038,5.067-7.038,9.884v7.82L4,26.741v1.564H29.023V26.741Zm-3.128,1.564H10.256V15.794c0-3.879,2.362-7.038,6.256-7.038s6.256,3.159,6.256,7.038Z" transform="translate(-0.872 -2.5)" fill="#5a5a5a"/>
          </g>
        </g>
      </g>
    </g>
    <g id="グループ_440" data-name="グループ 440" transform="translate(-3262 -559)">
      <rect id="長方形_220" data-name="長方形 220" width="196" height="1" transform="translate(1004 386)" fill="#e2e0e0"/>
      <rect id="長方形_222" data-name="長方形 222" width="196" height="1" transform="translate(1004 396)" fill="#e2e0e0"/>
      <rect id="長方形_224" data-name="長方形 224" width="156" height="1" transform="translate(1004 406)" fill="#e2e0e0"/>
      <rect id="長方形_226" data-name="長方形 226" width="196" height="1" transform="translate(1004 416)" fill="#e2e0e0"/>
      <rect id="長方形_228" data-name="長方形 228" width="181" height="1" transform="translate(1004 426)" fill="#e2e0e0"/>
      <rect id="長方形_236" data-name="長方形 236" width="177" height="9" transform="translate(1023 432)" fill="#ffbfbf"/>
      <rect id="長方形_237" data-name="長方形 237" width="88" height="9" transform="translate(1004 442)" fill="#ffbfbf"/>
      <rect id="長方形_230" data-name="長方形 230" width="196" height="1" transform="translate(1004 436)" fill="#e2e0e0"/>
      <rect id="長方形_232" data-name="長方形 232" width="86" height="1" transform="translate(1004 446)" fill="#e2e0e0"/>
    </g>
    <g id="グループ_441" data-name="グループ 441" transform="translate(-3274 -552)">
      <g transform="matrix(1, 0, 0, 1, 680.5, 146)" filter="url(#合体_2)">
        <path id="合体_2-2" data-name="合体 2" d="M3257,34.5a31.5,31.5,0,0,1,49.837-25.616l12.6-4.642-4.714,12.795A31.5,31.5,0,1,1,3257,34.5Z" transform="translate(-2992.5 300)" fill="#ffdc5f"/>
      </g>
      <g id="グループ_278" data-name="グループ 278" transform="translate(961 466)">
        <path id="パス_84-2" data-name="パス 84" d="M10.71,4.886,8.473,2.65A16.3,16.3,0,0,0,2.03,14.927H5.158A13.208,13.208,0,0,1,10.71,4.886ZM30.087,14.927h3.128A16.4,16.4,0,0,0,26.772,2.65L24.551,4.886A13.286,13.286,0,0,1,30.087,14.927Z" transform="translate(-2.03 -2.415)" fill="#fff"/>
        <g id="グループ_277-2" data-name="グループ 277">
          <path id="長方形_238-2" data-name="長方形 238" d="M7,0H7a7,7,0,0,1,7,7v9a0,0,0,0,1,0,0H0a0,0,0,0,1,0,0V7A7,7,0,0,1,7,0Z" transform="translate(11.093 7.749)" fill="#fff"/>
          <path id="パス_86-2" data-name="パス 86" d="M16.512,33a3.137,3.137,0,0,0,3.128-3.128H13.384A3.137,3.137,0,0,0,16.512,33ZM25.9,23.613v-7.82c0-4.8-2.549-8.821-7.038-9.884V4.846a2.346,2.346,0,1,0-4.692,0V5.909c-4.473,1.063-7.038,5.067-7.038,9.884v7.82L4,26.741v1.564H29.023V26.741Zm-3.128,1.564H10.256V15.794c0-3.879,2.362-7.038,6.256-7.038s6.256,3.159,6.256,7.038Z" transform="translate(-0.872 -2.5)" fill="#5a5a5a"/>
        </g>
      </g>
    </g>
    <g transform="matrix(1, 0, 0, 1, -2593.5, -406)" filter="url(#パス_7565)">
      <path id="パス_7565-2" data-name="パス 7565" d="M13.5,0,27,14H0Z" transform="translate(295.5 173) rotate(90)" fill="#ffdc5f"/>
    </g>
    <path id="パス_7566" data-name="パス 7566" d="M11.424,5.112a12.463,12.463,0,0,1,1.75.1V3.432a11.658,11.658,0,0,1-1.764.1H7.7c.014-.518.028-.84.028-1.414a10.429,10.429,0,0,1,.1-1.638H5.978a9.354,9.354,0,0,1,.1,1.4c0,.728-.014.952-.042,1.652H2.6a11.065,11.065,0,0,1-1.764-.1V5.21a10.639,10.639,0,0,1,1.75-.1h3.3a7.116,7.116,0,0,1-3.15,5.278A10.048,10.048,0,0,1,.476,11.58a5.5,5.5,0,0,1,.98,1.47,10.377,10.377,0,0,0,3.346-2.2A8.463,8.463,0,0,0,7.084,7.1,10.508,10.508,0,0,0,9.2,10.488a11.362,11.362,0,0,0,3.458,2.562,5.765,5.765,0,0,1,1.022-1.61A9.77,9.77,0,0,1,9.814,8.78,9.776,9.776,0,0,1,7.8,5.112ZM20.062.422A9.158,9.158,0,0,1,20.118,1.6c0,3.36-.756,5.656-2.562,7.728A9.332,9.332,0,0,1,14.5,11.664,4.188,4.188,0,0,1,15.6,13.106a11.808,11.808,0,0,0,2.17-1.61,9.747,9.747,0,0,0,2.156-2.688A10.018,10.018,0,0,0,21.014,5.98,11.068,11.068,0,0,0,22.876,9.8a13.628,13.628,0,0,0,3.556,3.3,5.209,5.209,0,0,1,1.092-1.554,9.323,9.323,0,0,1-2.17-1.512,9.384,9.384,0,0,1-2.212-2.66A10.049,10.049,0,0,1,21.77,1.864a9.262,9.262,0,0,1,.1-1.442ZM38.976,2.7a14.558,14.558,0,0,1,1.75.084V1.136a11.333,11.333,0,0,1-1.75.1H32.522c.364-.742.364-.742.49-.98L31.332,0a2.564,2.564,0,0,1-.308.882A10.174,10.174,0,0,1,28.49,4.048,5.76,5.76,0,0,1,29.582,5.14,13.1,13.1,0,0,0,31.668,2.7Zm-1.568,8.918c-.882-.784-1.582-1.358-2.436-2.03a11.562,11.562,0,0,0,.91-1.162c.308-.42.462-.63.6-.784l-1.5-.714a5.113,5.113,0,0,1-1.218,1.792c-.994-.672-1.456-.966-2.478-1.554l-1.022.938A24.589,24.589,0,0,1,32.7,9.7a15.633,15.633,0,0,1-3.878,2.128,5.369,5.369,0,0,1,1.05,1.316,17.138,17.138,0,0,0,4.046-2.52,30.7,30.7,0,0,1,2.436,2.156Zm.322-4.844a12.967,12.967,0,0,0,.644,4.522c.392,1.064,1.106,1.792,1.736,1.792.854,0,1.288-.9,1.512-3.094a4.188,4.188,0,0,1-1.2-.84,4.617,4.617,0,0,1-.336,2.072,1.807,1.807,0,0,1-.49-.952,13.772,13.772,0,0,1-.392-3.6,9.584,9.584,0,0,1,.07-1.274,14.339,14.339,0,0,1-1.638.056H30.52a6.917,6.917,0,0,1-1.2-.07v1.47a11.81,11.81,0,0,1,1.61-.084ZM31.262,4.692a11.634,11.634,0,0,1,1.33-.056h5.586a10.448,10.448,0,0,1,1.484.07V3.32a11.717,11.717,0,0,1-1.484.07H32.312a8.82,8.82,0,0,1-1.05-.056Zm18.83-1.666a3.06,3.06,0,0,1,1.414.42,3.468,3.468,0,0,1,1.722,3.108,3.92,3.92,0,0,1-1.946,3.5,7.44,7.44,0,0,1-2.786.77,4.466,4.466,0,0,1,.854,1.638,9.153,9.153,0,0,0,2.2-.588,5.393,5.393,0,0,0,3.4-5.222c0-3.15-2.184-5.194-5.544-5.194a6.285,6.285,0,0,0-4.816,1.96,6.014,6.014,0,0,0-1.54,4.074c0,2.254,1.148,3.878,2.744,3.878,1.148,0,2.044-.826,2.842-2.632A20.254,20.254,0,0,0,50.092,3.026Zm-1.708.014a18.451,18.451,0,0,1-1.162,4.732c-.5,1.2-.98,1.792-1.442,1.792-.616,0-1.106-.91-1.106-2.058a4.687,4.687,0,0,1,1.9-3.78A3.564,3.564,0,0,1,48.384,3.04ZM61.068,6.456a6.958,6.958,0,0,1-.084.812A5.417,5.417,0,0,1,59.15,10.46a6.606,6.606,0,0,1-2.17,1.288A4.969,4.969,0,0,1,58,13.12a8.109,8.109,0,0,0,3.556-3.08A7.449,7.449,0,0,0,62.65,6.456h2.688v.812a13.753,13.753,0,0,1-.434,3.724c-.126.21-.28.266-.8.266a11.509,11.509,0,0,1-1.694-.182,6.013,6.013,0,0,1,.42,1.638c.938.042,1.162.056,1.442.056,1.246,0,1.75-.2,2.058-.812a19.093,19.093,0,0,0,.588-5.852V5.63A14.277,14.277,0,0,0,68.656,7.1,6.518,6.518,0,0,1,69.72,5.588a10.857,10.857,0,0,1-3.878-4.06A5.232,5.232,0,0,1,65.3.31l-1.554.6a5.744,5.744,0,0,1,.294.588,14,14,0,0,0,2.31,3.514c-.336.014-.532.014-.868.014H60.326A7.236,7.236,0,0,1,59.6,5a15.571,15.571,0,0,0,2.254-3.4A3.959,3.959,0,0,1,62.23.884l-1.68-.6A4.352,4.352,0,0,1,59.99,1.7a10.794,10.794,0,0,1-3.682,4.018,4.867,4.867,0,0,1,1.078,1.372,13.918,13.918,0,0,0,1.75-1.554v.994a9.728,9.728,0,0,1,1.19-.07Zm15.9,5.208c-.6.084-1.008.126-1.344.14l.154,1.33a3.84,3.84,0,0,1,.6-.1c.35-.07.35-.07,1.2-.224a20.421,20.421,0,0,0,2.646-.644l-.014-1.176a5.391,5.391,0,0,0,.882.91,8.191,8.191,0,0,0,1.82,1.19,6.544,6.544,0,0,1,.8-1.344,6.317,6.317,0,0,1-2.072-1.12,12.752,12.752,0,0,0,1.484-1.26l-.91-.672a6.167,6.167,0,0,1,1.12.07V7.534a10.072,10.072,0,0,1-1.386.056h-.742V6.946h.42A9.048,9.048,0,0,1,82.922,7V5.854a8.427,8.427,0,0,1-1.288.056h-.42V5.28h.518a8.681,8.681,0,0,1,1.358.07v-1.2a8.121,8.121,0,0,1-1.386.07h-.49a6.65,6.65,0,0,1,.042-.756,12.172,12.172,0,0,0,1.652.518A7.382,7.382,0,0,1,83.5,2.942a9,9,0,0,1-2.408-.728h.728a11.489,11.489,0,0,1,1.47.07V.94a8.715,8.715,0,0,1-1.5.084H79.814V.94a4,4,0,0,1,.07-.8H78.3a4.869,4.869,0,0,1,.056.8v.084H76.832a11,11,0,0,1-1.456-.07V2.27a9.753,9.753,0,0,1,1.106-.056h.672a7.03,7.03,0,0,1-2.044.826v-.5a7.064,7.064,0,0,1-1.092.056H71.652a5.745,5.745,0,0,1-1.092-.07V3.964a7.921,7.921,0,0,1,1.092-.056h2.366a9.907,9.907,0,0,1,1.092.042V3.264a2.988,2.988,0,0,1,.616.756A11.42,11.42,0,0,0,77,3.516c.014.168.028.364.042.7h-.434a10.153,10.153,0,0,1-1.176-.042V5.336a7.414,7.414,0,0,1,1.162-.056h.448v.63h-.126a9.158,9.158,0,0,1-1.176-.056V7a8.75,8.75,0,0,1,1.176-.056h.126V7.59H76.5a12.887,12.887,0,0,1-1.288-.042v1.2A7.843,7.843,0,0,1,76.4,8.7h.686A5.466,5.466,0,0,1,74.83,9.984V9.578a6.867,6.867,0,0,1,.042-1.064A6.4,6.4,0,0,1,74,8.556H71.89c-.42,0-.63-.014-.966-.042a9.639,9.639,0,0,1,.056,1.162v2.1a13.089,13.089,0,0,1-.07,1.358h1.372v-.672H73.6V12.9h1.274c-.014-.21-.042-.672-.042-.98V10.4a4.623,4.623,0,0,1,.5.8,12.067,12.067,0,0,0,1.638-.966Zm1.26-2.52A3.987,3.987,0,0,0,78.61,8.7h.434a7.213,7.213,0,0,0,1.176,2.282c-1.344.336-1.344.336-1.988.462ZM79.926,7.59h-1.6V6.946h1.6Zm0-1.68h-1.6V5.28h1.6Zm-1.6-1.694a5.252,5.252,0,0,1,.056-.8H77.224A7.335,7.335,0,0,0,78.47,2.69L77.9,2.214h2.3l-.448.49a8.175,8.175,0,0,0,1.386.714H79.87a3.891,3.891,0,0,1,.056.8Zm3.7,4.48a4.453,4.453,0,0,1-1.134,1.092A4.277,4.277,0,0,1,80.3,8.7ZM72.24,9.774H73.6V11.23H72.24ZM70.994,1.99a8.732,8.732,0,0,1,1.134-.056H73.71a8.329,8.329,0,0,1,1.134.056V.562a6.336,6.336,0,0,1-1.134.07H72.128a6.336,6.336,0,0,1-1.134-.07Zm.056,3.948a5.553,5.553,0,0,1,.9-.042h1.988a5.189,5.189,0,0,1,.868.042V4.622a4.851,4.851,0,0,1-.868.042H71.946a7.506,7.506,0,0,1-.9-.042Zm0,1.96a5.37,5.37,0,0,1,.882-.042h1.974a7.346,7.346,0,0,1,.9.042V6.582a4.934,4.934,0,0,1-.868.042H71.946a7.506,7.506,0,0,1-.9-.042ZM86.786,6.274a22.6,22.6,0,0,1,2.8,2.7,23.047,23.047,0,0,1,2.7,3.528l1.47-1.176c-.728-.994-1.26-1.666-1.848-2.338a21.654,21.654,0,0,0,4.522-5.306,4.371,4.371,0,0,1,.616-.826l-.98-1.106a3.666,3.666,0,0,1-1.162.112l-7.784.014a10.211,10.211,0,0,1-1.82-.1V3.558a15.184,15.184,0,0,1,1.792-.07h6.678c.294,0,.5-.014.644-.028a.359.359,0,0,0-.028.07.982.982,0,0,0-.084.126A18.517,18.517,0,0,1,92.6,5.938,17.193,17.193,0,0,1,90.762,7.7c-.1-.084-.1-.084-.868-.868-.574-.56-.994-.938-1.736-1.554ZM99.708,3.012a14.7,14.7,0,0,1,3.57,2.842l1.2-1.526a19.828,19.828,0,0,0-3.612-2.7Zm.49,9.24a4.956,4.956,0,0,1,.924-.238,15.122,15.122,0,0,0,5.334-2.1,12.287,12.287,0,0,0,4.438-5.488,6.037,6.037,0,0,1-1.484-1.372,11.691,11.691,0,0,1-1.428,2.8,9.354,9.354,0,0,1-4.158,3.43A13.34,13.34,0,0,1,99.68,10.32ZM114.674,2.3a16.437,16.437,0,0,1,3.738,1.932l.9-1.54A22.45,22.45,0,0,0,115.584.884Zm-1.106,3.4a16.374,16.374,0,0,1,3.794,2.058l.868-1.582a19.792,19.792,0,0,0-3.724-1.9Zm.8,6.748a9.043,9.043,0,0,1,.98-.224c3.444-.686,5.824-1.932,7.6-3.976a12.221,12.221,0,0,0,2.1-3.542,7.229,7.229,0,0,1-1.456-1.246,10.358,10.358,0,0,1-1.624,3.094,8.558,8.558,0,0,1-4.046,3.08,12.813,12.813,0,0,1-4.046.91Zm21-.224v.658h1.61a7,7,0,0,1-.056-1.064V5.406c0-.616.014-.966.042-1.47a12.233,12.233,0,0,1-1.3.056h-5.516a6.385,6.385,0,0,1-1.26-.1V5.448a9.1,9.1,0,0,1,1.26-.056h5.236V7.338h-4.872a6.292,6.292,0,0,1-1.26-.1V8.766a8.839,8.839,0,0,1,1.26-.056h4.872v2.114H130a6.385,6.385,0,0,1-1.26-.1V12.28a8.839,8.839,0,0,1,1.26-.056Zm6.342-9.212a14.7,14.7,0,0,1,3.57,2.842l1.2-1.526a19.828,19.828,0,0,0-3.612-2.7Zm.49,9.24a4.956,4.956,0,0,1,.924-.238,15.122,15.122,0,0,0,5.334-2.1,12.287,12.287,0,0,0,4.438-5.488,6.037,6.037,0,0,1-1.484-1.372,11.69,11.69,0,0,1-1.428,2.8,9.354,9.354,0,0,1-4.158,3.43,13.34,13.34,0,0,1-4.144,1.036ZM153.51,9.9a15.069,15.069,0,0,1,3.038,3.192l1.3-1.218a16.364,16.364,0,0,0-3.15-3.08Zm20.706-6.944a6.724,6.724,0,0,1-1.2-.07V4.4a8.269,8.269,0,0,1,1.344-.07h1.316v1.4h-1.064a7.836,7.836,0,0,1-1.274-.07V7.114a7.527,7.527,0,0,1,1.274-.07h1.064V8.612h-1.288a10.35,10.35,0,0,1-1.47-.07v1.526A10.373,10.373,0,0,1,174.37,10h1.3v1.484a14.169,14.169,0,0,1-.084,1.666h1.694a14.945,14.945,0,0,1-.084-1.68V10h1.848a10.449,10.449,0,0,1,1.428.084V8.542a11.392,11.392,0,0,1-1.456.07H177.2V7.044h1.386a7.783,7.783,0,0,1,1.316.07V5.658a7.668,7.668,0,0,1-1.33.07H177.2v-1.4h1.666a8.539,8.539,0,0,1,1.386.07V2.886a7.243,7.243,0,0,1-1.26.07h-.616A24.38,24.38,0,0,0,179.55.772L178.038.226a14.679,14.679,0,0,1-1.218,2.73ZM168.112,2a9.158,9.158,0,0,1,1.176-.056h1.974A9.02,9.02,0,0,1,172.438,2V.6a6.759,6.759,0,0,1-1.176.07h-1.974A6.759,6.759,0,0,1,168.112.6Zm-.448,2.03a8.367,8.367,0,0,1,1.12-.056h2.87a8.988,8.988,0,0,1,1.064.042V2.592a7.365,7.365,0,0,1-1.12.056h-2.814a6.167,6.167,0,0,1-1.12-.07Zm.5,1.988a5.838,5.838,0,0,1,.924-.042h2.464a5.554,5.554,0,0,1,.9.042V4.748a5.2,5.2,0,0,1-.9.042h-2.464a7.872,7.872,0,0,1-.924-.042Zm0,1.946a5.65,5.65,0,0,1,.91-.042h2.45a8.039,8.039,0,0,1,.924.042V6.694a5.2,5.2,0,0,1-.9.042h-2.464a7.872,7.872,0,0,1-.924-.042ZM169.5,13.2v-.658h1.61v.476h1.386a8.744,8.744,0,0,1-.056-1.092V9.676a8.853,8.853,0,0,1,.042-1.008,5.233,5.233,0,0,1-.952.042H169.12a8.657,8.657,0,0,1-1.078-.056,7,7,0,0,1,.07,1.106v2.086a10.4,10.4,0,0,1-.084,1.358Zm-.042-3.29h1.652v1.4h-1.652Zm6.482-7.6A10.93,10.93,0,0,0,174.832.24l-1.288.6a10.028,10.028,0,0,1,1.05,2.086ZM.7,27.576a3.679,3.679,0,0,1,.714-.084c.406-.014.588-.028,1.3-.07v4.256a10.482,10.482,0,0,1-.084,1.484H4.158a8.175,8.175,0,0,1-.084-1.47V27.324c.364-.028.518-.056,1.008-.112a5.819,5.819,0,0,1,.112.6l1.022-.434V31.4a14.169,14.169,0,0,1-.084,1.666H7.6v-.8h3.934v.784H13.09a11.031,11.031,0,0,1-.084-1.736V22.62c0-.826.014-1.288.056-1.764a15.649,15.649,0,0,1-1.722.056H7.784c-.77,0-1.148-.014-1.624-.056.028.462.056.952.056,1.624v4.312a17.75,17.75,0,0,0-.8-2.24l-1.078.462c.21.5.28.686.392.994-.826.07-.826.07-1.568.112.588-.756,1.512-2.072,2.044-2.884a7.88,7.88,0,0,1,.56-.812l-1.316-.672a12.071,12.071,0,0,1-1.274,2.282c-.28-.35-.28-.35-.546-.672.392-.6.756-1.246,1.134-1.96.238-.462.28-.56.406-.77l-1.372-.5A8.887,8.887,0,0,1,1.778,22.4l-.49-.546L.56,23.082a18.161,18.161,0,0,1,1.848,2.1c-.322.448-.378.532-.742,1.008h-.49a4.461,4.461,0,0,1-.63-.042ZM7.56,22.3H8.89v3.486H7.56Zm2.674.014h1.344V25.8H10.234ZM7.56,27.156H8.89v3.752H7.56Zm2.674.014h1.344v3.738H10.234Zm-9.212.924v.28A11.365,11.365,0,0,1,.91,29.928,8.46,8.46,0,0,1,.5,31.9l1.274.532a19.194,19.194,0,0,0,.476-4.2Zm3.36.21a21.571,21.571,0,0,1,.406,3.388l1.134-.308a19.974,19.974,0,0,0-.476-3.346Zm14.63-3.346a.246.246,0,0,1,.084-.014.643.643,0,0,1,.14.014,2.085,2.085,0,0,1,.238.014c.07,0,.224.014.42.014.658.056,1.218.07,1.736.07.364,0,.7-.014,1.26-.028.056,1.946.07,2.632.112,2.982a3.328,3.328,0,0,0-1.246-.2c-1.694,0-2.884.952-2.884,2.31,0,1.428,1.12,2.3,2.954,2.3,1.358,0,2.338-.49,2.66-1.316a2.449,2.449,0,0,0,.112-.784v-.2c.084.056.406.266.882.574a5.245,5.245,0,0,1,1.05.9L27.2,29.9a2.664,2.664,0,0,1-.392-.238,11.162,11.162,0,0,0-2.2-1.274c-.14-2.352-.14-2.38-.14-3.164v-.308c.742-.084,1.47-.21,1.946-.308a2.419,2.419,0,0,1,.406-.07l-.056-1.582-.112.028c-.224.084-.224.084-.308.112a14.075,14.075,0,0,1-1.89.336v-.644a13.7,13.7,0,0,1,.1-2.058l-1.75.042a3.916,3.916,0,0,1,.042.672c0,.574.014,1.274.014,2.1-.49.028-.8.028-1.288.028a10.089,10.089,0,0,1-2.534-.224Zm4.018,4.48v.378a1.175,1.175,0,0,1-.182.756,1.376,1.376,0,0,1-1.134.434c-.784,0-1.288-.35-1.288-.868,0-.574.56-.924,1.456-.924A2.931,2.931,0,0,1,23.03,29.438ZM17.556,32.42a2.743,2.743,0,0,1-.028-.378,11.681,11.681,0,0,1,1.386-4.284l-1.162-.518a2.668,2.668,0,0,1-.168.434c-.14.336-.14.336-.266.63-.07.224-.14.378-.168.476-.1.252-.1.252-.168.406h-.014a2.383,2.383,0,0,0,.014-.294v-.224c0-.224,0-.224.014-.728a22.5,22.5,0,0,1,1.12-7.028l-1.89-.2v.056a7.515,7.515,0,0,1-.154,1.036c-.308,1.582-.308,1.582-.378,2a25.024,25.024,0,0,0-.266,3.71,26.549,26.549,0,0,0,.378,4.452,5.11,5.11,0,0,1,.07.546Zm20.076-6.776V29.4a9.532,9.532,0,0,1-.084,1.5h1.68a9.29,9.29,0,0,1-.084-1.5V25.644h.812c.518,0,.952.028,1.386.07V24.132a10.4,10.4,0,0,1-1.442.07H35.266v-1.47a23.186,23.186,0,0,0,5.712-1.148l-1.148-1.33a4.533,4.533,0,0,1-1.148.448,21.879,21.879,0,0,1-4.522.714c-.084,0-.112,0-.434-.014.042.42.07.994.07,2.016,0,3.57-.308,5.04-1.316,6.286a7.371,7.371,0,0,1,1.2,1.134,8.429,8.429,0,0,0,1.54-5.194ZM28.84,21.528a14.079,14.079,0,0,1,2.408,2.646l1.162-1.12a16.729,16.729,0,0,0-2.436-2.562Zm-.182,5.67a5.609,5.609,0,0,1,.966-.07h.938v2.856a9.57,9.57,0,0,1-1.89,1.344.9.9,0,0,0-.224.1l.686,1.638a1.156,1.156,0,0,1,.266-.2,16.474,16.474,0,0,0,1.9-1.582c1.134,1.288,2.142,1.6,5.306,1.6,1.036,0,3.64-.056,4.732-.112a6.466,6.466,0,0,1,.42-1.624,42.874,42.874,0,0,1-5.18.252c-2.114,0-2.9-.1-3.458-.42a2.62,2.62,0,0,1-1.106-1.022V27.142a14.568,14.568,0,0,1,.056-1.54,6.366,6.366,0,0,1-1.064.07H29.778a6.454,6.454,0,0,1-1.12-.07Zm15.484,4.116a14.685,14.685,0,0,1-.084,1.694h1.666v-.84h6.51v.84h1.694a14.183,14.183,0,0,1-.084-1.694V22.27a12.65,12.65,0,0,1,.07-1.428,11.265,11.265,0,0,1-1.512.07H45.626a12.359,12.359,0,0,1-1.554-.07c.042.462.07.952.07,1.5ZM45.724,22.4h6.51v3.248h-6.51Zm0,4.718h6.51V30.7h-6.51Zm23.1,5.138a35.907,35.907,0,0,0-3.43-5.222l-1.372.77A20.884,20.884,0,0,1,65.8,30.292a43.3,43.3,0,0,1-5.068.462,44.158,44.158,0,0,0,2.618-5.39c.14-.336.2-.448.28-.616l-1.848-.476a11.266,11.266,0,0,1-.812,2.408,36.847,36.847,0,0,1-2.058,4.144c-.392.014-.476.014-.8.014-.392,0-.714-.014-1.022-.042l.28,1.792a10.448,10.448,0,0,1,1.638-.154,72.88,72.88,0,0,0,7.574-.77c.252.476.378.714.728,1.47Zm-8.288-11.7a5.261,5.261,0,0,1-.742,1.736A11.151,11.151,0,0,1,56.336,25.9,6.516,6.516,0,0,1,57.4,27.352a14.613,14.613,0,0,0,2.156-2.016,16.3,16.3,0,0,0,2.324-3.43,2.16,2.16,0,0,1,.182-.364,1.231,1.231,0,0,0,.07-.14,2.047,2.047,0,0,1,.126-.21Zm3.192.644.112.224a2.461,2.461,0,0,1,.14.28c.07.154.126.252.154.322a14.509,14.509,0,0,0,1.288,2.114,14.955,14.955,0,0,0,3.234,3.234,7.062,7.062,0,0,1,1.036-1.54,13.653,13.653,0,0,1-1.33-.952,11.6,11.6,0,0,1-1.54-1.582,9.046,9.046,0,0,1-1.554-2.758ZM74.8,28.3a12.679,12.679,0,0,1-1.456-.056v1.288a9.747,9.747,0,0,1,1.484-.07,3.4,3.4,0,0,1-1.5,2.492,6.328,6.328,0,0,1,1.12.966,5.033,5.033,0,0,0,1.694-3.458h1.568v2.058a6.535,6.535,0,0,1-.07,1.2h1.47a6,6,0,0,1-.07-1.19V29.466h.21a10.037,10.037,0,0,1,1.442.07V28.248a12.558,12.558,0,0,1-1.442.056h-.21V27.016a12.679,12.679,0,0,1,1.456.056v-1.26a9.9,9.9,0,0,1-1.456.07h-4.06a9.383,9.383,0,0,1-1.414-.07v1.26a12.2,12.2,0,0,1,1.4-.056c0,.644,0,.8-.028,1.288Zm2.912-1.288V28.3h-1.47c.028-.658.028-.658.028-1.288ZM72.6,25.224h2.6c.49,0,.924.014,1.288.042-.028-.364-.042-.63-.042-1.26V21.85c0-.49.014-.9.042-1.3a11.829,11.829,0,0,1-1.428.056H72.52a12.716,12.716,0,0,1-1.442-.056,15.521,15.521,0,0,1,.056,1.568v9.24a12.377,12.377,0,0,1-.084,1.736h1.638a12.322,12.322,0,0,1-.084-1.708Zm0-3.57h2.478V22.4H72.6Zm0,1.736h2.478v.756H72.6Zm10.3-1.288c0-.7.014-1.036.056-1.554a12.559,12.559,0,0,1-1.442.056H78.848a12.131,12.131,0,0,1-1.428-.056c.028.406.042.77.042,1.3v2.156c0,.63,0,.854-.028,1.26.336-.028.784-.042,1.274-.042h2.744v5.95c0,.308-.084.364-.532.364a10,10,0,0,1-1.288-.112,5.025,5.025,0,0,1,.378,1.484c.462.028.658.028.91.028,1.568,0,1.988-.322,1.988-1.568Zm-4.06-.448h2.6V22.4h-2.6Zm0,1.736h2.6v.756h-2.6Zm8.092,4.97a2.373,2.373,0,1,0,2.366,2.366A2.372,2.372,0,0,0,86.94,28.36Zm0,1.092a1.281,1.281,0,1,1-1.274,1.274A1.279,1.279,0,0,1,86.94,29.452Z" transform="translate(-2541 -220)" fill="#444"/>
    <g id="グループ_442" data-name="グループ 442" transform="translate(-869 -946)">
      <path id="パス_7502" data-name="パス 7502" d="M0,9.752,29.256,0V59H0Z" transform="translate(-1597 627)" fill="#f7f9fd"/>
      <path id="パス_7503" data-name="パス 7503" d="M15.116,9.752,0,0V59H15.116Z" transform="translate(-1568 627)" fill="#c7d4e6"/>
    </g>
    <path id="パス_7567" data-name="パス 7567" d="M9.9-5.265,13.386-4.21a6.434,6.434,0,0,1-1.107,2.452A4.806,4.806,0,0,1,10.4-.272a7.019,7.019,0,0,1-2.852.5A8.276,8.276,0,0,1,4.118-.382a5.442,5.442,0,0,1-2.3-2.149A7.287,7.287,0,0,1,.853-6.469a6.7,6.7,0,0,1,1.7-4.917A6.469,6.469,0,0,1,7.365-13.1a6.534,6.534,0,0,1,3.828.984A5.783,5.783,0,0,1,13.263-9.1l-3.516.782a3.012,3.012,0,0,0-.387-.861,2.29,2.29,0,0,0-.817-.7,2.348,2.348,0,0,0-1.081-.246,2.337,2.337,0,0,0-2.074,1.09A4.634,4.634,0,0,0,4.843-6.5a4.831,4.831,0,0,0,.65,2.94,2.229,2.229,0,0,0,1.828.8A2.219,2.219,0,0,0,9.048-3.4,3.968,3.968,0,0,0,9.9-5.265Zm4.746.624a4.67,4.67,0,0,1,1.441-3.52,5.386,5.386,0,0,1,3.894-1.384,5.347,5.347,0,0,1,4.236,1.626,4.711,4.711,0,0,1,1.151,3.226,4.684,4.684,0,0,1-1.428,3.529A5.459,5.459,0,0,1,19.986.211,5.543,5.543,0,0,1,16.348-.932,4.587,4.587,0,0,1,14.643-4.641Zm3.586-.009A2.817,2.817,0,0,0,18.734-2.8a1.594,1.594,0,0,0,1.27.6,1.587,1.587,0,0,0,1.27-.589,2.913,2.913,0,0,0,.5-1.89,2.751,2.751,0,0,0-.5-1.806,1.56,1.56,0,0,0-1.239-.593,1.62,1.62,0,0,0-1.292.6A2.786,2.786,0,0,0,18.229-4.649Zm8.886-4.685h3.34v1.362a4.66,4.66,0,0,1,1.455-1.213,3.986,3.986,0,0,1,1.771-.36,3.387,3.387,0,0,1,1.767.4A2.942,2.942,0,0,1,36.51-7.972a5.391,5.391,0,0,1,1.538-1.244,3.982,3.982,0,0,1,1.714-.33,3.074,3.074,0,0,1,2.347.892,3.95,3.95,0,0,1,.844,2.791V0H39.366V-5.317a1.491,1.491,0,0,0-.246-.94,1.082,1.082,0,0,0-.9-.483,1.27,1.27,0,0,0-1.02.457,2.257,2.257,0,0,0-.387,1.468V0H33.231V-5.142a3.232,3.232,0,0,0-.07-.835,1.138,1.138,0,0,0-.4-.567,1.053,1.053,0,0,0-.659-.215,1.267,1.267,0,0,0-1.011.466,2.358,2.358,0,0,0-.4,1.529V0H27.114ZM45.22-12.885H48.8v2.435H45.22Zm0,3.551H48.8V0H45.22Zm5.862,0h3.331v1.521a4.959,4.959,0,0,1,1.512-1.332,3.98,3.98,0,0,1,1.863-.4,3.053,3.053,0,0,1,2.325.883,3.843,3.843,0,0,1,.839,2.729V0H57.357V-5.133a1.868,1.868,0,0,0-.325-1.244,1.161,1.161,0,0,0-.914-.365,1.3,1.3,0,0,0-1.055.492,2.865,2.865,0,0,0-.4,1.767V0H51.082Zm18.5,0h3.349V-.519l.009.413a3.892,3.892,0,0,1-.374,1.674,3.524,3.524,0,0,1-.993,1.288A3.9,3.9,0,0,1,70,3.568a9.779,9.779,0,0,1-2.184.22q-2.812,0-3.863-.844A2.749,2.749,0,0,1,62.9.686q0-.176.018-.475l3.472.4a1.128,1.128,0,0,0,.4.668,1.711,1.711,0,0,0,.993.272,1.5,1.5,0,0,0,1.156-.413,2.12,2.12,0,0,0,.382-1.441V-1.723a3.723,3.723,0,0,1-1.055.905,3.741,3.741,0,0,1-1.784.439,3.538,3.538,0,0,1-3.023-1.635,5.221,5.221,0,0,1-.817-3.067A4.731,4.731,0,0,1,63.7-8.4a3.58,3.58,0,0,1,2.76-1.143,3.869,3.869,0,0,1,1.8.369,3.913,3.913,0,0,1,1.323,1.222ZM66.217-4.808a2.216,2.216,0,0,0,.431,1.5,1.439,1.439,0,0,0,1.134.488A1.444,1.444,0,0,0,68.9-3.327a2.226,2.226,0,0,0,.453-1.525,2.294,2.294,0,0,0-.475-1.56,1.487,1.487,0,0,0-1.16-.541,1.345,1.345,0,0,0-1.094.5A2.608,2.608,0,0,0,66.217-4.808Zm14.423.545L84.428-4.5a2.89,2.89,0,0,0,.5,1.406,2.105,2.105,0,0,0,1.758.782A1.946,1.946,0,0,0,88-2.711a1.2,1.2,0,0,0,.461-.927,1.183,1.183,0,0,0-.439-.9,5.089,5.089,0,0,0-2.039-.747,8.667,8.667,0,0,1-3.735-1.564,3.146,3.146,0,0,1-1.125-2.487A3.378,3.378,0,0,1,81.7-11.21,3.819,3.819,0,0,1,83.43-12.6,8.084,8.084,0,0,1,86.6-13.1a6.48,6.48,0,0,1,3.766.918,3.965,3.965,0,0,1,1.542,2.922l-3.753.22a2.017,2.017,0,0,0-.628-1.266,2.018,2.018,0,0,0-1.323-.4,1.6,1.6,0,0,0-1.046.294.9.9,0,0,0-.352.716.717.717,0,0,0,.29.554,3.263,3.263,0,0,0,1.336.475,16.713,16.713,0,0,1,3.74,1.138A3.931,3.931,0,0,1,91.815-6.1a3.621,3.621,0,0,1,.514,1.907,4.085,4.085,0,0,1-.686,2.285A4.29,4.29,0,0,1,89.728-.321a7.742,7.742,0,0,1-3.1.541q-3.287,0-4.553-1.266A4.992,4.992,0,0,1,80.64-4.263Zm13.017-.378A4.67,4.67,0,0,1,95.1-8.161a5.386,5.386,0,0,1,3.894-1.384,5.347,5.347,0,0,1,4.236,1.626,4.711,4.711,0,0,1,1.151,3.226,4.684,4.684,0,0,1-1.428,3.529A5.459,5.459,0,0,1,99,.211,5.543,5.543,0,0,1,95.361-.932,4.587,4.587,0,0,1,93.656-4.641Zm3.586-.009A2.817,2.817,0,0,0,97.748-2.8a1.594,1.594,0,0,0,1.27.6,1.587,1.587,0,0,0,1.27-.589,2.913,2.913,0,0,0,.5-1.89,2.751,2.751,0,0,0-.5-1.806,1.56,1.56,0,0,0-1.239-.593,1.62,1.62,0,0,0-1.292.6A2.786,2.786,0,0,0,97.242-4.649Zm8.42.009a4.67,4.67,0,0,1,1.441-3.52A5.386,5.386,0,0,1,111-9.545a5.347,5.347,0,0,1,4.236,1.626,4.711,4.711,0,0,1,1.151,3.226,4.684,4.684,0,0,1-1.428,3.529A5.459,5.459,0,0,1,111.006.211a5.543,5.543,0,0,1-3.639-1.143A4.587,4.587,0,0,1,105.662-4.641Zm3.586-.009a2.817,2.817,0,0,0,.505,1.846,1.594,1.594,0,0,0,1.27.6,1.587,1.587,0,0,0,1.27-.589,2.913,2.913,0,0,0,.5-1.89,2.751,2.751,0,0,0-.5-1.806,1.56,1.56,0,0,0-1.239-.593,1.62,1.62,0,0,0-1.292.6A2.786,2.786,0,0,0,109.248-4.649Zm8.859-4.685h3.331v1.521a4.959,4.959,0,0,1,1.512-1.332,3.98,3.98,0,0,1,1.863-.4,3.053,3.053,0,0,1,2.325.883,3.843,3.843,0,0,1,.839,2.729V0h-3.595V-5.133a1.868,1.868,0,0,0-.325-1.244,1.161,1.161,0,0,0-.914-.365,1.3,1.3,0,0,0-1.055.492,2.865,2.865,0,0,0-.4,1.767V0h-3.577Z" transform="translate(-2512 -286)" fill="#b1bdd3"/>
    <path id="パス_7568" data-name="パス 7568" d="M12.24,5.62a13.353,13.353,0,0,1,1.875.105V3.82a12.49,12.49,0,0,1-1.89.1H8.25c.015-.555.03-.9.03-1.515A11.174,11.174,0,0,1,8.385.655H6.4a10.022,10.022,0,0,1,.105,1.5c0,.78-.015,1.02-.045,1.77H2.79A11.855,11.855,0,0,1,.9,3.82V5.725A11.4,11.4,0,0,1,2.775,5.62h3.54A7.625,7.625,0,0,1,2.94,11.275,10.766,10.766,0,0,1,.51,12.55a5.888,5.888,0,0,1,1.05,1.575A11.119,11.119,0,0,0,5.145,11.77,9.068,9.068,0,0,0,7.59,7.75a11.258,11.258,0,0,0,2.265,3.63,12.174,12.174,0,0,0,3.7,2.745,6.177,6.177,0,0,1,1.1-1.725,10.468,10.468,0,0,1-4.14-2.85,10.474,10.474,0,0,1-2.16-3.93ZM21.495.595a9.811,9.811,0,0,1,.06,1.26c0,3.6-.81,6.06-2.745,8.28a10,10,0,0,1-3.27,2.505,4.487,4.487,0,0,1,1.17,1.545,12.652,12.652,0,0,0,2.325-1.725,10.443,10.443,0,0,0,2.31-2.88,10.733,10.733,0,0,0,1.17-3.03,11.859,11.859,0,0,0,2,4.1,14.6,14.6,0,0,0,3.81,3.54,5.581,5.581,0,0,1,1.17-1.665,9.989,9.989,0,0,1-2.325-1.62A10.054,10.054,0,0,1,24.8,8.05a10.767,10.767,0,0,1-1.47-5.91,9.924,9.924,0,0,1,.1-1.545ZM41.76,3.04a15.6,15.6,0,0,1,1.875.09V1.36a12.142,12.142,0,0,1-1.875.105H34.845c.39-.8.39-.8.525-1.05l-1.8-.27a2.747,2.747,0,0,1-.33.945,10.9,10.9,0,0,1-2.715,3.39,6.171,6.171,0,0,1,1.17,1.17A14.032,14.032,0,0,0,33.93,3.04ZM40.08,12.6c-.945-.84-1.695-1.455-2.61-2.175a12.388,12.388,0,0,0,.975-1.245c.33-.45.5-.675.645-.84l-1.6-.765A5.478,5.478,0,0,1,36.18,9.49c-1.065-.72-1.56-1.035-2.655-1.665L32.43,8.83a26.346,26.346,0,0,1,2.61,1.71,16.75,16.75,0,0,1-4.155,2.28,5.753,5.753,0,0,1,1.125,1.41,18.362,18.362,0,0,0,4.335-2.7,32.892,32.892,0,0,1,2.61,2.31Zm.345-5.19a13.893,13.893,0,0,0,.69,4.845c.42,1.14,1.185,1.92,1.86,1.92.915,0,1.38-.96,1.62-3.315a4.487,4.487,0,0,1-1.29-.9,4.947,4.947,0,0,1-.36,2.22,1.936,1.936,0,0,1-.525-1.02A14.756,14.756,0,0,1,42,7.3a10.268,10.268,0,0,1,.075-1.365,15.364,15.364,0,0,1-1.755.06H32.7a7.412,7.412,0,0,1-1.29-.075V7.495a12.654,12.654,0,0,1,1.725-.09ZM33.495,5.17a12.465,12.465,0,0,1,1.425-.06H40.9a11.194,11.194,0,0,1,1.59.075V3.7a12.554,12.554,0,0,1-1.59.075H34.62a9.45,9.45,0,0,1-1.125-.06ZM53.67,3.385a3.278,3.278,0,0,1,1.515.45,3.716,3.716,0,0,1,1.845,3.33,4.2,4.2,0,0,1-2.085,3.75,7.972,7.972,0,0,1-2.985.825,4.785,4.785,0,0,1,.915,1.755,9.807,9.807,0,0,0,2.355-.63A5.779,5.779,0,0,0,58.875,7.27c0-3.375-2.34-5.565-5.94-5.565a6.733,6.733,0,0,0-5.16,2.1,6.443,6.443,0,0,0-1.65,4.365c0,2.415,1.23,4.155,2.94,4.155,1.23,0,2.19-.885,3.045-2.82A21.7,21.7,0,0,0,53.67,3.385ZM51.84,3.4A19.769,19.769,0,0,1,50.6,8.47c-.54,1.29-1.05,1.92-1.545,1.92-.66,0-1.185-.975-1.185-2.205a5.022,5.022,0,0,1,2.04-4.05A3.818,3.818,0,0,1,51.84,3.4ZM65.43,7.06a7.453,7.453,0,0,1-.09.87,5.8,5.8,0,0,1-1.965,3.42,7.078,7.078,0,0,1-2.325,1.38,5.323,5.323,0,0,1,1.1,1.47,8.688,8.688,0,0,0,3.81-3.3,7.981,7.981,0,0,0,1.17-3.84H70v.87a14.736,14.736,0,0,1-.465,3.99c-.135.225-.3.285-.855.285a12.331,12.331,0,0,1-1.815-.195,6.442,6.442,0,0,1,.45,1.755c1,.045,1.245.06,1.545.06,1.335,0,1.875-.21,2.205-.87a20.457,20.457,0,0,0,.63-6.27v-.51A15.3,15.3,0,0,0,73.56,7.75,6.984,6.984,0,0,1,74.7,6.13a11.632,11.632,0,0,1-4.155-4.35,5.606,5.606,0,0,1-.585-1.3l-1.665.645a6.152,6.152,0,0,1,.315.63,15,15,0,0,0,2.475,3.765c-.36.015-.57.015-.93.015h-5.52a7.753,7.753,0,0,1-.78-.03A16.683,16.683,0,0,0,66.27,1.855a4.242,4.242,0,0,1,.405-.765l-1.8-.645a4.663,4.663,0,0,1-.6,1.515,11.565,11.565,0,0,1-3.945,4.3,5.215,5.215,0,0,1,1.155,1.47A14.912,14.912,0,0,0,63.36,6.07V7.135a10.423,10.423,0,0,1,1.275-.075Zm17.04,5.58c-.645.09-1.08.135-1.44.15l.165,1.425a4.114,4.114,0,0,1,.645-.105c.375-.075.375-.075,1.29-.24a21.879,21.879,0,0,0,2.835-.69l-.015-1.26a5.776,5.776,0,0,0,.945.975,8.776,8.776,0,0,0,1.95,1.275,7.011,7.011,0,0,1,.855-1.44,6.768,6.768,0,0,1-2.22-1.2,13.662,13.662,0,0,0,1.59-1.35L88.1,9.46a6.607,6.607,0,0,1,1.2.075V8.215a10.792,10.792,0,0,1-1.485.06h-.795v-.69h.45a9.7,9.7,0,0,1,1.38.06V6.415a9.029,9.029,0,0,1-1.38.06h-.45V5.8h.555a9.3,9.3,0,0,1,1.455.075V4.585a8.7,8.7,0,0,1-1.485.075h-.525a7.125,7.125,0,0,1,.045-.81,13.042,13.042,0,0,0,1.77.555,7.909,7.909,0,0,1,.63-1.11,9.647,9.647,0,0,1-2.58-.78h.78a12.309,12.309,0,0,1,1.575.075V1.15a9.338,9.338,0,0,1-1.605.09H85.515V1.15A4.291,4.291,0,0,1,85.59.3H83.895a5.217,5.217,0,0,1,.06.855v.09H82.32a11.784,11.784,0,0,1-1.56-.075v1.41a10.45,10.45,0,0,1,1.185-.06h.72a7.532,7.532,0,0,1-2.19.885V2.86a7.568,7.568,0,0,1-1.17.06H76.77a6.156,6.156,0,0,1-1.17-.075V4.39a8.486,8.486,0,0,1,1.17-.06h2.535a10.615,10.615,0,0,1,1.17.045V3.64a3.2,3.2,0,0,1,.66.81A12.237,12.237,0,0,0,82.5,3.91c.015.18.03.39.045.75H82.08a10.879,10.879,0,0,1-1.26-.045V5.86a7.944,7.944,0,0,1,1.245-.06h.48v.675H82.41a9.812,9.812,0,0,1-1.26-.06v1.23a9.375,9.375,0,0,1,1.26-.06h.135v.69H81.96a13.807,13.807,0,0,1-1.38-.045V9.52a8.4,8.4,0,0,1,1.275-.06h.735a5.856,5.856,0,0,1-2.415,1.38v-.435a7.358,7.358,0,0,1,.045-1.14,6.855,6.855,0,0,1-.93.045H77.025c-.45,0-.675-.015-1.035-.045a10.326,10.326,0,0,1,.06,1.245v2.25a14.025,14.025,0,0,1-.075,1.455h1.47v-.72h1.41v.465H80.22c-.015-.225-.045-.72-.045-1.05V11.29a4.953,4.953,0,0,1,.54.855A12.93,12.93,0,0,0,82.47,11.11Zm1.35-2.7a4.272,4.272,0,0,0,.4-.48h.465A7.729,7.729,0,0,0,85.95,11.9c-1.44.36-1.44.36-2.13.495Zm1.815-1.665h-1.71v-.69h1.71Zm0-1.8h-1.71V5.8h1.71ZM83.925,4.66a5.628,5.628,0,0,1,.06-.855H82.74a7.859,7.859,0,0,0,1.335-.78l-.615-.51h2.46l-.48.525a8.758,8.758,0,0,0,1.485.765h-1.35a4.169,4.169,0,0,1,.06.855Zm3.96,4.8a4.772,4.772,0,0,1-1.215,1.17,4.583,4.583,0,0,1-.63-1.17ZM77.4,10.615h1.455v1.56H77.4Zm-1.335-8.34a9.356,9.356,0,0,1,1.215-.06h1.695a8.924,8.924,0,0,1,1.215.06V.745A6.789,6.789,0,0,1,78.975.82H77.28A6.789,6.789,0,0,1,76.065.745Zm.06,4.23a5.95,5.95,0,0,1,.96-.045h2.13a5.56,5.56,0,0,1,.93.045V5.095a5.2,5.2,0,0,1-.93.045h-2.13a8.042,8.042,0,0,1-.96-.045Zm0,2.1a5.753,5.753,0,0,1,.945-.045h2.115a7.871,7.871,0,0,1,.96.045V7.2a5.287,5.287,0,0,1-.93.045h-2.13a8.042,8.042,0,0,1-.96-.045Zm16.86-1.74a24.211,24.211,0,0,1,3,2.9,24.693,24.693,0,0,1,2.895,3.78l1.575-1.26c-.78-1.065-1.35-1.785-1.98-2.505A23.2,23.2,0,0,0,103.32,4.09a4.683,4.683,0,0,1,.66-.885L102.93,2.02a3.928,3.928,0,0,1-1.245.12l-8.34.015a10.941,10.941,0,0,1-1.95-.105V3.955a16.269,16.269,0,0,1,1.92-.075h7.155c.315,0,.54-.015.69-.03a.384.384,0,0,0-.03.075,1.053,1.053,0,0,0-.09.135,19.84,19.84,0,0,1-1.83,2.445A18.421,18.421,0,0,1,97.245,8.4c-.105-.09-.105-.09-.93-.93-.615-.6-1.065-1.005-1.86-1.665ZM106.83,3.37a15.749,15.749,0,0,1,3.825,3.045l1.29-1.635a21.244,21.244,0,0,0-3.87-2.9Zm.525,9.9a5.31,5.31,0,0,1,.99-.255,16.2,16.2,0,0,0,5.715-2.25,13.165,13.165,0,0,0,4.755-5.88,6.468,6.468,0,0,1-1.59-1.47,12.525,12.525,0,0,1-1.53,3,10.022,10.022,0,0,1-4.455,3.675,14.293,14.293,0,0,1-4.44,1.11ZM122.865,2.6a17.611,17.611,0,0,1,4.005,2.07l.96-1.65a24.053,24.053,0,0,0-3.99-1.935ZM121.68,6.25a17.544,17.544,0,0,1,4.065,2.2l.93-1.7a21.205,21.205,0,0,0-3.99-2.04Zm.855,7.23a9.688,9.688,0,0,1,1.05-.24c3.69-.735,6.24-2.07,8.145-4.26a13.094,13.094,0,0,0,2.25-3.8,7.745,7.745,0,0,1-1.56-1.335,11.1,11.1,0,0,1-1.74,3.315,9.169,9.169,0,0,1-4.335,3.3,13.729,13.729,0,0,1-4.335.975Zm22.5-.24v.7h1.725a7.5,7.5,0,0,1-.06-1.14V5.935c0-.66.015-1.035.045-1.575a13.106,13.106,0,0,1-1.395.06h-5.91a6.841,6.841,0,0,1-1.35-.1V5.98a9.746,9.746,0,0,1,1.35-.06h5.61V8.005h-5.22a6.742,6.742,0,0,1-1.35-.105V9.535a9.471,9.471,0,0,1,1.35-.06h5.22V11.74h-5.76a6.841,6.841,0,0,1-1.35-.1V13.3a9.47,9.47,0,0,1,1.35-.06Zm6.795-9.87a15.748,15.748,0,0,1,3.825,3.045l1.29-1.635a21.245,21.245,0,0,0-3.87-2.9Zm.525,9.9a5.31,5.31,0,0,1,.99-.255,16.2,16.2,0,0,0,5.715-2.25,13.165,13.165,0,0,0,4.755-5.88,6.468,6.468,0,0,1-1.59-1.47,12.526,12.526,0,0,1-1.53,3,10.022,10.022,0,0,1-4.455,3.675,14.293,14.293,0,0,1-4.44,1.11Zm12.12-2.52a16.144,16.144,0,0,1,3.255,3.42l1.4-1.305a17.533,17.533,0,0,0-3.375-3.3Zm20.3-3.12v2.955c0,2.115.69,2.61,3.615,2.61.72,0,1.725-.045,2.385-.09,1.08-.09,1.08-.09,1.215-.09a1.734,1.734,0,0,1,.255.015l-.045-1.9a6.954,6.954,0,0,1-1.395.255c-.78.075-1.7.12-2.235.12a3.9,3.9,0,0,1-1.545-.195c-.33-.15-.4-.375-.4-1.275V7.63h4.2a14.863,14.863,0,0,1,1.89.075V5.89a10.373,10.373,0,0,1-1.92.105h-4.17V3.4h3.225a14.115,14.115,0,0,1,1.92.075V1.66a10.359,10.359,0,0,1-1.95.1h-6.84a10.271,10.271,0,0,1-1.935-.1V3.475a13.992,13.992,0,0,1,1.9-.075h1.83V5.995h-2.715a10.278,10.278,0,0,1-1.92-.105V7.705a14.863,14.863,0,0,1,1.89-.075ZM10.83,23.435a9.441,9.441,0,0,1-1.935.105H4.485a9.622,9.622,0,0,1-1.935-.105v1.83a12.394,12.394,0,0,1,1.9-.075h4.47a12.266,12.266,0,0,1,1.9.075Zm.945,5.5a13.177,13.177,0,0,1,1.9.075V27.23a9.8,9.8,0,0,1-1.935.105H2.97a9.8,9.8,0,0,1-1.935-.105v1.785a13.177,13.177,0,0,1,1.9-.075H6.585c-.105,2.91-1.275,4.4-4.215,5.325A4.768,4.768,0,0,1,3.6,35.93c3.39-1.305,4.8-3.285,4.965-6.99Zm3.18-4.785a9.2,9.2,0,0,0-1.32-2.28l-1.08.39a10.9,10.9,0,0,1,1.29,2.325Zm-4.365-1.3a11.059,11.059,0,0,1,1.32,2.4l1.125-.42A10.585,10.585,0,0,0,11.7,22.46Zm7.155.42a7.539,7.539,0,0,1,.06,1.365c0,4.2-.345,6.135-1.425,7.86a6.163,6.163,0,0,1-1.545,1.725,5.339,5.339,0,0,1,1.515,1.455A9.552,9.552,0,0,0,18.42,32.9a14.045,14.045,0,0,0,1.215-6.165,31.347,31.347,0,0,1,.15-3.36Zm3.975-.1a6.492,6.492,0,0,1,.06.99v.45l-.075,8.46a6.722,6.722,0,0,1-.135,1.59l.96,1.02a6.528,6.528,0,0,1,.645-.27,9.907,9.907,0,0,0,3.2-1.8,9.309,9.309,0,0,0,2.385-3.495,6.287,6.287,0,0,1-1.41-1.41,7.33,7.33,0,0,1-1.47,2.745,6.031,6.031,0,0,1-2.3,1.71l.075-8.535a8.129,8.129,0,0,1,.105-1.425Zm10.425.1a7.539,7.539,0,0,1,.06,1.365c0,4.2-.345,6.135-1.425,7.86a6.163,6.163,0,0,1-1.545,1.725,5.339,5.339,0,0,1,1.515,1.455A9.552,9.552,0,0,0,32.82,32.9a14.045,14.045,0,0,0,1.215-6.165,31.349,31.349,0,0,1,.15-3.36Zm3.975-.1a6.492,6.492,0,0,1,.06.99v.45l-.075,8.46a6.722,6.722,0,0,1-.135,1.59l.96,1.02a6.527,6.527,0,0,1,.645-.27,9.907,9.907,0,0,0,3.195-1.8,9.309,9.309,0,0,0,2.385-3.495,6.287,6.287,0,0,1-1.41-1.41,7.33,7.33,0,0,1-1.47,2.745,6.031,6.031,0,0,1-2.3,1.71l.075-8.535a8.128,8.128,0,0,1,.1-1.425Zm8.6,7.125a16.467,16.467,0,0,1,2.445-.075h7.965a16.467,16.467,0,0,1,2.445.075V28.2a14.731,14.731,0,0,1-2.43.1H47.145a14.731,14.731,0,0,1-2.43-.1Zm19.2-7.455a23.724,23.724,0,0,1-1.1,4.155c-.78,2.46-1.38,4.155-2.175,6.045-.63.03-.99.045-1.29.045h-.39l.27,2.025a8.2,8.2,0,0,1,1.365-.18c4.485-.435,6.975-.75,8.49-1.065.345-.075.345-.075.54-.12a15.36,15.36,0,0,1,.72,1.86l1.815-.945a35.086,35.086,0,0,0-3.63-6.945l-1.695.66a18.623,18.623,0,0,1,1.425,2.385c.36.675.54,1,.705,1.365a59.281,59.281,0,0,1-6.24.765,89.089,89.089,0,0,0,2.97-8.55,4.591,4.591,0,0,1,.39-1.08ZM86.79,35.27a38.472,38.472,0,0,0-3.675-5.6l-1.47.825a22.376,22.376,0,0,1,1.9,2.67,46.387,46.387,0,0,1-5.43.5,47.313,47.313,0,0,0,2.805-5.775c.15-.36.21-.48.3-.66l-1.98-.51a12.071,12.071,0,0,1-.87,2.58,39.478,39.478,0,0,1-2.2,4.44c-.42.015-.51.015-.855.015-.42,0-.765-.015-1.1-.045l.3,1.92a11.194,11.194,0,0,1,1.755-.165,78.086,78.086,0,0,0,8.115-.825c.27.51.405.765.78,1.575ZM77.91,22.73a5.637,5.637,0,0,1-.795,1.86,11.948,11.948,0,0,1-3.705,3.87,6.982,6.982,0,0,1,1.14,1.56,15.657,15.657,0,0,0,2.31-2.16,17.464,17.464,0,0,0,2.49-3.675,2.313,2.313,0,0,1,.195-.39,1.318,1.318,0,0,0,.075-.15,2.192,2.192,0,0,1,.135-.225Zm3.42.69.12.24a2.639,2.639,0,0,1,.15.3c.075.165.135.27.165.345a15.546,15.546,0,0,0,1.38,2.265,16.023,16.023,0,0,0,3.465,3.465,7.567,7.567,0,0,1,1.11-1.65,14.629,14.629,0,0,1-1.425-1.02,12.427,12.427,0,0,1-1.65-1.695,9.692,9.692,0,0,1-1.665-2.955Zm11.865,7.62a13.585,13.585,0,0,1-1.56-.06v1.38a10.443,10.443,0,0,1,1.59-.075,3.648,3.648,0,0,1-1.605,2.67,6.78,6.78,0,0,1,1.2,1.035,5.393,5.393,0,0,0,1.815-3.705h1.68V34.49a7,7,0,0,1-.075,1.29h1.575a6.434,6.434,0,0,1-.075-1.275v-2.22h.225a10.753,10.753,0,0,1,1.545.075V30.98a13.456,13.456,0,0,1-1.545.06H97.74V29.66a13.585,13.585,0,0,1,1.56.06V28.37a10.6,10.6,0,0,1-1.56.075H93.39a10.053,10.053,0,0,1-1.515-.075v1.35a13.074,13.074,0,0,1,1.5-.06c0,.69,0,.855-.03,1.38Zm3.12-1.38v1.38H94.74c.03-.705.03-.705.03-1.38ZM90.84,27.74h2.79c.525,0,.99.015,1.38.045-.03-.39-.045-.675-.045-1.35v-2.31c0-.525.015-.96.045-1.4a12.674,12.674,0,0,1-1.53.06H90.75a13.624,13.624,0,0,1-1.545-.06,16.631,16.631,0,0,1,.06,1.68v9.9a13.262,13.262,0,0,1-.09,1.86H90.93a13.2,13.2,0,0,1-.09-1.83Zm0-3.825H93.5v.795H90.84Zm0,1.86H93.5v.81H90.84Zm11.04-1.38c0-.75.015-1.11.06-1.665a13.456,13.456,0,0,1-1.545.06H97.53A13,13,0,0,1,96,22.73c.03.435.045.825.045,1.4v2.31c0,.675,0,.915-.03,1.35.36-.03.84-.045,1.365-.045h2.94v6.375c0,.33-.09.39-.57.39a10.72,10.72,0,0,1-1.38-.12,5.384,5.384,0,0,1,.4,1.59c.5.03.705.03.975.03,1.68,0,2.13-.345,2.13-1.68Zm-4.35-.48h2.79v.795H97.53Zm0,1.86h2.79v.81H97.53Zm12.075-.855H105.66a11.558,11.558,0,0,1-1.35-.06,11.743,11.743,0,0,1,.06,1.305v4.59a11.242,11.242,0,0,1-.075,1.5h1.77v-.9h3.54V34.4a12.575,12.575,0,0,1-.105,1.86h1.92a11.8,11.8,0,0,1-.105-1.86V31.355h3.72v.9h1.77a10.324,10.324,0,0,1-.075-1.5V26.18a11.013,11.013,0,0,1,.06-1.32,10.727,10.727,0,0,1-1.365.06h-4.11v-.975a11,11,0,0,1,.09-1.575h-1.89a9.725,9.725,0,0,1,.09,1.635Zm0,1.59v3.255h-3.54V26.51Zm1.71,3.255V26.51h3.72v3.255ZM121.2,31.1a2.543,2.543,0,1,0,2.535,2.535A2.541,2.541,0,0,0,121.2,31.1Zm0,1.17a1.373,1.373,0,1,1-1.365,1.365A1.37,1.37,0,0,1,121.2,32.27Z" transform="translate(-2258 -229)" fill="#444"/>
    <path id="パス_7569" data-name="パス 7569" d="M5.654,7.349A2.732,2.732,0,0,1,4.07,9.582a4.545,4.545,0,0,1-1.265.44A3.138,3.138,0,0,1,3.5,11.034a5.492,5.492,0,0,0,1.54-.693A3.877,3.877,0,0,0,6.523,8.515a4.639,4.639,0,0,0,.286-1.166h.539V9.956c0,.407.022.495.165.616.187.165.506.22,1.3.22.858,0,1.254-.077,1.485-.308s.3-.572.4-1.76a4.707,4.707,0,0,1-1.023-.44A4.072,4.072,0,0,1,9.526,9.6c-.055.088-.209.121-.506.121-.462,0-.517-.022-.517-.187V7.349h.8c.121,0,.418.022.649.044-.033-.374-.044-.7-.044-1.188V2.157a9.319,9.319,0,0,1,.044-1.111A8.634,8.634,0,0,1,8.9,1.09H5.533a8.273,8.273,0,0,1-1.067-.044c.022.319.033.517.033,1.111V6.271c0,.44-.011.748-.033,1.111.451-.022.638-.033,1.034-.033ZM5.632,2.124H8.756v.748H5.632Zm0,1.705H8.756v.748H5.632Zm0,1.7H8.756v.792H5.632ZM1.826,2.388V4.544H1.441A5.193,5.193,0,0,1,.671,4.5V5.622a3.843,3.843,0,0,1,.748-.055h.407V8.009a10.038,10.038,0,0,1-1.441.385L.693,9.659a5.908,5.908,0,0,1,.572-.22A17.531,17.531,0,0,0,4.18,8.185V7.063c-.627.3-.836.385-1.2.539V5.567h.33a5.042,5.042,0,0,1,.7.044V4.5a4.288,4.288,0,0,1-.7.044h-.33V2.388h.286a7.155,7.155,0,0,1,.9.044V1.255a5.132,5.132,0,0,1-.979.066H1.562a5.119,5.119,0,0,1-.99-.066V2.443A5.709,5.709,0,0,1,1.5,2.388ZM16.61,5.336l1.067-.341V7.327a8.366,8.366,0,0,1-.055,1.133H18.9a7.981,7.981,0,0,1-.066-1.1V4.621l1.265-.4c-.033,1.067-.077,1.749-.132,2.112-.044.231-.11.275-.385.275a3.041,3.041,0,0,1-.616-.088,3.282,3.282,0,0,1,.3,1.133c.275.022.374.022.517.022.8,0,1.1-.187,1.243-.814a20.309,20.309,0,0,0,.242-3.025c.022-.594.033-.671.055-1.155a6.726,6.726,0,0,1-.9.33l-1.584.495V1.97A9.056,9.056,0,0,1,18.9.848H17.622a7.852,7.852,0,0,1,.055,1.1V3.862L16.61,4.2V3a8.441,8.441,0,0,1,.066-1.122h-1.3a7.014,7.014,0,0,1,.066,1.166V4.555l-.1.033a6.587,6.587,0,0,1-1.067.242l.275,1.2a5.942,5.942,0,0,1,.671-.253c.044-.011.121-.033.22-.066V9.494c0,.968.484,1.177,2.706,1.177,3.135,0,3.366-.154,3.5-2.354a5.791,5.791,0,0,1-1.2-.363,2.523,2.523,0,0,1-.2,1.309c-.165.231-.517.286-1.826.286a8.588,8.588,0,0,1-1.5-.077c-.242-.044-.319-.121-.319-.341ZM12.661,3.543h-.253a4.308,4.308,0,0,1-.858-.055V4.665a4.514,4.514,0,0,1,.858-.055h.253V8.064a5.733,5.733,0,0,1-1.309.4l.231,1.265c.165-.077.264-.121.572-.242a18.515,18.515,0,0,0,2.717-1.221L14.839,7.1c-.495.253-.616.308-1.045.506V4.61H14a5.007,5.007,0,0,1,.77.044V3.5a3.69,3.69,0,0,1-.737.044h-.242V2.135A7.764,7.764,0,0,1,13.86.859H12.6a9.391,9.391,0,0,1,.066,1.265ZM26.268,6.062V8.229c0,1.551.506,1.914,2.651,1.914.528,0,1.265-.033,1.749-.066.792-.066.792-.066.891-.066a1.272,1.272,0,0,1,.187.011l-.033-1.4a5.1,5.1,0,0,1-1.023.187c-.572.055-1.243.088-1.639.088a2.861,2.861,0,0,1-1.133-.143c-.242-.11-.3-.275-.3-.935V6.062H30.7a10.9,10.9,0,0,1,1.386.055V4.786a7.607,7.607,0,0,1-1.408.077H27.621V2.96h2.365a10.351,10.351,0,0,1,1.408.055V1.684a7.6,7.6,0,0,1-1.43.077H24.948a7.532,7.532,0,0,1-1.419-.077V3.015a10.261,10.261,0,0,1,1.4-.055h1.342v1.9H24.277a7.537,7.537,0,0,1-1.408-.077V6.117a10.9,10.9,0,0,1,1.386-.055ZM40.942,1.519a6.924,6.924,0,0,1-1.419.077H36.289a7.056,7.056,0,0,1-1.419-.077V2.861a9.088,9.088,0,0,1,1.4-.055h3.278a8.995,8.995,0,0,1,1.4.055Zm.693,4.037a9.663,9.663,0,0,1,1.4.055V4.3a7.19,7.19,0,0,1-1.419.077H35.178A7.19,7.19,0,0,1,33.759,4.3V5.611a9.663,9.663,0,0,1,1.4-.055h2.673c-.077,2.134-.935,3.223-3.091,3.905a3.5,3.5,0,0,1,.9,1.221c2.486-.957,3.52-2.409,3.641-5.126Zm2.332-3.509A6.745,6.745,0,0,0,43,.375l-.792.286a7.99,7.99,0,0,1,.946,1.7Zm-3.2-.957a8.11,8.11,0,0,1,.968,1.76l.825-.308A7.763,7.763,0,0,0,41.58.8Zm5.247.308a5.529,5.529,0,0,1,.044,1c0,3.08-.253,4.5-1.045,5.764a4.519,4.519,0,0,1-1.133,1.265,3.915,3.915,0,0,1,1.111,1.067A7,7,0,0,0,46.508,8.46,10.3,10.3,0,0,0,47.4,3.939a22.986,22.986,0,0,1,.11-2.464Zm2.915-.077a4.761,4.761,0,0,1,.044.726v.33l-.055,6.2a4.929,4.929,0,0,1-.1,1.166l.7.748A4.787,4.787,0,0,1,50,10.3a7.265,7.265,0,0,0,2.343-1.32,6.827,6.827,0,0,0,1.749-2.563A4.611,4.611,0,0,1,53.053,5.38a5.375,5.375,0,0,1-1.078,2.013,4.422,4.422,0,0,1-1.683,1.254l.055-6.259a5.961,5.961,0,0,1,.077-1.045Zm7.645.077a5.529,5.529,0,0,1,.044,1c0,3.08-.253,4.5-1.045,5.764a4.519,4.519,0,0,1-1.133,1.265,3.915,3.915,0,0,1,1.111,1.067A7,7,0,0,0,57.068,8.46a10.3,10.3,0,0,0,.891-4.521,22.986,22.986,0,0,1,.11-2.464Zm2.915-.077a4.761,4.761,0,0,1,.044.726v.33l-.055,6.2a4.929,4.929,0,0,1-.1,1.166l.7.748a4.787,4.787,0,0,1,.473-.2A7.265,7.265,0,0,0,62.9,8.977a6.826,6.826,0,0,0,1.749-2.563A4.611,4.611,0,0,1,63.613,5.38a5.375,5.375,0,0,1-1.078,2.013,4.422,4.422,0,0,1-1.683,1.254l.055-6.259a5.961,5.961,0,0,1,.077-1.045Zm6.3,5.225a12.076,12.076,0,0,1,1.793-.055h5.841a12.076,12.076,0,0,1,1.793.055V5.017a10.8,10.8,0,0,1-1.782.077H67.573a10.8,10.8,0,0,1-1.782-.077Zm14.08-5.467a17.4,17.4,0,0,1-.8,3.047c-.572,1.8-1.012,3.047-1.6,4.433-.462.022-.726.033-.946.033h-.286l.2,1.485a6.017,6.017,0,0,1,1-.132c3.289-.319,5.115-.55,6.226-.781.253-.055.253-.055.4-.088a11.264,11.264,0,0,1,.528,1.364l1.331-.693a25.73,25.73,0,0,0-2.662-5.093l-1.243.484a13.656,13.656,0,0,1,1.045,1.749c.264.495.4.737.517,1A43.473,43.473,0,0,1,79,8.449a65.331,65.331,0,0,0,2.178-6.27,3.367,3.367,0,0,1,.286-.792ZM2.189,20.026c.077,0,.132.011.154.011.044,0,.121.011.253.022a17.344,17.344,0,0,0,2.013.132,11.726,11.726,0,0,0,1.65-.088,1.99,1.99,0,0,1-.242.132c-.143.088-.176.11-.286.176-.275.154-.4.231-1.089.671l.957.759a19.92,19.92,0,0,1,2.937-1.815l-.044-1.243a13.642,13.642,0,0,1-2.9.209,14.427,14.427,0,0,1-3.3-.275ZM3,22.512a3.114,3.114,0,0,0-1.419,2.4,1.9,1.9,0,0,0,1.408,1.837,7.869,7.869,0,0,0,2.75.363,17.75,17.75,0,0,0,2.97-.253,4.618,4.618,0,0,1,.484-.044l-.121-1.507a11.328,11.328,0,0,1-3.454.473c-1.859,0-2.662-.308-2.662-1.023,0-.473.308-.935,1-1.518Zm7.557-.451A6.361,6.361,0,0,0,9.416,20.51l-.737.385A8.1,8.1,0,0,1,9.8,22.49Zm-3.234-.517a7.424,7.424,0,0,1,1.155,1.639l.77-.407A7.129,7.129,0,0,0,8.1,21.159Zm12.76-.352a9.213,9.213,0,0,1,1.21.055V20.235a7.01,7.01,0,0,1-1.122.055H16.2a1.01,1.01,0,0,0,.121-.165,2.135,2.135,0,0,0,.143-.2,2.739,2.739,0,0,1,.22-.286l-1.177-.275a6.306,6.306,0,0,1-.572.924H12.826a6.6,6.6,0,0,1-1.111-.055v1.012c.363-.033.726-.055,1.21-.055h1.287a8.042,8.042,0,0,1-1,.957c1.518.2,1.716.231,2.112.3a15.721,15.721,0,0,1-3.179.352H11.8a2.81,2.81,0,0,1,.462.946,13.239,13.239,0,0,0,4.752-.913,24.394,24.394,0,0,1,3.168,1.056l.715-.88a24.081,24.081,0,0,0-2.783-.814,4.5,4.5,0,0,0,.99-1Zm-2.332,0a3.88,3.88,0,0,1-.957.715c-.682-.143-.858-.176-1.672-.319.176-.187.242-.253.363-.4Zm-.792,2.97v-.077a3.563,3.563,0,0,1,.055-.715H15.752a3.7,3.7,0,0,1,.055.715v.077H12.815a9.587,9.587,0,0,1-1.221-.066v1.111a9.664,9.664,0,0,1,1.243-.055h2.024a9.993,9.993,0,0,1-3.608,1.65,3.5,3.5,0,0,1,.682,1.056,10.056,10.056,0,0,0,3.894-2.222,2.062,2.062,0,0,0-.011.231v.275c-.011.176-.011.22-.011.352v.484a4.354,4.354,0,0,1-.066.924h1.276a5.428,5.428,0,0,1-.055-.924v-.5c0-.143-.022-.55-.033-.869a8.922,8.922,0,0,0,1.65,1.21,10.255,10.255,0,0,0,2.442,1.023,4.609,4.609,0,0,1,.6-1.1,9.623,9.623,0,0,1-3.74-1.595H20.13a12.445,12.445,0,0,1,1.254.055V24.1a9.786,9.786,0,0,1-1.254.066Zm-3.894-5.775c-.484,0-.825-.011-1.21-.044a5.8,5.8,0,0,1,.044.77v.352a3.691,3.691,0,0,1-.044.616h1.188v-.737h6.963v.748h1.177a5.4,5.4,0,0,1-.033-.649v-.319a5.353,5.353,0,0,1,.044-.781,11.792,11.792,0,0,1-1.188.044H17.061a3.4,3.4,0,0,1,.055-.737H15.774a4.485,4.485,0,0,1,.055.737Zm17.787,7.854c0,.319-.055.352-.594.352a10.287,10.287,0,0,1-1.43-.121,4.1,4.1,0,0,1,.341,1.254c.44.022.77.033,1.067.033,1.034,0,1.43-.088,1.672-.4.132-.165.165-.33.165-.792v-6.3A9.44,9.44,0,0,1,32.12,19.2a9.54,9.54,0,0,1-1.254.055H28.061c.011-.176.011-.176.022-.407.022-.451.022-.451.033-.6a2.6,2.6,0,0,1,.066-.55H26.807a5.7,5.7,0,0,1,.066.968c0,.187,0,.341-.011.594H24.167a10.45,10.45,0,0,1-1.276-.055,9.692,9.692,0,0,1,.044,1.067v6.27a9.232,9.232,0,0,1-.077,1.331h1.353a9.072,9.072,0,0,1-.055-1.309V24.426a4.12,4.12,0,0,1,.7.924A6.308,6.308,0,0,0,26.95,23.4a4.895,4.895,0,0,0,.528-1.045,8.18,8.18,0,0,0,2.651,2.794,4.2,4.2,0,0,1,.726-1.034Zm0-5.885V24a7.427,7.427,0,0,1-1.727-1.287,6.459,6.459,0,0,1-1.243-1.826c.033-.2.044-.253.077-.528Zm-6.7,0h2.607a5.608,5.608,0,0,1-.781,2.288,5,5,0,0,1-1.826,1.65Zm13.651-.748H34.914a8.475,8.475,0,0,1-.99-.044,8.611,8.611,0,0,1,.044.957v3.366a8.244,8.244,0,0,1-.055,1.1h1.3v-.66h2.6V26.56a9.223,9.223,0,0,1-.077,1.364h1.408a8.653,8.653,0,0,1-.077-1.364V24.327h2.728v.66h1.3a7.571,7.571,0,0,1-.055-1.1V20.532a8.076,8.076,0,0,1,.044-.968,7.867,7.867,0,0,1-1,.044H39.061v-.715a8.066,8.066,0,0,1,.066-1.155H37.741a7.132,7.132,0,0,1,.066,1.2Zm0,1.166v2.387h-2.6V20.774Zm1.254,2.387V20.774h2.728v2.387Z" transform="translate(-2243 -323)" fill="#8c9fbc"/>
    <g id="グループ_443" data-name="グループ 443" transform="translate(-882 -946)">
      <path id="パス_7504" data-name="パス 7504" d="M0,7.461,22.383,0V45.139H0Z" transform="translate(-1269.942 635.861)" fill="#f7f9fd"/>
      <path id="パス_7505" data-name="パス 7505" d="M11.565,7.461,0,0V45.139H11.565Z" transform="translate(-1247.566 635.861)" fill="#ccd8ea"/>
      <path id="パス_7512" data-name="パス 7512" d="M0,10.317,30.952,0V62.419H0Z" transform="translate(-1241.942 618.581)" fill="#f7f9fd"/>
      <path id="パス_7513" data-name="パス 7513" d="M15.992,10.317,0,0V62.419H15.992Z" transform="translate(-1211 618.581)" fill="#ccd8ea"/>
    </g>
    <path id="パス_7570" data-name="パス 7570" d="M0,0H202V80H0Z" transform="translate(-2261 -342)" fill="rgba(255,0,0,0.12)"/>
  </g>
</svg>
