<svg xmlns="http://www.w3.org/2000/svg" width="24.12" height="21.54" viewBox="0 0 24.12 21.54">
  <path id="パス_7527" data-name="パス 7527" d="M5.4,21l.87-6.45H3.75L2.88,21H.84l.87-6.45H.18v-1.8H1.95l.66-4.86H1.11V6.09H2.85L3.72-.36H5.76L4.89,6.09H7.41L8.28-.36h2.04L9.45,6.09h1.53v1.8H9.21l-.66,4.86h1.5v1.8H8.31L7.44,21Zm1.11-8.25.66-4.86H4.65l-.66,4.86ZM23.19-.36,19.71,8.61l.06.06a1.2,1.2,0,0,1,.465-.195A3.68,3.68,0,0,1,21.06,8.4a3,3,0,0,1,1.5.39,3.044,3.044,0,0,1,1.08.99,3.39,3.39,0,0,1,.33.66,5.054,5.054,0,0,1,.21.87q.06.54.09,1.365t.03,2.085q0,1.05-.03,1.725t-.09,1.125a4.216,4.216,0,0,1-.225.81,5.543,5.543,0,0,1-.345.69,4.138,4.138,0,0,1-1.6,1.53,4.709,4.709,0,0,1-2.265.54,4.521,4.521,0,0,1-2.25-.555A4.36,4.36,0,0,1,15.9,19.11a3.957,3.957,0,0,1-.375-.69,3.207,3.207,0,0,1-.195-.81,7.6,7.6,0,0,1-.12-1.125q-.03-.675-.03-1.725,0-.99.03-1.635T15.3,12a4.782,4.782,0,0,1,.18-.825q.12-.375.27-.8L19.77-.36ZM21.24,12.63a1.447,1.447,0,0,0-.45-1.11,1.523,1.523,0,0,0-2.1,0,1.447,1.447,0,0,0-.45,1.11v3.96a1.447,1.447,0,0,0,.45,1.11,1.523,1.523,0,0,0,2.1,0,1.447,1.447,0,0,0,.45-1.11Z" transform="translate(-0.18 0.36)" fill="#d1a40b"/>
</svg>
