<svg xmlns="http://www.w3.org/2000/svg" width="24.12" height="21.54" viewBox="0 0 24.12 21.54">
  <path id="パス_7523" data-name="パス 7523" d="M5.4,21l.87-6.45H3.75L2.88,21H.84l.87-6.45H.18v-1.8H1.95l.66-4.86H1.11V6.09H2.85L3.72-.36H5.76L4.89,6.09H7.41L8.28-.36h2.04L9.45,6.09h1.53v1.8H9.21l-.66,4.86h1.5v1.8H8.31L7.44,21Zm1.11-8.25.66-4.86H4.65l-.66,4.86ZM15.18,21V18.12L20.7,7.71a3.8,3.8,0,0,0,.48-1.365q.06-.585.06-1.455,0-.39-.015-.825A2,2,0,0,0,21.06,3.3a1.42,1.42,0,0,0-.45-.555,1.433,1.433,0,0,0-.87-.225,1.512,1.512,0,0,0-1.095.39,1.511,1.511,0,0,0-.405,1.14V5.79H15.18V4.11a4.521,4.521,0,0,1,.36-1.8A4.645,4.645,0,0,1,16.53.84,4.493,4.493,0,0,1,17.97-.165a4.365,4.365,0,0,1,1.8-.375A4.486,4.486,0,0,1,21.825-.1,4.1,4.1,0,0,1,23.25,1.08a5.166,5.166,0,0,1,.795,1.71A7.918,7.918,0,0,1,24.3,4.83q0,.78-.03,1.305a7.9,7.9,0,0,1-.12,1,4.429,4.429,0,0,1-.3.96q-.21.48-.57,1.17l-4.5,8.67H24.3V21Z" transform="translate(-0.18 0.54)" fill="#d1a40b"/>
</svg>
