<svg xmlns="http://www.w3.org/2000/svg" width="24.12" height="21.54" viewBox="0 0 24.12 21.54">
  <path id="パス_7526" data-name="パス 7526" d="M5.4,21l.87-6.45H3.75L2.88,21H.84l.87-6.45H.18v-1.8H1.95l.66-4.86H1.11V6.09H2.85L3.72-.36H5.76L4.89,6.09H7.41L8.28-.36h2.04L9.45,6.09h1.53v1.8H9.21l-.66,4.86h1.5v1.8H8.31L7.44,21Zm1.11-8.25.66-4.86H4.65l-.66,4.86ZM24.3-.36V2.52H18.24V8.28a3.428,3.428,0,0,1,1.08-.7,3.671,3.671,0,0,1,1.47-.285,3.489,3.489,0,0,1,2.535.945A3.778,3.778,0,0,1,24.3,11.07v5.52a4.665,4.665,0,0,1-.375,1.92,4.493,4.493,0,0,1-1,1.44,4.324,4.324,0,0,1-1.455.915,4.881,4.881,0,0,1-3.45,0,4.324,4.324,0,0,1-1.455-.915,4.493,4.493,0,0,1-1-1.44,4.665,4.665,0,0,1-.375-1.92v-.9h3.06v.78a1.642,1.642,0,0,0,.435,1.215,1.522,1.522,0,0,0,1.125.435,1.353,1.353,0,0,0,1.065-.42,1.7,1.7,0,0,0,.375-1.17V11.52a1.559,1.559,0,0,0-.405-1.08A1.33,1.33,0,0,0,19.8,9.99a1.465,1.465,0,0,0-.66.135,1.713,1.713,0,0,0-.45.315,1.246,1.246,0,0,0-.27.39q-.15.27-.18.33h-2.7V-.36Z" transform="translate(-0.18 0.36)" fill="#d1a40b"/>
</svg>
