<svg xmlns="http://www.w3.org/2000/svg" width="24.12" height="21.72" viewBox="0 0 24.12 21.72">
  <path id="パス_7524" data-name="パス 7524" d="M5.4,21l.87-6.45H3.75L2.88,21H.84l.87-6.45H.18v-1.8H1.95l.66-4.86H1.11V6.09H2.85L3.72-.36H5.76L4.89,6.09H7.41L8.28-.36h2.04L9.45,6.09h1.53v1.8H9.21l-.66,4.86h1.5v1.8H8.31L7.44,21Zm1.11-8.25.66-4.86H4.65l-.66,4.86Zm12.3-4.11a3.867,3.867,0,0,0,1.905-.33q.525-.33.525-1.53V4.02a1.491,1.491,0,0,0-.405-1.08,1.45,1.45,0,0,0-1.095-.42,1.292,1.292,0,0,0-1.155.51,1.771,1.771,0,0,0-.345.99V5.76H15.18V3.99a4.447,4.447,0,0,1,.36-1.77A4.3,4.3,0,0,1,16.53.78,4.92,4.92,0,0,1,18-.18a4.521,4.521,0,0,1,1.8-.36,4,4,0,0,1,2.085.495A4.8,4.8,0,0,1,23.13.96a6.555,6.555,0,0,1,.525.72,3.5,3.5,0,0,1,.375.87,11.962,11.962,0,0,1,.27,2.94q0,1.11-.045,1.8a3.765,3.765,0,0,1-.225,1.14,2.28,2.28,0,0,1-.585.81,6.938,6.938,0,0,1-1.035.72,5.811,5.811,0,0,1,1.1.84,2.47,2.47,0,0,1,.555.9,4.649,4.649,0,0,1,.21,1.275q.03.735.03,1.875,0,1.05-.045,1.74a8.954,8.954,0,0,1-.135,1.14,3.556,3.556,0,0,1-.24.81,4.938,4.938,0,0,1-.39.69,4.847,4.847,0,0,1-1.455,1.4,4.325,4.325,0,0,1-2.325.555,5.393,5.393,0,0,1-1.53-.24,4.171,4.171,0,0,1-1.47-.78,4.235,4.235,0,0,1-1.095-1.41,4.728,4.728,0,0,1-.435-2.13V14.88h3.06v1.59a1.739,1.739,0,0,0,.405,1.185,1.522,1.522,0,0,0,2.19,0,1.829,1.829,0,0,0,.405-1.245V13.35a2.105,2.105,0,0,0-.48-1.65,1.335,1.335,0,0,0-.735-.3,9.876,9.876,0,0,0-1.215-.06Z" transform="translate(-0.18 0.54)" fill="#d1a40b"/>
</svg>
