<svg xmlns="http://www.w3.org/2000/svg" width="1000" height="671" viewBox="0 0 1000 671">
  <g id="グループ_454" data-name="グループ 454" transform="translate(515 1613)">
    <g id="長方形_374" data-name="長方形 374" transform="translate(-515 -1613)" fill="#fff" stroke="#e2e2e2" stroke-width="1">
      <rect width="1000" height="671" rx="3" stroke="none"/>
      <rect x="0.5" y="0.5" width="999" height="670" rx="2.5" fill="none"/>
    </g>
    <g id="グループ_453" data-name="グループ 453" transform="translate(-215.029 -1424.129)">
      <g id="グループ_374" data-name="グループ 374" transform="translate(0 240.845)">
        <g id="グループ_373" data-name="グループ 373" transform="translate(0 0)">
          <g id="グループ_372" data-name="グループ 372">
            <g id="グループ_371" data-name="グループ 371">
              <g id="グループ_370" data-name="グループ 370">
                <g id="グループ_356" data-name="グループ 356" transform="translate(48.937 0.12)">
                  <path id="パス_7491" data-name="パス 7491" d="M359.56,426.158l-5.7-45c-.32-2.457-.634-4.2-5.3-4.2H324.61c-3,0-4.489.149-5.555,2.07l-26.226,47.786c-1.126,1.908-.214,3.545,1.66,3.545h15.469c2.059-.028,3.1-.471,4.207-2.273,1.5-2.733,2.913-5.554,4.075-8.021a.656.656,0,0,1,.568-.3h19.844a.586.586,0,0,1,.555.435l.757,6.954c.27,2.544,1.548,3.209,3.588,3.209h12.761C359.05,430.362,360.007,429.062,359.56,426.158ZM337.283,407.92H324.989a.3.3,0,0,1-.29-.407L335,387.329c.13-.317.512-.427.61,0l2.2,20.051C337.863,407.749,337.674,407.92,337.283,407.92Z" transform="translate(-292.337 -376.962)" fill="#cb0027"/>
                </g>
                <g id="グループ_357" data-name="グループ 357" transform="translate(267.92 0.12)">
                  <path id="パス_7492" data-name="パス 7492" d="M545.136,426.158l-5.718-45.009c-.31-2.462-.62-4.187-5.267-4.187H510.182c-2.99,0-4.5.149-5.576,2.041L478.4,426.779c-1.114,1.947-.229,3.584,1.673,3.584h15.45c2.058-.056,3.114-.5,4.2-2.273,1.5-2.752,2.922-5.554,4.092-8.021a.689.689,0,0,1,.574-.327h19.841a.556.556,0,0,1,.521.458l.766,6.954c.291,2.531,1.548,3.209,3.6,3.209H541.9C544.6,430.362,545.578,429.044,545.136,426.158Zm-22.291-18.243h-12.3a.305.305,0,0,1-.292-.413l10.3-20.178c.138-.332.55-.438.633,0l2.194,20.039C523.438,407.727,523.241,407.914,522.845,407.914Z" transform="translate(-477.91 -376.962)" fill="#cb0027"/>
                </g>
                <g id="グループ_360" data-name="グループ 360" transform="translate(185.402 0.055)">
                  <g id="グループ_359" data-name="グループ 359">
                    <g id="グループ_358" data-name="グループ 358">
                      <path id="パス_7493" data-name="パス 7493" d="M467.362,426.788l4.117-22.514c.257-1.217-.32-1.271-.747-.609L452,428.121a5.246,5.246,0,0,1-3.607,2.266h-4.532a2.885,2.885,0,0,1-2.622-1.859l-9.054-24.78c-.391-1.022-.7-.673-.844.212L426.95,427.8a2.836,2.836,0,0,1-2.758,2.591H410.569c-1.993,0-2.895-1.01-2.493-3.034l9.169-46.6c.6-2.968,2.164-3.8,4.411-3.8h14.919c2.744,0,4.638.588,5.38,2.55l7.923,21.407c.444,1.03.517,1.03,1.177.1l16.925-21.572a5.523,5.523,0,0,1,5.172-2.522h18.76c3.25,0,3.7,1.7,3.256,4L486.1,428.049a2.965,2.965,0,0,1-3.07,2.476H470.086C467.316,430.524,467.03,428.657,467.362,426.788Z" transform="translate(-407.982 -376.907)" fill="#cb0027"/>
                    </g>
                  </g>
                </g>
                <g id="グループ_363" data-name="グループ 363" transform="translate(121.273 0.269)">
                  <g id="グループ_362" data-name="グループ 362">
                    <g id="グループ_361" data-name="グループ 361">
                      <path id="パス_7494" data-name="パス 7494" d="M393.662,400.415l3.651-19.76c.534-2.978,2.045-3.567,4.41-3.567h11.719c2.194,0,3.77.8,3.168,3.829l-9.027,45.629c-.588,2.964-2.1,3.808-3.952,3.808h-9.4a4.162,4.162,0,0,1-3.833-1.84L377.7,406.93c-.286-.513-.53-.353-.6.027l-3.51,19.178c-.457,2.49-1.134,4.342-3.834,4.342H356.323c-2.207,0-3-1.175-2.575-3.407l8.756-46.323c.564-3.121,2.256-3.659,3.814-3.659h9.718c2.394,0,3.558.949,5.11,3.561l11.757,19.8C393.118,400.79,393.568,400.984,393.662,400.415Z" transform="translate(-353.637 -377.088)" fill="#cb0027"/>
                    </g>
                  </g>
                </g>
                <g id="グループ_366" data-name="グループ 366" transform="translate(339.197 0.042)">
                  <g id="グループ_365" data-name="グループ 365">
                    <g id="グループ_364" data-name="グループ 364">
                      <path id="パス_7495" data-name="パス 7495" d="M590.647,376.9l-37.341.078c-4.221,0-5.216.764-5.737,3.457l-9.115,46.734c-.41,2.116-.03,3.066,2.537,3.223,1.339.092,12.662.013,13.856,0a3.167,3.167,0,0,0,3.511-2.66c1.187-5.143,2.7-13.234,3.028-15.043.164-.869.233-.942,1.7-.942h10.391c1.729,0,2.411.814,2.041,3.208l-2.041,12.54c-.262,1.66.409,2.882,2.365,2.882,2.674.014,11.948.106,13.643,0,2.593,0,3.644-.595,4.247-3.994l2.1-11.692c.675-3.663.738-8.789-5.129-10.738-.292-.087-.256-.353-.032-.392,4.747-1.294,6.7-4.137,7.847-7.671a71.913,71.913,0,0,0,1.809-9.182C601.456,379.924,597.3,376.9,590.647,376.9Zm-10.431,13.952a66.349,66.349,0,0,1-1.246,6.626c-.568,2.445-1.542,3.054-5.046,3.054h-9.551c-.613,0-.74-.2-.629-.686l2.174-11.39a.411.411,0,0,1,.431-.277c2.495-.065,10.842-.119,11.686,0C579.856,388.359,580.314,389.161,580.215,390.848Z" transform="translate(-538.312 -376.896)" fill="#cb0027"/>
                    </g>
                  </g>
                </g>
                <g id="グループ_369" data-name="グループ 369">
                  <g id="グループ_368" data-name="グループ 368">
                    <g id="グループ_367" data-name="グループ 367">
                      <path id="パス_7496" data-name="パス 7496" d="M280.911,395.086l13.677-16.759a2.869,2.869,0,0,1,2.65-1.467H315.8c2.6,0,2.175,1.716,1.521,2.517L289.97,412.226a4.174,4.174,0,0,0-.444,1.35l-3.231,14.88c-.328,1.647-1.724,2.285-3.513,2.285H268.857c-2.876,0-3.069-1.623-2.718-3.518l2.628-13.144a1.484,1.484,0,0,0-.062-1.154l-17.689-33.9c-.5-1.166.3-2.162,1.823-2.162h15.58a3.336,3.336,0,0,1,3.25,1.641l8.09,16.6C280.1,395.837,280.484,395.588,280.911,395.086Z" transform="translate(-250.866 -376.86)" fill="#cb0027"/>
                    </g>
                  </g>
                </g>
              </g>
            </g>
          </g>
        </g>
      </g>
      <g id="グループ_375" data-name="グループ 375" transform="translate(0 0)">
        <path id="パス_7497" data-name="パス 7497" d="M430.283,362.116l189.68-78.567v-47.77l-189.68,78.569Z" transform="translate(-218.564 -161.415)" fill="#cb0027"/>
        <path id="パス_7498" data-name="パス 7498" d="M451.564,255.892l-200.7-83.131v47.77l200.7,83.125,200.7-83.125v-47.77Z" transform="translate(-250.866 -172.761)" fill="#cb0027"/>
        <path id="パス_7499" data-name="パス 7499" d="M250.866,283.549l189.677,78.567V314.348L250.866,235.779Z" transform="translate(-250.866 -161.415)" fill="#cb0027"/>
      </g>
    </g>
  </g>
</svg>
